<svg enable-background="new 0 0 395.1 86" viewBox="0 0 395.1 86" xmlns="http://www.w3.org/2000/svg"><path d="m158.5 49.5-6.8-18.5c-.3-.8-1.4-.8-1.6 0l-6.9 18.5c-.2.6.2 1.2.8 1.2h13.8c.5 0 1-.6.7-1.2m3.2 10.4h-21.7c-.4 0-.7.2-.8.6l-4.3 11.5c-.1.3-.5.6-.8.6h-9.4c-.6 0-1-.6-.8-1.2l21.7-54.1c.1-.3.5-.5.8-.5h9c.4 0 .7.2.8.5l21.7 54.1c.2.6-.2 1.2-.8 1.2h-9.4c-.4 0-.7-.2-.8-.6l-4.3-11.5c-.2-.3-.5-.6-.9-.6m20.6-24.1h8.1c.5 0 .9.4.9.9v35.1c0 .5-.4.9-.9.9h-8.1c-.5 0-.9-.4-.9-.9v-35.2c0-.4.4-.8.9-.8m38.3 8.5c0 .5-.4.9-.9.9h-.2c-4 0-6.9 1-8.8 2.9s-2.8 5.1-2.8 9.5v14.2c0 .5-.4.9-.9.9h-8c-.5 0-.9-.4-.9-.9v-35.2c0-.5.4-.9.9-.9h7.9c.5 0 .9.4.9.9v6.9h.2c1-2.9 2.5-5.1 4.5-6.6 2.1-1.5 4.6-2.3 7.7-2.3h.4zm22.1-.3c-.5 0-.9.4-.9.9v14.6c0 1.5.3 2.6.9 3.2s1.6 1 3 1h.8c.5 0 .9.4.9.9v7.3c0 .5-.4.9-.9.9h-3.4c-3.6 0-6.3-.9-8.2-2.7s-2.9-4.6-2.9-8.2v-17c0-.5-.4-.9-.9-.9h-5c-.5 0-.9-.4-.9-.9v-6.5c0-.5.4-.9.9-.9h5c.5 0 .9-.4.9-.9v-13c0-.5.4-.9.9-.9h8.1c.5 0 .9.4.9.9v13c0 .5.4.9.9.9h5.8c.5 0 .9.4.9.9v6.5c0 .5-.4.9-.9.9zm36.9 17.7c1.8-1.9 2.7-4.4 2.7-7.5s-.9-5.6-2.7-7.5-4.2-2.9-7.2-2.9-5.4 1-7.2 2.9-2.7 4.4-2.7 7.5.9 5.6 2.7 7.5 4.2 2.9 7.2 2.9c2.9 0 5.3-1 7.2-2.9m-18.6 9.8c-2.7-1.5-4.8-3.8-6.4-6.7s-2.4-6.5-2.4-10.6.8-7.6 2.4-10.6c1.6-2.9 3.7-5.2 6.4-6.7s5.7-2.3 8.9-2.3c2.9 0 5.3.6 7.4 1.7 2 1.1 3.7 2.7 4.9 4.7h.2v-4.3c0-.5.4-.9.9-.9h8c.5 0 .9.4.9.9v35.1c0 .5-.4.9-.9.9h-8c-.5 0-.9-.4-.9-.9v-4.3h-.2c-1.2 2-2.9 3.6-4.9 4.7s-4.5 1.7-7.4 1.7c-3.3-.1-6.2-.9-8.9-2.4m64.2-9.8c1.8-1.9 2.7-4.4 2.7-7.5s-.9-5.6-2.7-7.5-4.2-2.9-7.2-2.9-5.4 1-7.2 2.9-2.8 4.4-2.8 7.5.9 5.6 2.8 7.5c1.8 1.9 4.2 2.9 7.2 2.9s5.4-1 7.2-2.9m-12.1 10.4c-2-1.1-3.7-2.7-4.9-4.7h-.2v4.3c0 .5-.4.9-.9.9h-8.1c-.5 0-.9-.4-.9-.9v-54c0-.5.4-.9.9-.9h8.1c.5 0 .9.4.9.9v23.3h.2c1.2-2 2.9-3.6 4.9-4.7s4.5-1.7 7.4-1.7c3.2 0 6.2.8 8.9 2.3s4.8 3.8 6.4 6.7 2.4 6.5 2.4 10.6-.8 7.6-2.4 10.6c-1.6 2.9-3.7 5.2-6.4 6.7s-5.7 2.3-8.9 2.3c-2.9 0-5.3-.6-7.4-1.7m38.7.5h-8.1c-.5 0-.9-.4-.9-.9v-54c0-.5.4-.9.9-.9h8.1c.5 0 .9.4.9.9v54.1c-.1.4-.4.8-.9.8m19-28.3c-1.3 1-2.2 2.5-2.7 4.5-.1.5.3 1.1.9 1.1h15.3c.5 0 1-.5.9-1-.3-1.9-1.1-3.3-2.4-4.5-1.5-1.3-3.5-2-5.9-2-2.5.1-4.5.7-6.1 1.9m19.6-4.6c3.1 3.4 4.7 8.3 4.7 14.5v1c0 .5-.4.9-.9.9h-25.6c-.5 0-1 .5-.9 1 .4 2.3 1.4 4.2 3.1 5.5 1.9 1.6 4.3 2.4 7.1 2.4 3.7 0 7.1-1.4 10.3-4.3.4-.4 1-.3 1.3.2l3.9 5.6c.3.4.2.9-.1 1.2-1.9 1.7-4 3.1-6.4 4.2-2.6 1.2-5.6 1.9-9 1.9-4 0-7.5-.8-10.4-2.4-3-1.6-5.3-3.9-6.9-6.9-1.6-2.9-2.5-6.4-2.5-10.2 0-3.9.8-7.3 2.4-10.3s3.8-5.3 6.7-6.9 6.2-2.5 10-2.5c5.7 0 10.1 1.7 13.2 5.1m-198.1-16.9c0 3.3-2.7 6-6 6s-6-2.7-6-6 2.7-6 6-6 6 2.7 6 6" fill="#333"/><path d="m45.9 1.1-38.3 15.8c-2.1.9-2.1 3.9 0 4.8l38.5 15.3c3.4 1.3 7.1 1.3 10.5 0l38.5-15.3c2.1-.9 2.2-3.9 0-4.8l-38.3-15.8c-3.5-1.5-7.4-1.5-10.9 0" fill="#fcb400"/><path d="m54.8 45.3v38.1c0 1.8 1.8 3.1 3.5 2.4l42.9-16.6c1-.4 1.6-1.3 1.6-2.4v-38.1c0-1.8-1.8-3.1-3.5-2.4l-42.9 16.6c-1 .4-1.6 1.3-1.6 2.4" fill="#18bfff"/><path d="m0 28.8v35.8c0 1.9 2.2 3.1 3.9 2.3l26.8-12.9 1.3-.6-31.2-26.3c-.4.4-.8 1-.8 1.7z" fill="#f82b60"/><path d="m44.6 42.6-40.8-16.2c-.8-.3-1.7-.2-2.3.2-.2.1-.5.3-.7.5l31.2 26.3 12.7-6.1c2.1-1 1.9-3.9-.1-4.7z" fill="#ba1e45"/></svg>