<svg width="415" height="106" viewBox="0 0 415 106" fill="none" xmlns="http://www.w3.org/2000/svg">
<rect x="3" y="3" width="400" height="100" rx="15" fill="#333840"/>
<path d="M259 3H398C406.284 3 413 9.71573 413 18V88C413 96.2843 406.284 103 398 103H259V3Z" fill="#7F43E5"/>
<path d="M60.3763 33.5047L42.5285 40.8812C41.536 41.2915 41.5463 42.6996 42.545 43.095L60.4675 50.1939C62.0423 50.8177 63.796 50.8177 65.3705 50.1939L83.2932 43.095C84.2917 42.6996 84.3023 41.2915 83.3095 40.8812L65.462 33.5047C63.8336 32.8318 62.0044 32.8318 60.3763 33.5047Z" fill="white"/>
<path d="M64.5093 54.0705V71.8046C64.5093 72.6481 65.3608 73.2256 66.1458 72.9148L86.1168 65.1721C86.5728 64.9916 86.8718 64.5516 86.8718 64.0619V46.3278C86.8718 45.4843 86.0202 44.9068 85.2353 45.2176L65.2642 52.9603C64.8085 53.1408 64.5093 53.5808 64.5093 54.0705Z" fill="white"/>
<path d="M59.8456 54.9856L53.9186 57.8439L53.3168 58.1345L40.8054 64.1223C40.0123 64.5045 39 63.9272 39 63.0472V46.4023C39 46.0839 39.1634 45.8091 39.3826 45.6021C39.4741 45.5104 39.5777 45.435 39.6854 45.3753C39.9844 45.1961 40.4108 45.1483 40.7734 45.2915L59.746 52.7999C60.7104 53.182 60.7862 54.5318 59.8456 54.9856Z" fill="white"/>
<path d="M59.8458 54.9856L53.9188 57.8439L39.3828 45.6021C39.4743 45.5104 39.5779 45.435 39.6856 45.3753C39.9846 45.1961 40.411 45.1483 40.7736 45.2915L59.7462 52.7999C60.7106 53.182 60.7864 54.5318 59.8458 54.9856Z" fill="white"/>
<path d="M112.83 54.9561L109.627 46.3321C109.496 45.9794 108.997 45.9794 108.866 46.3321L105.664 54.9561C105.565 55.221 105.762 55.5026 106.044 55.5026H112.449C112.732 55.5026 112.928 55.221 112.83 54.9561ZM114.309 59.8032H104.184C104.014 59.8032 103.863 59.9086 103.804 60.0675L101.81 65.4334C101.751 65.5923 101.599 65.6977 101.43 65.6977H97.0416C96.7542 65.6977 96.5578 65.4077 96.6649 65.1415L106.769 40.0005C106.831 39.847 106.98 39.7461 107.146 39.7461H111.348C111.513 39.7461 111.663 39.847 111.725 40.0005L121.829 65.1413C121.936 65.4077 121.739 65.6977 121.452 65.6977H117.064C116.894 65.6977 116.742 65.5923 116.683 65.4334L114.69 60.0675C114.631 59.9086 114.479 59.8032 114.309 59.8032ZM123.885 48.5697H127.638C127.863 48.5697 128.044 48.7514 128.044 48.9751V65.2924C128.044 65.5162 127.863 65.6978 127.638 65.6978H123.885C123.661 65.6978 123.479 65.5162 123.479 65.2924V48.9751C123.479 48.7514 123.661 48.5697 123.885 48.5697ZM141.734 52.5391C141.734 52.7628 141.552 52.9445 141.328 52.9445H141.214C139.358 52.9445 137.997 53.3893 137.131 54.2791C136.265 55.1688 135.832 56.6396 135.832 58.6909V65.2926C135.832 65.5163 135.65 65.698 135.426 65.698H131.71C131.485 65.698 131.304 65.5163 131.304 65.2926V48.975C131.304 48.7512 131.485 48.5696 131.71 48.5696H135.389C135.613 48.5696 135.795 48.7512 135.795 48.975V52.2028H135.869C136.315 50.8682 137.02 49.8431 137.985 49.1258C138.95 48.4093 140.138 48.0507 141.548 48.0507H141.734V52.5391ZM151.997 52.3884C151.773 52.3884 151.591 52.57 151.591 52.7938V59.5808C151.591 60.2729 151.727 60.767 151.999 61.0637C152.271 61.3602 152.742 61.5086 153.41 61.5086H153.783C154.007 61.5086 154.189 61.69 154.189 61.914V65.3294C154.189 65.5535 154.007 65.7348 153.783 65.7348H152.185C150.527 65.7348 149.253 65.3086 148.362 64.4559C147.471 63.6032 147.025 62.337 147.025 60.6559V52.7938C147.025 52.57 146.844 52.3884 146.62 52.3884H144.277C144.052 52.3884 143.871 52.2067 143.871 51.9829V48.9751C143.871 48.7513 144.052 48.5697 144.277 48.5697H146.62C146.844 48.5697 147.025 48.3884 147.025 48.1643V42.1165C147.025 41.8927 147.207 41.7111 147.431 41.7111H151.185C151.409 41.7111 151.591 41.8927 151.591 42.1165V48.1643C151.591 48.3884 151.773 48.5697 151.997 48.5697H154.711C154.936 48.5697 155.117 48.7513 155.117 48.9751V51.9829C155.117 52.2067 154.936 52.3884 154.711 52.3884H151.997ZM169.185 60.6188C170.039 59.729 170.466 58.5674 170.466 57.1336C170.466 55.7007 170.039 54.5385 169.185 53.6488C168.331 52.7591 167.212 52.3142 165.826 52.3142C164.44 52.3142 163.321 52.7591 162.467 53.6488C161.613 54.5385 161.186 55.7007 161.186 57.1336C161.186 58.5674 161.613 59.729 162.467 60.6188C163.321 61.5085 164.44 61.9534 165.826 61.9534C167.212 61.9534 168.331 61.5085 169.185 60.6188ZM160.518 65.1788C159.256 64.4623 158.26 63.4177 157.53 62.0461C156.8 60.6745 156.435 59.0372 156.435 57.1336C156.435 55.2309 156.8 53.5931 157.53 52.2215C158.26 50.8499 159.256 49.8061 160.518 49.0888C161.78 48.372 163.166 48.0137 164.675 48.0137C166.011 48.0137 167.156 48.2731 168.109 48.7923C169.061 49.3112 169.822 50.0404 170.391 50.9796H170.466V48.975C170.466 48.7512 170.647 48.5696 170.871 48.5696H174.588C174.812 48.5696 174.994 48.7512 174.994 48.975V65.2923C174.994 65.5163 174.812 65.6977 174.588 65.6977H170.871C170.647 65.6977 170.466 65.5163 170.466 65.2923V63.288H170.391C169.822 64.2277 169.061 64.9563 168.109 65.4753C167.156 65.9944 166.011 66.2539 164.675 66.2539C163.166 66.2539 161.78 65.8953 160.518 65.1788ZM190.451 60.6188C191.304 59.729 191.731 58.5674 191.731 57.1336C191.731 55.7007 191.304 54.5385 190.451 53.6488C189.597 52.7591 188.477 52.3142 187.092 52.3142C185.706 52.3142 184.586 52.7591 183.733 53.6488C182.879 54.5385 182.452 55.7007 182.452 57.1336C182.452 58.5674 182.879 59.729 183.733 60.6188C184.586 61.5085 185.706 61.9534 187.092 61.9534C188.477 61.9534 189.597 61.5085 190.451 60.6188ZM184.809 65.4753C183.856 64.9563 183.095 64.2277 182.526 63.288H182.452V65.2923C182.452 65.5163 182.27 65.6977 182.046 65.6977H178.292C178.068 65.6977 177.886 65.5163 177.886 65.2923V40.1515C177.886 39.9277 178.068 39.7461 178.292 39.7461H182.046C182.27 39.7461 182.452 39.9277 182.452 40.1515V50.9796H182.526C183.095 50.0404 183.856 49.3112 184.809 48.7923C185.761 48.2731 186.906 48.0137 188.242 48.0137C189.751 48.0137 191.137 48.372 192.399 49.0888C193.661 49.8061 194.657 50.8499 195.387 52.2215C196.117 53.5931 196.482 55.2309 196.482 57.1336C196.482 59.0372 196.117 60.6745 195.387 62.0461C194.657 63.4177 193.661 64.4623 192.399 65.1788C191.137 65.8953 189.751 66.2539 188.242 66.2539C186.906 66.2539 185.761 65.9944 184.809 65.4753ZM202.807 65.6978H199.053C198.829 65.6978 198.647 65.5162 198.647 65.2924V40.1516C198.647 39.9279 198.829 39.7462 199.053 39.7462H202.807C203.031 39.7462 203.212 39.9279 203.212 40.1516V65.2924C203.212 65.5162 203.031 65.6978 202.807 65.6978ZM211.661 52.5367C211.038 53.0215 210.618 53.7215 210.401 54.6372C210.341 54.8896 210.538 55.1318 210.798 55.1318H217.941C218.189 55.1318 218.384 54.9102 218.344 54.6659C218.201 53.7996 217.829 53.1088 217.228 52.5924C216.523 51.9869 215.601 51.684 214.463 51.684C213.325 51.684 212.39 51.9683 211.661 52.5367ZM220.81 50.4048C222.27 51.9991 223 54.2548 223 57.1707V57.655C223 57.8791 222.818 58.0605 222.594 58.0605H210.66C210.408 58.0605 210.215 58.2896 210.258 58.5378C210.449 59.621 210.929 60.4815 211.698 61.1191C212.576 61.8486 213.684 62.2129 215.02 62.2129C216.745 62.2129 218.342 61.5404 219.81 60.1953C219.989 60.031 220.273 60.0659 220.413 60.2653L222.237 62.8815C222.355 63.0499 222.33 63.2823 222.175 63.4175C221.28 64.2002 220.293 64.8556 219.214 65.3826C218.026 65.9631 216.628 66.254 215.02 66.254C213.164 66.254 211.543 65.8767 210.157 65.1231C208.771 64.3696 207.695 63.3067 206.928 61.9348C206.161 60.5632 205.778 58.9753 205.778 57.1707C205.778 55.3669 206.149 53.7729 206.891 52.3883C207.633 51.0045 208.673 49.9294 210.009 49.1629C211.345 48.3972 212.904 48.0137 214.686 48.0137C217.308 48.0137 219.35 48.8107 220.81 50.4048ZM128.534 42.537C128.534 44.0665 127.293 45.3062 125.762 45.3062C124.23 45.3062 122.989 44.0665 122.989 42.537C122.989 41.0076 124.23 39.7678 125.762 39.7678C127.293 39.7678 128.534 41.0076 128.534 42.537Z" fill="white"/>
<line x1="260.5" y1="103" x2="260.5" y2="3" stroke="white" stroke-width="3"/>
<path d="M295.175 50.35C299.025 50.35 301.75 48.475 301.75 45.125C301.75 41.1 298.575 40.25 295.1 39.55C292.425 39.025 290.425 38.425 290.425 36.4C290.425 34.55 292.025 33.525 294.45 33.525C297.075 33.525 298.725 34.8 299.05 37.35H301.175C300.725 34.05 298.875 31.775 294.4 31.775C290.775 31.775 288.325 33.55 288.325 36.5C288.325 39.875 291.025 40.775 294.175 41.475C297.375 42.175 299.525 42.75 299.525 45.2C299.525 47.425 297.75 48.55 295.275 48.55C291.9 48.55 290.05 46.975 289.75 43.95H287.55C287.75 47.55 290.15 50.35 295.175 50.35ZM310.799 50.35C313.724 50.35 315.749 48.775 316.349 46H314.374C313.924 47.75 312.674 48.65 310.799 48.65C308.199 48.65 306.774 46.65 306.624 44.025H316.624C316.624 41.475 315.874 39.375 314.449 38.1C313.499 37.225 312.224 36.75 310.674 36.75C306.999 36.75 304.549 39.8 304.549 43.55C304.549 47.3 306.849 50.35 310.799 50.35ZM306.674 42.5C306.974 40.15 308.274 38.35 310.674 38.35C312.999 38.35 314.324 39.925 314.449 42.5H306.674ZM319.854 50H321.879V42.825C321.879 41.325 322.554 40.175 323.529 39.525C324.379 38.95 325.579 38.75 326.604 39.025V37.075C326.354 36.975 326.154 36.925 325.779 36.925C324.054 36.925 322.704 37.975 321.929 39.225H321.879V37.075H319.854V50ZM332.874 50H335.124L339.774 37.075H337.674L334.949 45.275C334.574 46.4 334.099 48 334.099 48H334.049C334.049 48 333.574 46.425 333.199 45.275L330.524 37.075H328.349L332.874 50ZM343.447 32.1C342.747 32.1 342.172 32.675 342.172 33.375C342.172 34.1 342.747 34.675 343.447 34.675C344.172 34.675 344.747 34.1 344.747 33.375C344.747 32.675 344.172 32.1 343.447 32.1ZM342.447 50H344.472V37.075H342.447V50ZM354.007 50.35C357.232 50.35 359.257 48.55 359.532 45.45H357.532C357.357 47.45 356.107 48.65 354.007 48.65C351.257 48.65 349.832 46.4 349.832 43.55C349.832 40.7 351.257 38.425 354.007 38.425C355.957 38.425 357.182 39.5 357.482 41.25H359.532C359.082 38.5 357.057 36.75 354.007 36.75C350.157 36.75 347.757 39.8 347.757 43.55C347.757 47.3 350.157 50.35 354.007 50.35ZM368.221 50.35C371.146 50.35 373.171 48.775 373.771 46H371.796C371.346 47.75 370.096 48.65 368.221 48.65C365.621 48.65 364.196 46.65 364.046 44.025H374.046C374.046 41.475 373.296 39.375 371.871 38.1C370.921 37.225 369.646 36.75 368.096 36.75C364.421 36.75 361.971 39.8 361.971 43.55C361.971 47.3 364.271 50.35 368.221 50.35ZM364.096 42.5C364.396 40.15 365.696 38.35 368.096 38.35C370.421 38.35 371.746 39.925 371.871 42.5H364.096ZM382.176 50.375C385.151 50.375 387.276 49.05 387.276 46.45C387.276 43.475 385.101 42.9 382.501 42.375C380.276 41.925 379.026 41.65 379.026 40.25C379.026 39.225 379.776 38.4 381.626 38.4C383.551 38.4 384.476 39.15 384.676 40.85H386.751C386.451 38.325 384.876 36.8 381.676 36.8C378.676 36.8 377.026 38.2 377.026 40.35C377.026 43.175 379.301 43.7 381.851 44.225C384.226 44.725 385.226 45.1 385.226 46.55C385.226 47.75 384.351 48.675 382.226 48.675C380.301 48.675 378.801 48.05 378.526 45.8H376.451C376.651 48.7 378.626 50.375 382.176 50.375ZM288.675 75H290.925V67.5H295.8C299.7 67.5 301.575 65.525 301.575 62.25C301.575 60.9 301.125 59.725 300.375 58.85C299.45 57.75 298 57.125 296.125 57.125H288.675V75ZM290.925 65.675V59.075H295.75C298.025 59.075 299.35 60.2 299.35 62.35C299.35 64.4 298.15 65.675 295.625 65.675H290.925ZM308.25 73.7C306.925 73.7 305.575 73.325 305.575 71.6C305.575 69.7 307.2 69.35 309.225 68.975C310.325 68.775 311.5 68.45 312.175 68.025V70.225C312.175 71.725 310.95 73.7 308.25 73.7ZM312.1 73.2H312.125C312.325 74.525 313.025 75.125 314.35 75.125C314.875 75.125 315.2 75.025 315.45 74.925V73.45H315.375C315.2 73.5 315.05 73.5 314.925 73.5C314.175 73.525 314 72.975 314 72.075V65.925C314 62.85 311.975 61.825 309.225 61.825C305.8 61.825 304.15 63.7 304.075 66.2H306.025C306.1 64.25 307.15 63.35 309.25 63.35C311.1 63.35 312.15 64.175 312.15 65.625C312.15 67.025 310.875 67.2 309.05 67.475C305.825 67.975 303.425 68.6 303.425 71.65C303.425 74.1 305.35 75.25 307.8 75.25C310 75.25 311.325 74.2 312.1 73.2ZM318.194 75H320.219V67.825C320.219 66.325 320.894 65.175 321.869 64.525C322.719 63.95 323.919 63.75 324.944 64.025V62.075C324.694 61.975 324.494 61.925 324.119 61.925C322.394 61.925 321.044 62.975 320.269 64.225H320.219V62.075H318.194V75ZM331.914 75.075C332.514 75.075 333.064 75 333.539 74.9V73.15H333.464C333.239 73.225 332.789 73.325 332.389 73.325C331.564 73.325 331.089 73.025 331.089 72.125V63.725H333.589V62.075H331.089V58H329.064V62.075H327.189V63.725H329.064V72.575C329.064 74.4 330.264 75.075 331.914 75.075ZM336.93 75H338.955V67.05C338.955 64.925 340.455 63.475 342.505 63.475C344.33 63.475 345.43 64.425 345.43 66.1V75H347.455V65.925C347.455 63.25 345.805 61.775 343.105 61.775C341.23 61.775 339.93 62.55 339.005 63.775H338.955V62.075H336.93V75ZM356.913 75.35C359.838 75.35 361.863 73.775 362.463 71H360.488C360.038 72.75 358.788 73.65 356.913 73.65C354.313 73.65 352.888 71.65 352.738 69.025H362.738C362.738 66.475 361.988 64.375 360.563 63.1C359.613 62.225 358.338 61.75 356.788 61.75C353.113 61.75 350.663 64.8 350.663 68.55C350.663 72.3 352.963 75.35 356.913 75.35ZM352.788 67.5C353.088 65.15 354.388 63.35 356.788 63.35C359.113 63.35 360.438 64.925 360.563 67.5H352.788ZM365.968 75H367.993V67.825C367.993 66.325 368.668 65.175 369.643 64.525C370.493 63.95 371.693 63.75 372.718 64.025V62.075C372.468 61.975 372.268 61.925 371.893 61.925C370.168 61.925 368.818 62.975 368.043 64.225H367.993V62.075H365.968V75Z" fill="white"/>
<rect x="2" y="2" width="411" height="102" rx="15" stroke="white" stroke-width="3"/>
</svg>
