<svg fill="white" stroke="currentColor" height="500pt" preserveAspectRatio="xMidYMid meet" viewBox="0 0 500 500" width="500pt" xmlns="http://www.w3.org/2000/svg"><g transform="matrix(.1 0 0 -.1 0 500)"><path d="m3755 4938c-40-21-229-129-385-221-47-27-99-57-115-66-109-58-180-108-204-145l-26-40v-411c0-382 1-414 19-453 19-42 56-71 186-144 25-14 86-49 135-78 50-29 104-60 120-70 17-9 89-51 162-93 206-118 140-137 733 208 74 43 146 84 160 91s38 26 52 41c54 56 55 64 54 503-1 386-2 406-21 435-11 17-27 37-35 46-14 15-111 75-175 110-74 39-152 83-175 99-26 18-134 80-230 133-30 16-62 35-70 42-47 38-127 44-185 13zm160-292c17-9 46-26 65-38 19-11 58-34 85-50 293-168 284-162 308-200 15-24 17-59 17-310 0-259-2-286-19-314-17-27-127-99-316-204-22-12-44-26-50-30-5-4-39-23-75-43-52-28-74-34-108-32-24 2-50 9-59 16-8 7-22 14-30 15-8 2-22 9-31 17-10 8-35 25-57 37-34 19-93 53-303 176-64 38-67 56-66 365 0 174 5 284 12 301 11 28 60 65 152 115 30 17 121 69 201 116 81 47 155 87 165 89 26 6 73-6 109-26z"/><path d="m2300 4087c-25-13-135-75-245-139-153-89-205-125-220-150-18-31-20-53-21-308-2-327-4-321 98-386 37-24 71-44 75-44 3 0 40-21 82-46s85-50 96-57c11-6 54-30 95-54 114-65 107-67 355 77 17 10 75 43 129 74s112 66 128 77c56 40 58 52 58 357 0 340 10 314-165 416-411 236-383 225-465 183z"/><path d="m1067 3376c-34-18-134-74-222-125s-218-127-290-168c-140-80-180-116-194-172-13-52-7-820 6-851 21-48 80-89 378-261 364-210 366-211 425-211 39 1 67 13 181 77 74 42 139 80 144 84 6 5 35 22 65 38 30 17 96 54 145 83 50 29 110 63 136 77 56 30 94 64 116 106 16 29 17 73 18 437 1 508 15 463-169 574-60 36-111 66-113 66s-37 20-76 43c-40 24-92 55-117 69-73 41-112 63-196 112-107 62-152 66-237 22zm142-260c8-4 229-133 339-197 45-27 86-49 90-49 18-1 60-50 70-81 17-54 14-566-4-601-14-28-41-49-110-89-406-237-392-229-433-229-33 0-76 22-268 137-40 24-75 43-79 43-3 0-25 14-49 30-24 17-46 30-50 30-3 0-23 12-44 26-64 42-67 58-66 371 1 253 2 281 19 306s175 127 197 127c5 0 9 4 9 8s15 15 33 23c17 9 83 45 145 81 61 37 120 68 130 71 16 3 59-1 71-7z"/><path d="m4050 3117c-19-5-42-14-50-21-14-12-127-79-195-116-100-54-224-132-245-155l-25-27v-303-304l28-29c15-15 44-38 65-49 20-11 81-45 135-76 349-203 311-195 466-106 58 34 158 92 221 128 140 81 152 89 175 124 16 26 18 55 19 295 1 147-3 284-8 306-6 28-20 46-50 68-23 17-48 33-56 36s-49 25-90 49c-41 25-82 49-90 53-8 5-60 35-115 67-113 66-136 73-185 60z"/><path d="m2285 2104c-38-19-74-39-79-43-6-5-69-43-141-83-186-106-213-125-234-159-17-27-18-55-17-314 1-270 2-285 22-312 18-25 193-138 299-193 22-12 74-42 114-66 79-48 127-59 171-40 14 6 91 49 170 95 80 47 181 105 224 130 119 70 116 59 116 391-1 246-3 279-19 309-17 32-115 94-459 288-64 36-90 36-167-3z"/><path d="m3529 1714c-140-80-270-155-289-166-158-91-169-99-193-148l-24-49-1-388c0-219 4-405 9-426 14-53 68-102 185-168 54-31 171-98 259-149 329-191 305-179 366-175 48 2 77 16 269 127 118 68 226 131 240 139 14 9 74 45 134 80 79 46 116 75 135 103l26 40 1 400c0 221-3 415-8 432-19 71-30 79-358 266-19 11-75 44-125 73-260 152-265 155-321 155-47 0-68-10-305-146zm387-166c246-132 456-265 463-293 3-11 5-150 6-310 0-331 3-318-89-371-27-16-73-42-101-59-276-161-327-187-365-187-33 1-96 26-134 55-6 4-94 56-196 114-102 59-189 114-195 122-22 35-32 76-22 89 5 6 6 12 1 12s-9 116-8 258c0 195 3 263 14 282 18 33 32 46 58 54 12 4 22 12 22 17s4 9 9 9 96 51 204 114c107 63 203 116 213 119 41 10 62 6 120-25z"/></g></svg>