<?xml version="1.0" encoding="UTF-8"?>
<svg version="1.1" viewBox="0 0 2048 675" width="1330" height="439" xmlns="http://www.w3.org/2000/svg">
<path transform="translate(988,199)" d="m0 0h28l23 1 11 2v1h-8l33 6 26 7 25 10 25 13 17 12 10 8 13 12 9 9 13 17 10 15 12 23 8 20 7 25 5 23v41l-2-3-5-20-8-18-10-19-11-16-11-13-9-10-22-18-17-10-21-11-20-7-21-6-29-6-25-3-25-1-33 2-28 4-36 8-32 9-41 15-29 12-16 8-25 12-23 13-14 7-16 9-28 16-24 14-19 11-17 10-32 19-3 3 10 6 32 17 16 8 25 13 42 20 36 16 38 17 27 11 23 9 31 11 29 8 30 6 27 3h37l27-3 20-5 16-6 14-8 14-11 8-8 10-15 7-13 4-14 2-14v-25l-3-22-5-16-12-23-10-13-14-13-15-10-15-8-15-6-24-7-19-3-28-3-6-2v-1l21-2h28l24 2 22 4 21 6 20 8 14 8 12 8 10 9 8 7 9 10 10 15 10 19 7 21 1 5 2-4 2 15v46l-2 14-2-2-4 15-7 19-9 17-11 16-12 13-13 12-23 13-23 9-23 6-16 3h-5v2l-16 2h-44l-21-1-4-2-38-6-31-7-31-9-35-11-36-14-28-11-26-12-20-9-25-12-35-17-47-24-31-16-22-12-12-6-6 1-17 10-29 16-20 11-16 8-25 13-23 11-19 9-27 12-26 10-27 9-26 6-28 6-8 1h-31l-14-3-26-7-10-4-22-13-6-8 10 3 6 3 12 3 18 2h19l20-2 26-5 24-7 24-9 26-12 24-12 17-10 21-12 51-31 25-16 20-12 5-4-28-13-24-11-17-7-31-13-38-13-32-8-30-5-22-2h-32l-26 3-21 5-15 5-19 9-13 9-10 8-12 12-10 14-8 16-6 16-3 16-1 21 2 19 5 19 7 16 7 12 11 14 8 8 16 12 16 8 21 7 25 5 10 1h35l14-2 19-6 3-1-2 4-8 6-12 5-26 8-12 3-1 1-15 2h-50l-15-2-3-2v-1l-20-4-18-7-15-8-14-10-11-10-7-8-9-12-12-21-7-20-7-26-2-14-1-12v-25l2-18 5-21 7-21 8-17 12-19 10-13 12-13 12-11 14-10 18-11 16-8 30-10 16-4 20-2h74l24 3 38 9 36 12 39 16 35 17 16 8 27 14 11 6 14 8 29 15 7 4 5-1 60-40 34-23 30-20 19-13 18-11 10-7 41-24 25-14 33-17 24-11 30-12 36-12 28-7 28-5-6-1v-1l9-1zm-853 465v1h6v-1z" fill="#ABD2A7"/>
<path transform="translate(189,308)" d="m0 0h74l24 3 38 9 36 12 39 16 35 17 16 8 27 14 11 6 14 8 29 15 9 5-5 5-19 12-27 18-15 9-9-3-38-18-24-10-31-13-38-13-32-8-30-5-22-2h-32l-26 3-21 5-15 5-19 9-13 9-10 8-12 12-10 14-8 16-6 16-3 16-1 21 2 19 5 19 7 16 7 12 11 14 8 8 16 12 16 8 21 7 25 5 10 1h35l14-2 19-6 3-1-2 4-8 6-12 5-26 8-12 3-1 1-15 2h-50l-15-2-3-2v-1l-20-4-18-7-15-8-14-10-11-10-7-8-9-12-12-21-7-20-7-26-2-14-1-12v-25l2-18 5-21 7-21 8-17 12-19 10-13 12-13 12-11 14-10 18-11 16-8 30-10 16-4zm-54 356v1h6v-1z" fill="#8C91C5"/>
<path transform="translate(983,349)" d="m0 0h28l24 2 22 4 21 6 20 8 14 8 12 8 10 9 8 7 9 10 10 15 10 19 7 21 1 5 2-4 2 15v46l-2 14-2-2-4 15-7 19-9 17-11 16-12 13-13 12-23 13-23 9-23 6-16 3h-5v2l-16 2h-44l-21-1-4-2-38-6-31-7-31-9-35-11-36-14-28-11-26-12-20-9-25-12-35-17-47-24-31-16-22-12-13-7 5-4 9-6 18-10 17-10 11-7 9-5 5 1 24 13 17 9 16 8 25 13 42 20 36 16 38 17 27 11 23 9 31 11 29 8 30 6 27 3h37l27-3 20-5 16-6 14-8 14-11 8-8 10-15 7-13 4-14 2-14v-25l-3-22-5-16-12-23-10-13-14-13-15-10-15-8-15-6-24-7-19-3-28-3-6-2v-1z" fill="#8C91C5"/>
<path transform="translate(1e3 6)" d="m0 0 19 1 16 5 16 8 10 8 9 9 9 14 5 11 3 11 1 8v21l-3 14-5 12-7 12-11 12-8 7-14 8-16 6-7 1h-26l-10-2-15-6-14-9-11-10-10-14-6-13-5-17-1-15 2-14 6-18 8-14 11-12 10-9 17-9 17-5z" fill="#E8EB76"/>
<path transform="translate(197,109)" d="m0 0h20l14 3 15 6 11 7 10 9 9 10 9 16 4 13 1 6v29l-4 15-8 16-8 10-10 10-16 10-13 5-9 2h-30l-13-3-16-8-10-7-8-7-10-13-8-17-4-16v-24l4-16 8-16 7-10 13-13 13-8 11-5 11-3z" fill="#945329"/>
<path transform="translate(1355,188)" d="m0 0h14l14 2 13 5 10 9 6 9 4 11 2 13v8h-35l-3-15-5-9-5-4-3-1h-10l-6 3-5 6-4 10-2 10-1 10v49l3 21 4 11 4 6 8 4h8l8-4 7-8 3-9 1-24h-24v-26h59v96h-27l-1-16-7 9-7 5-13 4h-22l-11-3-8-4-6-5-6-9-5-11-4-18-2-27v-30l2-23 4-17 5-12 7-10 9-8 11-5z" fill="#686DA4"/>
<path transform="translate(1972,232)" d="m0 0h12l10 3 10 9 3 5 1-14h24l9 1v138l-3 14-6 12-4 5-11 7-14 4-7 1h-21l-14-3-11-6-7-8-4-9-1-11h33l5 10 8 4h10l7-3 5-10 1-7v-19l-8 8-12 6-4 1h-12l-10-3-9-6-7-9-5-13-3-17-1-26 2-24 4-15 6-11 8-8 10-5zm16 26-7 2-6 7-3 12-1 19v16l2 15 4 9 6 5h11l6-4 4-6 3-11 1-13v-11l-2-23-4-10-5-5z" fill="#686DA5"/>
<path transform="translate(1291,452)" d="m0 0h39l2 7 23 120v4h2l1-10 24-119 1-2h38l-17 74-24 104-1 1h-46l-3-8-19-83-20-87z" fill="#686DA4"/>
<path transform="translate(1557,452)" d="m0 0h35l1 92 14-20 15-22 4-6 2-1h37l-2 5-10 13-13 18-12 16 1 5 16 30 13 23 13 24v2h-38l-12-22-16-31v-2l-5 5-7 9-1 40-1 1h-34z" fill="#686DA5"/>
<path transform="translate(1735,232)" d="m0 0h17l10 2 9 4 8 6 8 11 4 11 2 18-33 1-1-1-2-14-4-8v-2l-7-2-10 1-6 5-4 11-1 7v44l3 14 3 5v2l6 2h10l5-3 3-4 3-12 1-11h34l-1 15-4 15-6 10-7 7-8 4-16 4-7 11 3-1h9l8 3 6 5 3 7v8l-3 8-5 5-4 3-10 3h-21l-12-3-2-1 3-10 1-2 15 3 9-1 5-3 1-5-3-5-2-1h-15l-4-4 1-4 10-17h-9l-12-3-10-6-7-8-6-13-3-14-1-8v-35l3-17 5-12 6-10 9-8 12-5z" fill="#686DA5"/>
<path transform="translate(1626,232)" d="m0 0h15l10 3 8 6 4 5 4 11 1 8v106h-35l-1-99-3-9-4-3-9-1-9 3-4 5-2 5-1 35v63l-1 1h-34v-136h33l1 15 6-8 8-6 8-3z" fill="#686DA4"/>
<path transform="translate(1467,492)" d="m0 0h25l14 3 8 4 7 6 5 10 2 13 1 90 3 12-8 1h-25l-3-6-1-8h-2l-2 4-5 6-8 4-9 2h-18l-10-4-6-5-5-8-3-10-1-15 2-12 6-12 9-7 8-4 24-7 12-4 5-4 1-2v-13l-3-6-6-3h-11l-6 3-3 5-2 12h-31v-13l3-10 6-9 8-7 9-4zm25 72-12 5-11 4-6 5-3 8v12l3 7 4 4 2 1h9l7-3 6-5 3-6 1-32z" fill="#686DA5"/>
<path transform="translate(1085,89)" d="m0 0h2l1 3v16l-4 14-8 15-8 10-9 9-14 9-11 5-9 3-7 1h-26l-10-2-15-6-14-9-11-10-10-14-6-13-5-17v-12l5-1 5 3 10 3 14 1 15 2 29 2 6-2h30l4-1 14-1 13-4 16-3z" fill="#A08B5D"/>
<path transform="translate(1484,232)" d="m0 0h19l13 3 10 6 8 9 5 10 3 12 2 22v15h-69l1 21 4 13 2 4 5 2h10l6-3 4-8 3-13h31l1 2-3 17-4 10-7 9-10 6-9 3-5 1h-25l-11-3-8-4-8-7-6-10-4-12-2-15v-37l3-18 5-12 6-9 7-6 12-6zm5 24-6 3-5 6-3 10v13h35v-10l-2-11-5-8-6-3z" fill="#686DA5"/>
<path transform="translate(197,109)" d="m0 0h20l14 3 15 6 11 7 10 9 9 10 9 16 2 8-3-2-8 1-21 9-17 8-18 3h-6l-10 3-16-2-13-4-13-5-7-4-9-3-10-4-6-1h-2l-1 5-2 2 2-9 8-16 7-10 13-13 13-8 11-5 11-3z" fill="#ECA14B"/>
<path transform="translate(1720,448)" d="m0 0h27v24l-15 2-3 1-1 4-1 16h20v24h-20v112h-35v-112h-18v-22l1-2h17v-21l3-11 6-8 9-5z" fill="#686DA5"/>
<path transform="translate(1814,192)" d="m0 0h35v179h-35z" fill="#686DA4"/>
<path transform="translate(279,165)" d="m0 0h5l4 4 2 10v29l-2 6-1-4-5 1h-26l-26 1h-8l-10-1-6 2h-79l1 5h-2l-3-13v-24l2-7 3-7 6-1 6 3 9 3 12 5 9 4 11 4 12 3 11 1 12-3 17-2 9-3 29-13z" fill="#D17D3F"/>
<path transform="translate(1763,495)" d="m0 0h34l1 1v135h-35z" fill="#696EA6"/>
<path transform="translate(1877,236)" d="m0 0h35v135h-35z" fill="#686DA4"/>
<path transform="translate(197,109)" d="m0 0h20l14 3 15 6 11 7 9 8-2 1-5 1-5 7h-2v3l-7 4-10 6-14 7-9 3h-10l-10-3-10-4-8-5-12-6-7-7-2-7-4-1 9-8 14-8 14-5z" fill="#EBB857"/>
<path transform="translate(926,68)" d="m0 0 14 6 11 3 14 6 22 6h17l6-2 14-1h8l9-2 13-5 9-5 11-3 8-1h4l2 3 1 8v21h-1l-1-13-9 3-15 3-10 3-14 1-8 1h-26l-7 2-38-3-5-1-14-1-13-4-2-2-6 1 1-14 3-9z" fill="#D9C784"/>
<path transform="translate(284,188)" d="m0 0 4 1 1 2v22l-2 1v-4l-5 1h-26l-26 1h-8l-10-1-6 2h-79l1 5h-2l-2-8v-18l1-2 9 2 19 3 10 3 11 2 22 2h9l9-3 5 1h16l13-3 28-6z" fill="#B46935"/>
<path transform="translate(1878,189)" d="m0 0h31l3 1v29h-35v-29z" fill="#696EA5"/>
</svg>
