<?xml version="1.0" encoding="UTF-8"?>
<svg version="1.1" xmlns="http://www.w3.org/2000/svg" width="1170" height="363">
<path d="M0 0 C3.37205209 1.63721371 6.88462737 2.80501179 10.43261719 3.99902344 C11.94352418 4.52104391 13.45394548 5.04447239 14.96386719 5.56933594 C16.03507812 5.94106934 16.03507812 5.94106934 17.12792969 6.3203125 C22.68068452 8.27333103 28.08255652 10.58407701 33.49902344 12.88183594 C34.72806396 13.40221436 34.72806396 13.40221436 35.98193359 13.93310547 C37.60402166 14.62108259 39.22488625 15.31195496 40.84423828 16.00634766 C45.90369001 18.15775225 51.01057462 20.08992245 56.18530273 21.9453125 C61.25179768 23.80396037 66.24342357 25.84878827 71.24511719 27.87402344 C77.81650251 30.53016883 84.38266379 33.15595439 91.06005859 35.53442383 C106.87415378 41.19170281 106.87415378 41.19170281 110.76464844 47.97558594 C112.72792505 52.98480428 112.49403869 58.13038829 112.43261719 63.43652344 C112.44421875 64.43490234 112.45582031 65.43328125 112.46777344 66.46191406 C112.44331593 72.66189295 111.77586207 77.3966314 109.05761719 82.99902344 C104.82209252 86.44038723 101.27076842 88.12025141 95.83771229 88.13324451 C94.97279063 88.13770236 94.10786897 88.1421602 93.21673757 88.14675313 C92.26597787 88.14656877 91.31521818 88.14638441 90.33564758 88.14619446 C89.32600785 88.14987115 88.31636812 88.15354783 87.27613324 88.15733594 C83.87687346 88.16839087 80.47764423 88.17221969 77.07836914 88.17602539 C74.6475871 88.18228866 72.21680602 88.18893534 69.786026 88.19593811 C62.47979892 88.21517826 55.17357435 88.22576828 47.86732963 88.2346659 C44.42600415 88.23904979 40.98468021 88.24441635 37.54335594 88.24965477 C26.10229595 88.26666686 14.66123691 88.28116066 3.22016621 88.28840351 C0.25135103 88.29031338 -2.71746415 88.29223372 -5.6862793 88.29418945 C-6.42415677 88.29467319 -7.16203425 88.29515693 -7.92227165 88.29565533 C-19.87333177 88.30395426 -31.82429175 88.3292889 -43.77530815 88.36177013 C-56.04737844 88.39485178 -68.31939787 88.41285328 -80.59151298 88.41604775 C-87.48095491 88.41821188 -94.37025083 88.42694606 -101.25964928 88.45250893 C-107.74143179 88.47650389 -114.22302291 88.48003463 -120.70484352 88.46974754 C-123.08324176 88.46925136 -125.46165281 88.47559609 -127.8400116 88.48930359 C-131.08882173 88.50697941 -134.33668437 88.49993672 -137.585495 88.48677063 C-138.52510108 88.49773988 -139.46470717 88.50870912 -140.43278617 88.52001077 C-146.37540497 88.46192959 -151.00871115 87.45078787 -155.94238281 83.99902344 C-160.70148071 77.85825196 -160.1552248 71.12277014 -160.19238281 63.68652344 C-160.21300781 62.66623047 -160.23363281 61.6459375 -160.25488281 60.59472656 C-160.28503631 54.76379403 -160.21444276 50.02575676 -156.94238281 44.99902344 C-150.88825248 39.62154587 -143.34322436 36.85295597 -135.87988281 33.99902344 C-134.77660645 33.56750977 -133.67333008 33.13599609 -132.53662109 32.69140625 C-125.85236773 30.08649184 -119.14627779 27.53750306 -112.41894531 25.04589844 C-105.53961001 22.49692367 -98.74297488 19.74934187 -91.94238281 16.99902344 C-83.6422631 13.64226096 -75.3225874 10.36954341 -66.9296875 7.2512207 C-62.34540036 5.54187276 -57.79314305 3.76438491 -53.25488281 1.93652344 C-48.44854095 0.00381454 -43.6413583 -1.9251262 -38.81738281 -3.81347656 C-37.80417969 -4.21179688 -36.79097656 -4.61011719 -35.74707031 -5.02050781 C-23.26632944 -9.38355232 -11.3979803 -5.88831625 0 0 Z " fill="#4182F0" transform="translate(170.9423828125,17.0009765625)"/>
<path d="M0 0 C1.03811545 -0.00623996 2.07623091 -0.01247993 3.14580441 -0.01890898 C6.62355717 -0.03486078 10.1006112 -0.0222256 13.57836914 -0.00964355 C16.07195444 -0.01506367 18.56553653 -0.0221857 21.05911255 -0.03088379 C27.12840299 -0.04723775 33.19741932 -0.04483315 39.26669908 -0.03323323 C44.19977838 -0.02419561 49.13280224 -0.02297631 54.06588745 -0.02732849 C54.76828393 -0.02794142 55.47068041 -0.02855436 56.19436163 -0.02918586 C57.62131605 -0.03046478 59.04827046 -0.03176163 60.47522485 -0.03307623 C73.85232449 -0.04447939 87.22931443 -0.03137249 100.60639608 -0.00987476 C112.08180921 0.00799602 123.55706049 0.00489183 135.0324707 -0.0135498 C148.36205618 -0.03496121 161.69154555 -0.04338078 175.02114582 -0.03110075 C176.44281831 -0.02982657 177.86449081 -0.02856909 179.28616333 -0.02732849 C179.98563314 -0.02671139 180.68510295 -0.02609429 181.40576881 -0.02545848 C186.33229344 -0.02200639 191.25875704 -0.02783089 196.18527222 -0.0372467 C202.81732967 -0.04964374 209.44912871 -0.04080356 216.08117294 -0.01766968 C218.51683926 -0.01237546 220.95253128 -0.01390847 223.38818741 -0.02272034 C226.70982422 -0.03363063 230.03047689 -0.0199655 233.35205078 0 C234.31878188 -0.00892289 235.28551298 -0.01784577 236.28153896 -0.02703905 C241.90170806 0.03860714 245.26508634 0.66937824 249.67602539 4.50793457 C253.71161518 10.84227804 253.12186646 17.695562 253.05102539 25.00793457 C253.06262695 26.20547363 253.07422852 27.4030127 253.08618164 28.63684082 C253.04713676 40.38934914 253.04713676 40.38934914 249.67602539 45.50793457 C243.8835517 49.69806922 239.34147442 50.08150062 232.31445312 50.01586914 C231.28435592 50.0221091 230.25425871 50.02834907 229.19294643 50.03477812 C225.74826977 50.05070696 222.3043008 50.03810374 218.85961914 50.0255127 C216.38721301 50.03093383 213.91481011 50.03805644 211.44241333 50.04675293 C205.42840312 50.06309671 199.41466967 50.06070768 193.40067029 50.04910237 C188.51195974 50.04005999 183.62330514 50.03884751 178.73458862 50.04319763 C178.03816708 50.04381056 177.34174554 50.0444235 176.62422031 50.045055 C175.20934715 50.04633393 173.79447401 50.04763079 172.37960088 50.04894537 C159.11978181 50.060345 145.86007345 50.04724718 132.60027254 50.0257439 C121.22865816 50.00787344 109.85720713 50.01097773 98.4855957 50.02941895 C85.27245553 50.05083659 72.05941232 50.05924643 58.84625721 50.04696989 C57.43665887 50.04569573 56.02706052 50.04443824 54.61746216 50.04319763 C53.92395627 50.04258053 53.23045038 50.04196343 52.51592916 50.04132763 C47.63444622 50.0378774 42.75302491 50.04369599 37.87155151 50.05311584 C31.29857281 50.0655213 24.72585464 50.05665879 18.15288925 50.03353882 C15.74021797 50.02824866 13.32752074 50.02977069 10.91485977 50.03858948 C7.62208822 50.04951581 4.33030612 50.0358152 1.03759766 50.01586914 C0.08224341 50.02479203 -0.87311083 50.03371491 -1.8574152 50.04290819 C-7.85464128 49.97241636 -11.43028654 49.04790955 -16.32397461 45.50793457 C-20.43733638 39.26234037 -19.7693488 32.27211506 -19.69897461 25.00793457 C-19.71057617 23.81039551 -19.72217773 22.61285645 -19.73413086 21.37902832 C-19.69566301 9.80020497 -19.69566301 9.80020497 -16.32397461 4.50793457 C-11.05960936 -0.07330365 -6.64102548 -0.06129638 0 0 Z " fill="#DBDEE2" transform="translate(30.323974609375,303.4920654296875)"/>
<path d="M0 0 C1.70521721 -0.01653347 3.41036586 -0.04378938 5.11523438 -0.08203125 C7.57393336 -0.13691292 10.03100461 -0.15869224 12.49023438 -0.17333984 C13.62800323 -0.2073439 13.62800323 -0.2073439 14.78875732 -0.24203491 C18.73778085 -0.22634086 20.577795 0.1604453 23.71386719 2.6328125 C26.55746143 6.30441388 28.06582858 8.90960478 28.07905579 13.58712769 C28.08614059 14.42537079 28.0932254 15.26361389 28.1005249 16.1272583 C28.09804749 17.03852478 28.09557007 17.94979126 28.09301758 18.88867188 C28.09812851 19.85497528 28.10323944 20.82127869 28.10850525 21.81686401 C28.12241125 25.01290065 28.12144358 28.20872185 28.11914062 31.40478516 C28.12302724 33.62671997 28.12736184 35.84865405 28.13212585 38.07058716 C28.13959042 42.72937426 28.13929523 47.38808559 28.1340332 52.046875 C28.12824096 58.01450905 28.1451627 63.9818325 28.16837788 69.94941521 C28.18311689 74.5390911 28.18398663 79.12869224 28.18086815 83.7183876 C28.18138136 85.91839335 28.1866191 88.11840328 28.19668007 90.31838608 C28.20902893 93.39670678 28.20226157 96.4744232 28.19067383 99.55273438 C28.20213943 100.9135614 28.20213943 100.9135614 28.21383667 102.30187988 C28.16448309 108.23954429 27.3931334 112.77532363 23.00585938 117.16259766 C17.04194982 120.40014856 9.4773543 119.53359736 2.88085938 119.53759766 C1.29241211 119.5559668 1.29241211 119.5559668 -0.328125 119.57470703 C-13.11349807 119.59863474 -13.11349807 119.59863474 -18.83236694 115.4074707 C-22.19115618 111.03630196 -21.88496358 107.50598853 -21.82861328 102.13134766 C-21.83737488 101.10477051 -21.84613647 100.07819336 -21.85516357 99.02050781 C-21.87715518 95.6299401 -21.86260464 92.24067844 -21.84570312 88.85009766 C-21.8490713 86.49267324 -21.85392393 84.13525051 -21.86019897 81.77783203 C-21.86757003 76.83821065 -21.85685661 71.89904147 -21.83349609 66.95947266 C-21.80500899 60.62719733 -21.8214116 54.29598157 -21.85135841 47.96374512 C-21.8694246 43.09611017 -21.86367629 38.2287265 -21.85071945 33.36108398 C-21.8473836 31.02628453 -21.85147874 28.69146228 -21.86311722 26.35668945 C-21.87581397 23.09346067 -21.85646309 19.83194854 -21.82861328 16.56884766 C-21.83873444 15.60350098 -21.84885559 14.6381543 -21.85928345 13.64355469 C-21.78548216 8.97678284 -21.71845261 7.01650957 -18.70370483 3.27392578 C-17.87142365 2.6390625 -17.03914246 2.00419922 -16.18164062 1.35009766 C-13.42154249 -1.41000048 -3.89637313 0.02770288 0 0 Z " fill="#E64234" transform="translate(62.181640625,123.64990234375)"/>
<path d="M0 0 C0.73573242 -0.00287018 1.47146484 -0.00574036 2.22949219 -0.00869751 C3.77930474 -0.01073176 5.32914334 -0.00524665 6.87890625 0.00732422 C9.24277493 0.0233884 11.60493411 0.0074553 13.96875 -0.01171875 C15.47917042 -0.0097362 16.98958978 -0.00589229 18.5 0 C19.5533252 -0.00910904 19.5533252 -0.00910904 20.62792969 -0.0184021 C25.00502542 0.04391736 27.7787716 0.70237621 31.25 3.3984375 C33.32700569 6.51394604 33.50285226 7.21152475 33.52415466 10.74972534 C33.53911736 12.08292313 33.53911736 12.08292313 33.55438232 13.4430542 C33.555047 14.41559143 33.55571167 15.38812866 33.55639648 16.39013672 C33.56472 17.41642181 33.57304352 18.44270691 33.58161926 19.50009155 C33.60576381 22.90114101 33.61449674 26.30199886 33.62109375 29.703125 C33.63005643 32.06340596 33.6391782 34.42368631 33.64845276 36.78396606 C33.66495726 41.73538597 33.67264559 46.68673814 33.67553711 51.63818359 C33.68092343 57.98611602 33.71860838 64.33341286 33.76428127 70.6811657 C33.79400755 75.55732555 33.80125971 80.43333152 33.80226326 85.30957413 C33.80647407 87.6499841 33.81894259 89.99039419 33.83978081 92.33071518 C33.86660309 95.60360348 33.86189623 98.87500754 33.84936523 102.14794922 C33.86419952 103.11643799 33.87903381 104.08492676 33.89431763 105.08276367 C33.84372653 109.71736761 33.77669176 111.72641023 30.83753967 115.47659302 C26.74021347 118.51980191 23.79195386 118.58540426 18.828125 118.63671875 C17.72171661 118.64882637 17.72171661 118.64882637 16.59295654 118.66117859 C15.02944284 118.67501801 13.46589894 118.68574081 11.90234375 118.69360352 C9.52284555 118.71077266 7.14475307 118.75465137 4.765625 118.79882812 C3.24480186 118.80895933 1.72396693 118.8174741 0.203125 118.82421875 C-0.50334167 118.84172684 -1.20980835 118.85923492 -1.93768311 118.87727356 C-7.00638163 118.85526571 -9.93459982 117.71724017 -13.75 114.3984375 C-16.369782 109.74022639 -16.03883026 104.9386687 -16.0246582 99.74633789 C-16.02976913 98.77988846 -16.03488007 97.81343903 -16.04014587 96.81770325 C-16.05403125 93.62710353 -16.05308593 90.43672007 -16.05078125 87.24609375 C-16.05466863 85.02558817 -16.05900339 82.80508334 -16.06376648 80.58457947 C-16.07122634 75.93176868 -16.07093899 71.27903379 -16.06567383 66.6262207 C-16.05987828 60.66646238 -16.07681361 54.70701473 -16.1000185 48.74730778 C-16.11475622 44.16192308 -16.1156275 39.57661321 -16.11250877 34.99120903 C-16.11302192 32.79399436 -16.11825844 30.5967755 -16.12832069 28.39958382 C-16.14066883 25.32616148 -16.13390295 22.25334443 -16.12231445 19.17993164 C-16.12995819 18.27428467 -16.13760193 17.3686377 -16.14547729 16.43554688 C-16.10305346 11.3403311 -15.59251079 7.80772375 -12.75 3.3984375 C-8.80008977 0.08145837 -4.96437499 -0.04293136 0 0 Z " fill="#32A651" transform="translate(219.75,168.6015625)"/>
<path d="M0 0 C1.39365803 -0.01151247 2.78727221 -0.03195327 4.18066406 -0.06152344 C6.20171856 -0.10439211 8.22146611 -0.12039378 10.24291992 -0.13061523 C12.05240112 -0.15248901 12.05240112 -0.15248901 13.8984375 -0.17480469 C18.96504652 0.52813026 21.95214506 2.63663113 25.1315918 6.59033203 C27.34321055 11.77276101 26.80412927 17.46364351 26.78686523 23.01464844 C26.78589275 25.22341267 26.82754775 27.42869954 26.87182617 29.63696289 C26.87703411 31.05297133 26.87972135 32.46899175 26.87963867 33.88500977 C26.88672852 35.16239014 26.89381836 36.43977051 26.90112305 37.75585938 C26.00635648 42.90325259 23.68622524 45.57856168 19.39257812 48.64916992 C14.63248487 50.10880682 9.48625355 49.66694077 4.55126953 49.66577148 C2.48995463 49.67013098 0.43080755 49.7064338 -1.63012695 49.74438477 C-14.32231566 49.78176971 -14.32231566 49.78176971 -19.71411133 45.29516602 C-23.20616624 40.16049387 -22.16381335 33.25460534 -22.19458008 27.27880859 C-22.21396759 24.99956418 -22.27602107 22.72395279 -22.33911133 20.44555664 C-22.51654576 8.23366522 -22.51654576 8.23366522 -18.87036133 3.81469727 C-13.66185642 -1.09138356 -6.70602356 0.03858109 0 0 Z " fill="#F7B804" transform="translate(143.714111328125,183.704833984375)"/>
<path d="M0 0 C0.495 0.495 0.495 0.495 1 1 C1.33 -0.65 1.66 -2.3 2 -4 C4.97 -4 7.94 -4 11 -4 C11.07450676 2.52870222 11.12877071 9.05715345 11.16479492 15.58618164 C11.17982277 17.8043245 11.20025077 20.02243793 11.22631836 22.24047852 C11.26296624 25.44034108 11.27978688 28.63980861 11.29296875 31.83984375 C11.30845261 32.82145981 11.32393646 33.80307587 11.33988953 34.81443787 C11.34158879 41.86588803 10.6119986 48.59872356 6.203125 54.33984375 C-1.68275489 60.7904935 -8.96733819 61.81312097 -19 61 C-25.48376022 59.84639591 -30.80316806 58.0731926 -36 54 C-34.54124836 49.38061982 -34.54124836 49.38061982 -32.18359375 47.72265625 C-30 47 -30 47 -27.95703125 47.64453125 C-27.24933594 48.02996094 -26.54164063 48.41539062 -25.8125 48.8125 C-19.42418063 51.88642127 -14.00785953 52.83949099 -7.125 50.8125 C-4.6883388 49.85736277 -3.03982024 49.03235395 -1 47.375 C0.5452433 43.70504717 0.75535188 39.94811449 1 36 C0.13375 36.928125 0.13375 36.928125 -0.75 37.875 C-6.6646665 41.74228194 -13.94182165 42.69112877 -20.875 41.375 C-27.65559644 39.44118369 -31.92049899 35.55265415 -36 30 C-39.05603559 23.71696179 -39.10172499 16.30927877 -37.3828125 9.5859375 C-34.59217803 3.18970451 -29.29925671 -0.38703006 -23.1875 -3.375 C-14.61517689 -5.05584767 -7.61233822 -4.40807492 0 0 Z M-25.3125 8.875 C-28.34144006 12.68922081 -29.21320214 15.60460363 -28.9375 20.4375 C-28.24225158 25.3451359 -26.61029709 27.63585953 -23 31 C-18.71192356 33.62049116 -13.88540336 33.5524131 -9 33 C-4.32491949 31.32402774 -1.5239277 29.30002497 1 25 C2.42882377 20.17887206 2.4633822 16.23472168 0.375 11.625 C-1.60277916 8.25271892 -3.25487182 6.4148262 -7 5 C-14.183449 3.28192463 -19.40367655 4.08406206 -25.3125 8.875 Z " fill="#656565" transform="translate(889,137)"/>
<path d="M0 0 C2.97 0 5.94 0 9 0 C9.33 1.32 9.66 2.64 10 4 C10.7425 3.525625 11.485 3.05125 12.25 2.5625 C17.84684609 -0.61752619 23.68753746 -0.51305937 30 0 C34.28910502 1.55967455 36.96641459 3.61638551 40 7 C40.60328125 6.57847656 41.2065625 6.15695313 41.828125 5.72265625 C43.02695313 4.90087891 43.02695313 4.90087891 44.25 4.0625 C45.03890625 3.51722656 45.8278125 2.97195312 46.640625 2.41015625 C51.73706606 -0.63589544 57.20639903 -0.47459173 63 0 C68.97508023 1.6929394 72.68967211 4.83455547 76 10 C77.3110451 13.7896603 77.12679291 17.6509969 77.09765625 21.609375 C77.0962413 22.33618469 77.09482635 23.06299438 77.09336853 23.81182861 C77.08778792 26.12459494 77.07523904 28.43726312 77.0625 30.75 C77.05748249 32.32161318 77.05292002 33.89322789 77.04882812 35.46484375 C77.03782485 39.30993343 77.02057361 43.1549501 77 47 C74.03 47 71.06 47 68 47 C67.970271 45.73724243 67.970271 45.73724243 67.93994141 44.44897461 C67.86140205 41.29720324 67.77469505 38.14578745 67.68261719 34.99438477 C67.64455921 33.63574737 67.60966779 32.27701715 67.578125 30.91821289 C67.53196786 28.95437081 67.47311503 26.99084037 67.4140625 25.02734375 C67.3826416 23.84906006 67.3512207 22.67077637 67.31884766 21.45678711 C66.97251571 17.70202905 66.14026416 14.58283003 65 11 C59.13002196 9.26962099 54.81262587 8.37861971 49 11 C44.24622436 15.75377564 43.89829953 19.79435707 43.68359375 26.296875 C43.62075195 28.10478516 43.62075195 28.10478516 43.55664062 29.94921875 C43.51732422 31.20347656 43.47800781 32.45773438 43.4375 33.75 C43.37272461 35.65458984 43.37272461 35.65458984 43.30664062 37.59765625 C43.20060278 40.73166365 43.09853942 43.86574933 43 47 C40.03 47 37.06 47 34 47 C33.98541748 46.1529248 33.97083496 45.30584961 33.95581055 44.43310547 C33.89448823 41.26818066 33.82028648 38.10388496 33.73754883 34.93945312 C33.70444614 33.5740075 33.67636914 32.20842987 33.65356445 30.84277344 C33.61975009 28.87146776 33.56591714 26.90053809 33.51171875 24.9296875 C33.48553467 23.74616699 33.45935059 22.56264648 33.43237305 21.34326172 C32.95059489 17.61798215 31.97259129 15.18491603 30 12 C26.11812634 9.56431457 23.27884364 8.63339601 18.8125 9.5 C14.95818062 10.7026074 13.12216632 12.51964723 11 16 C9.8992924 19.3021228 9.79372928 21.94083279 9.68359375 25.41796875 C9.64169922 26.67158203 9.59980469 27.92519531 9.55664062 29.21679688 C9.51732422 30.52712891 9.47800781 31.83746094 9.4375 33.1875 C9.39429008 34.52279978 9.350675 35.85808652 9.30664062 37.19335938 C9.20043498 40.46213297 9.09839003 43.73098333 9 47 C6.03 47 3.06 47 0 47 C0 31.49 0 15.98 0 0 Z " fill="#656565" transform="translate(1037,133)"/>
<path d="M0 0 C2.97 0 5.94 0 9 0 C9.33 1.65 9.66 3.3 10 5 C10.928125 4.360625 11.85625 3.72125 12.8125 3.0625 C18.38598795 -0.54387456 23.51717099 -0.65447387 30 0 C34.47329157 1.47406998 37.78187605 3.57583763 41 7 C42.299375 5.824375 42.299375 5.824375 43.625 4.625 C48.84138775 0.34270959 53.92653049 -0.40885963 60.5390625 -0.25 C66.82943582 0.38902205 71.02697115 3.23236537 75 8 C77.20565245 12.25375829 77.26272 16.23780352 77.1953125 20.92578125 C77.1924826 21.67337204 77.18965271 22.42096283 77.18673706 23.19120789 C77.17559469 25.5651388 77.15050162 27.93868425 77.125 30.3125 C77.11496249 31.9277289 77.10583799 33.54296376 77.09765625 35.15820312 C77.07567489 39.10561594 77.04118657 43.05274274 77 47 C74.03 47 71.06 47 68 47 C67.98541748 46.12263184 67.97083496 45.24526367 67.95581055 44.34130859 C67.8945032 41.06450679 67.82030667 37.78851056 67.73754883 34.51220703 C67.70443709 33.0982551 67.67636284 31.68417536 67.65356445 30.27001953 C67.61976225 28.22894177 67.56744036 26.18902072 67.51171875 24.1484375 C67.48553467 22.92302246 67.45935059 21.69760742 67.43237305 20.43505859 C66.96105192 16.69057057 65.9403227 14.21878343 64 11 C60.22053117 8.69945376 56.42610464 8.92316146 52.1875 9.6875 C48.44127337 11.11303096 48.44127337 11.11303096 46 14 C43.81671954 20.97001987 43.57482814 27.73125128 43.375 35 C43.33632813 36.15628906 43.29765625 37.31257813 43.2578125 38.50390625 C43.16419668 41.3357848 43.07846325 44.16766794 43 47 C40.03 47 37.06 47 34 47 C33.98541748 46.12263184 33.97083496 45.24526367 33.95581055 44.34130859 C33.8945032 41.06450679 33.82030667 37.78851056 33.73754883 34.51220703 C33.70443709 33.0982551 33.67636284 31.68417536 33.65356445 30.27001953 C33.61976225 28.22894177 33.56744036 26.18902072 33.51171875 24.1484375 C33.48553467 22.92302246 33.45935059 21.69760742 33.43237305 20.43505859 C32.96105192 16.69057057 31.9403227 14.21878343 30 11 C26.2804568 8.73593023 22.44397436 8.93340385 18.25 9.5625 C14.55954242 11.19481777 13.10936769 12.59255988 11 16 C9.88075148 19.40612264 9.80139695 22.72912094 9.68359375 26.296875 C9.64169922 27.50214844 9.59980469 28.70742188 9.55664062 29.94921875 C9.51732422 31.20347656 9.47800781 32.45773437 9.4375 33.75 C9.39431641 35.01972656 9.35113281 36.28945313 9.30664062 37.59765625 C9.20060278 40.73166365 9.09853942 43.86574933 9 47 C6.03 47 3.06 47 0 47 C0 31.49 0 15.98 0 0 Z " fill="#656565" transform="translate(653,230)"/>
<path d="M0 0 C5.62639558 4.56568166 8.70206525 10.33418206 10.625 17.25 C11.66430975 28.12649741 10.72079077 37.32757025 3.875 46.0625 C-2.12055921 52.46581765 -9.19049096 55.70696984 -17.91796875 56.62109375 C-28.07531792 56.80616871 -36.54007746 55.11032291 -44.8125 48.9375 C-52.71733759 40.64706057 -54.85827969 32.35580043 -54.69140625 21.01953125 C-54.03220182 13.16604642 -51.09926223 6.72538127 -45.375 1.25 C-31.12180416 -8.83389366 -14.72375168 -10.07269741 0 0 Z M-41.375 11.25 C-45.02079944 17.81243899 -46.17028244 24.01346031 -44.375 31.25 C-42.10868161 37.93563925 -38.154124 42.47136064 -32.25 46.25 C-25.68663189 48.51680659 -17.29208566 48.52262283 -10.9375 45.6875 C-5.23531839 42.29994602 -0.53096164 36.71740064 1.14453125 30.2421875 C2.12831705 23.13269544 1.09568533 17.00696997 -2.890625 10.9453125 C-6.48579933 6.52421974 -9.75186829 3.72491979 -15.375 2.25 C-25.91453806 1.24349568 -34.11881457 3.24187825 -41.375 11.25 Z " fill="#656565" transform="translate(439.375,124.75)"/>
<path d="M0 0 C2.97 0 5.94 0 9 0 C9 21.45 9 42.9 9 65 C6.03 65 3.06 65 0 65 C-0.495 63.02 -0.495 63.02 -1 61 C-1.928125 61.639375 -2.85625 62.27875 -3.8125 62.9375 C-9.80592908 66.81560117 -16.40832886 66.98007098 -23.32421875 65.50390625 C-30.38190938 63.12445627 -34.19305012 58.25427481 -38 52 C-40.36846594 44.89460217 -40.09799921 36.35334357 -37.0625 29.5 C-33.91536781 24.0419736 -29.04883787 20.31445237 -23.05078125 18.3671875 C-15.02208279 16.92966816 -8.93714886 17.76063125 -2 22 C-1.67 22.33 -1.34 22.66 -1 23 C-0.67 15.41 -0.34 7.82 0 0 Z M-29 35 C-30.62100654 39.86301963 -30.39061285 43.7413586 -28.875 48.625 C-26.46610393 52.96101293 -23.93143258 56.0347722 -19.078125 57.6328125 C-14.00736319 58.55655593 -10.54657253 57.53558853 -6 55 C-2.75389389 52.36802207 -1.10066996 50.03578986 0 46 C0.60554974 39.8435776 -0.06136575 34.95894897 -4 30 C-7.27811594 27.56365496 -10.55004295 26.24755364 -14.5625 25.5625 C-21.41769403 26.79291944 -25.10224173 29.49728245 -29 35 Z " fill="#656565" transform="translate(582,212)"/>
<path d="M0 0 C3.63 0 7.26 0 11 0 C15.5761161 9.94759338 20.1491025 19.8966151 24.71635437 29.84828186 C26.40445616 33.52623762 28.09311507 37.20392351 29.78662109 40.87939453 C31.21518101 43.98061004 32.63954766 47.08370876 34.0625 50.1875 C34.47290527 51.07518066 34.88331055 51.96286133 35.30615234 52.87744141 C35.67047363 53.67456543 36.03479492 54.47168945 36.41015625 55.29296875 C36.72090088 55.9686792 37.03164551 56.64438965 37.35180664 57.34057617 C38 59 38 59 38 61 C34.7 61 31.4 61 28 61 C25.69 56.38 23.38 51.76 21 47 C10.77 47 0.54 47 -10 47 C-11.98 51.62 -13.96 56.24 -16 61 C-19.63 61 -23.26 61 -27 61 C-22.42769077 49.7573878 -17.39857874 38.73387987 -12.375 27.6875 C-11.0835782 24.8445851 -9.79269418 22.0014281 -8.50259399 19.15791321 C-7.70541442 17.4011671 -6.90742867 15.64478651 -6.10848999 13.88883972 C-4.01624991 9.28162253 -1.97432421 4.65901418 0 0 Z M5 11 C3.15744484 14.93324939 1.32755281 18.87226022 -0.5 22.8125 C-1.02464844 23.93205078 -1.54929687 25.05160156 -2.08984375 26.20507812 C-2.58613281 27.27822266 -3.08242188 28.35136719 -3.59375 29.45703125 C-4.05458984 30.44678955 -4.51542969 31.43654785 -4.99023438 32.45629883 C-6.18447964 35.00859042 -6.18447964 35.00859042 -6 38 C1.59 38 9.18 38 17 38 C16.19938721 33.99693607 15.38407407 31.31236285 13.71484375 27.69921875 C13.26689453 26.72275391 12.81894531 25.74628906 12.35742188 24.74023438 C11.88884766 23.73283203 11.42027344 22.72542969 10.9375 21.6875 C10.46505859 20.66076172 9.99261719 19.63402344 9.50585938 18.57617188 C8.34197675 16.048548 7.17322145 13.52329928 6 11 C5.67 11 5.34 11 5 11 Z " fill="#656565" transform="translate(408,216)"/>
<path d="M0 0 C3.3 0 6.6 0 10 0 C10.33 12.87 10.66 25.74 11 39 C16.32631907 33.96155437 16.32631907 33.96155437 21.64892578 28.91918945 C23.75396982 26.93293398 25.87558274 24.9655002 28 23 C28.55671387 22.4639917 29.11342773 21.9279834 29.68701172 21.37573242 C32.1220882 19.14311674 33.69800745 18.04928077 36.9921875 17.51171875 C37.94351563 17.56972656 38.89484375 17.62773437 39.875 17.6875 C40.84179688 17.73261719 41.80859375 17.77773437 42.8046875 17.82421875 C43.52914062 17.88222656 44.25359375 17.94023437 45 18 C43.6511018 21.00911224 42.14834287 23.09916363 39.8125 25.41796875 C39.19632812 26.03220703 38.58015625 26.64644531 37.9453125 27.27929688 C36.98238281 28.22385742 36.98238281 28.22385742 36 29.1875 C35.35804688 29.82880859 34.71609375 30.47011719 34.0546875 31.13085938 C29.28121668 35.85939166 29.28121668 35.85939166 27 37 C28.72723461 41.04352612 31.46031951 44.28733725 34.1875 47.6875 C35.17717994 48.93481918 36.16676317 50.18221512 37.15625 51.4296875 C37.63964844 52.03651367 38.12304688 52.64333984 38.62109375 53.26855469 C40.48547384 55.60959286 42.34020644 57.9579578 44.1875 60.3125 C44.73792969 61.00988281 45.28835938 61.70726562 45.85546875 62.42578125 C47 64 47 64 47 65 C42.74996538 65.86780812 39.23015787 66.05388016 35 65 C30.97227206 61.95964292 28.05643041 57.71201709 25.16796875 53.62353516 C24.07217687 52.10032948 22.88218577 50.6461608 21.6875 49.19921875 C20 47 20 47 20 45 C18.68677212 45.97819024 17.37443848 46.9575811 16.0625 47.9375 C15.33160156 48.48277344 14.60070312 49.02804687 13.84765625 49.58984375 C12.0865547 50.86907938 12.0865547 50.86907938 11 52 C10.76518307 54.18292774 10.58636677 56.37203174 10.4375 58.5625 C10.35371094 59.76003906 10.26992188 60.95757812 10.18359375 62.19140625 C10.12300781 63.11824219 10.06242187 64.04507813 10 65 C6.7 65 3.4 65 0 65 C0 43.55 0 22.1 0 0 Z " fill="#656565" transform="translate(449,212)"/>
<path d="M0 0 C2.97 0 5.94 0 9 0 C9.01981934 1.07894531 9.03963867 2.15789062 9.06005859 3.26953125 C9.1365856 7.30279433 9.22522737 11.3357186 9.31738281 15.36865234 C9.35547915 17.10849276 9.39036447 18.84840676 9.421875 20.58837891 C9.46794901 23.10085205 9.5258695 25.612827 9.5859375 28.125 C9.59748871 28.89303955 9.60903992 29.6610791 9.62094116 30.45239258 C9.84069858 38.63855136 11.07867011 45.07867011 17 51 C23.06763422 53.02254474 29.78306016 53.0501294 35.5625 50.3125 C41.57075531 44.61236035 42.05265881 38.58883311 42.26576233 30.6789856 C42.28247482 29.90062347 42.29918732 29.12226135 42.31640625 28.3203125 C42.33718735 27.50754852 42.35796844 26.69478455 42.37937927 25.85739136 C42.44437579 23.28000743 42.50352593 20.70252806 42.5625 18.125 C42.60573277 16.36978209 42.64934852 14.61457357 42.69335938 12.859375 C42.80000549 8.57301262 42.90141114 4.28655496 43 0 C45.97 0 48.94 0 52 0 C52.07458679 5.81662241 52.12880761 11.63296163 52.16479492 17.44995117 C52.17980956 19.42558649 52.20022751 21.40118889 52.22631836 23.37670898 C52.26302572 26.22908695 52.27979993 29.08102129 52.29296875 31.93359375 C52.30845261 32.80584091 52.32393646 33.67808807 52.33988953 34.57676697 C52.34210779 42.80194566 50.65152591 50.38210601 44.83984375 56.4921875 C38.23601067 61.90424603 30.70995204 62.65870491 22.40625 62.37890625 C14.7888796 61.53156115 9.17556553 59.10724917 4.25390625 53.171875 C0.3224057 46.36217312 -0.42564672 40.51826372 -0.29296875 32.8125 C-0.28872391 31.86938965 -0.28447906 30.9262793 -0.28010559 29.95458984 C-0.2634357 26.96942482 -0.22580575 23.98495782 -0.1875 21 C-0.17243804 18.96485356 -0.15875229 16.92969645 -0.14648438 14.89453125 C-0.11357055 9.9294223 -0.06186999 4.96482913 0 0 Z " fill="#656565" transform="translate(748,119)"/>
<path d="M0 0 C6.23299608 4.45369947 8.40926837 9.02018171 9.66796875 16.53125 C10.1015625 19.93359375 10.1015625 19.93359375 10.23046875 22.59375 C9.23046875 23.59375 9.23046875 23.59375 5.72045898 23.70727539 C4.15998453 23.70711626 2.59950482 23.70142142 1.0390625 23.69140625 C0.21922379 23.6899913 -0.60061493 23.68857635 -1.44529724 23.68711853 C-4.07424507 23.68150289 -6.70310898 23.66894779 -9.33203125 23.65625 C-11.11002482 23.65123701 -12.88801971 23.64667376 -14.66601562 23.64257812 C-19.0338867 23.63152839 -23.40169473 23.61425331 -27.76953125 23.59375 C-26.98937696 24.88974298 -26.20302424 26.18200606 -25.4140625 27.47265625 C-24.97682861 28.19267822 -24.53959473 28.9127002 -24.08911133 29.65454102 C-21.36796037 33.65344982 -18.50757545 34.4389988 -13.89453125 35.40625 C-7.75854547 35.97247091 -2.82689421 33.96532531 2.23046875 30.59375 C3.9393088 32.21714805 5.60493592 33.88694053 7.23046875 35.59375 C7.23046875 36.25375 7.23046875 36.91375 7.23046875 37.59375 C0.76519656 43.56169356 -6.04345606 45.09089294 -14.671875 44.8984375 C-22.86259976 44.09279244 -28.19277643 40.98102807 -33.39453125 34.69140625 C-37.71364658 28.10230132 -37.47055497 21.24442866 -36.76953125 13.59375 C-34.90337243 7.09749985 -30.74039642 2.62263353 -25.20703125 -1.15625 C-17.09074407 -5.31844855 -7.76948959 -4.4467667 0 0 Z M-25.08203125 10.03125 C-27.02345009 12.67156218 -27.02345009 12.67156218 -27.76953125 16.59375 C-18.52953125 16.59375 -9.28953125 16.59375 0.23046875 16.59375 C-0.94158059 10.73350332 -2.84066685 8.64395508 -7.64453125 5.28125 C-14.52809391 3.05421502 -20.21364186 4.89970443 -25.08203125 10.03125 Z " fill="#656565" transform="translate(635.76953125,233.40625)"/>
<path d="M0 0 C5.0369077 4.25436843 7.80455856 9.54042169 9 16 C9 18.31 9 20.62 9 23 C-3.21 23.33 -15.42 23.66 -28 24 C-24.78502007 30.53881736 -24.78502007 30.53881736 -19 34 C-12.51981069 35.75205118 -8.00430925 34.79510948 -2 32 C-1.01 31.34 -0.02 30.68 1 30 C2.65 31.65 4.3 33.3 6 35 C4.72168567 38.97697791 2.31875268 40.25108607 -1.1484375 42.16796875 C-7.35829935 44.95847629 -15.07560342 45.0957344 -21.57421875 43.28125 C-27.91263005 40.61244524 -33.14540462 37.17163184 -36.375 30.9375 C-39.16374281 23.89533854 -39.20228891 16.26894459 -36.5 9.1875 C-33.54293019 3.42016527 -28.90358 -0.515948 -23.1875 -3.4375 C-14.8095704 -4.91595817 -7.27424255 -4.79277579 0 0 Z M-24 7 C-27.27003966 11.04002253 -27.27003966 11.04002253 -28 16 C-18.76 16 -9.52 16 0 16 C-2.78597454 9.07709989 -2.78597454 9.07709989 -8 5 C-13.94678461 3.01773846 -18.77919086 3.51946057 -24 7 Z " fill="#656565" transform="translate(711,137)"/>
<path d="M0 0 C4.12620336 2.54656634 6.24584802 5.77474984 7.80419922 10.27563477 C8.71306736 14.16519681 8.91200398 17.5156299 8.87890625 21.50390625 C8.87607635 22.18207901 8.87324646 22.86025177 8.87033081 23.55897522 C8.85924791 25.69836016 8.83416735 27.8373068 8.80859375 29.9765625 C8.79854851 31.43814494 8.78942538 32.89973403 8.78125 34.36132812 C8.759348 37.92071229 8.72490241 41.47984453 8.68359375 45.0390625 C5.71359375 45.0390625 2.74359375 45.0390625 -0.31640625 45.0390625 C-0.64640625 44.0490625 -0.97640625 43.0590625 -1.31640625 42.0390625 C-2.40953125 42.6990625 -3.50265625 43.3590625 -4.62890625 44.0390625 C-10.36128 46.89508559 -16.2001128 46.97353062 -22.3984375 45.56640625 C-26.77584805 43.97375361 -30.32217296 41.26577818 -32.31640625 37.0390625 C-33.23603862 32.07788789 -32.83186531 28.22032284 -30.81640625 23.6015625 C-26.48934877 19.16632858 -21.4148413 17.8795853 -15.37890625 17.74609375 C-13.69115417 17.76571877 -12.00351572 17.80102696 -10.31640625 17.8515625 C-9.01123047 17.87186523 -9.01123047 17.87186523 -7.6796875 17.89257812 C-5.55831998 17.92754572 -3.43727651 17.9813372 -1.31640625 18.0390625 C-1.97640625 15.0690625 -2.63640625 12.0990625 -3.31640625 9.0390625 C-10.39623117 6.42260546 -16.86749576 6.49937032 -23.81640625 9.6015625 C-25.05390625 10.313125 -25.05390625 10.313125 -26.31640625 11.0390625 C-26.97640625 11.0390625 -27.63640625 11.0390625 -28.31640625 11.0390625 C-30.06640625 8.7890625 -30.06640625 8.7890625 -31.31640625 6.0390625 C-30.46480861 3.23633607 -29.68300154 2.25192428 -27.13671875 0.7734375 C-18.28979078 -2.45761445 -8.90005966 -3.9596939 0 0 Z M-23.31640625 29.0390625 C-24.06640625 31.5390625 -24.06640625 31.5390625 -23.31640625 34.0390625 C-21.32214492 36.80034741 -19.84409087 37.85498647 -16.62890625 38.9765625 C-11.3099632 39.07691992 -6.35643429 37.76999539 -2.25390625 34.2890625 C-0.95952379 31.18254461 -1.25826664 28.37240021 -1.31640625 25.0390625 C-4.04664515 24.9306958 -6.77255168 24.85159556 -9.50390625 24.7890625 C-10.27283203 24.75554687 -11.04175781 24.72203125 -11.83398438 24.6875 C-16.92293531 24.60013604 -19.67923783 25.11550287 -23.31640625 29.0390625 Z " fill="#656565" transform="translate(1154.31640625,134.9609375)"/>
<path d="M0 0 C2.88536444 2.64010847 4.75026925 5.25080776 6 9 C6.08494728 11.65894107 6.11594796 14.29085377 6.09765625 16.94921875 C6.0962413 17.72183548 6.09482635 18.49445221 6.09336853 19.29048157 C6.08777466 21.75619389 6.07522333 24.22181515 6.0625 26.6875 C6.05748421 28.36002473 6.05292144 30.03255088 6.04882812 31.70507812 C6.03780724 35.80342046 6.02054684 39.90169479 6 44 C3.36 44 0.72 44 -2 44 C-2.33 43.01 -2.66 42.02 -3 41 C-4.093125 41.66 -5.18625 42.32 -6.3125 43 C-12.74505632 46.19920058 -19.66875243 46.00572547 -26.4375 43.8125 C-30.24906552 41.87328245 -31.93217326 40.72208814 -34 37 C-35.44773642 31.01602279 -35.251842 27.45470271 -32 22 C-27.23819586 18.1500307 -23.46541225 16.86172019 -17.453125 16.90234375 C-16.60878906 16.90556641 -15.76445313 16.90878906 -14.89453125 16.91210938 C-14.02183594 16.92048828 -13.14914062 16.92886719 -12.25 16.9375 C-11.36183594 16.94201172 -10.47367188 16.94652344 -9.55859375 16.95117188 C-7.37232671 16.962926 -5.18619821 16.97935751 -3 17 C-4.11344134 12.23754061 -4.11344134 12.23754061 -6.5625 8.125 C-12.04973404 5.59243044 -17.12921187 5.45866535 -22.8125 7.4375 C-23.52019531 7.72496094 -24.22789062 8.01242188 -24.95703125 8.30859375 C-27 9 -27 9 -31 9 C-32.4606285 6.35261084 -33 5.10551666 -33 2 C-31.77493102 1.34642722 -30.54470484 0.70251767 -29.3125 0.0625 C-28.62800781 -0.29714844 -27.94351562 -0.65679687 -27.23828125 -1.02734375 C-19.22272404 -4.510544 -7.55372508 -4.72107818 0 0 Z M-24 26 C-25.41441874 28.82883747 -25.31900332 30.87376745 -25 34 C-22.17626204 37.14955388 -19.13297184 37.75688401 -15 38 C-9.54899636 37.04368357 -6.30547067 35.50746001 -3 31 C-2.82790828 27.38265295 -2.82790828 27.38265295 -3 24 C-5.75026417 23.94595551 -8.49946203 23.90630694 -11.25 23.875 C-12.41595703 23.84986328 -12.41595703 23.84986328 -13.60546875 23.82421875 C-19.11406781 23.69405836 -19.11406781 23.69405836 -24 26 Z " fill="#656565" transform="translate(529,233)"/>
<path d="M0 0 C2.88536444 2.64010847 4.75026925 5.25080776 6 9 C6.08494728 11.65894107 6.11594796 14.29085377 6.09765625 16.94921875 C6.0962413 17.72183548 6.09482635 18.49445221 6.09336853 19.29048157 C6.08777466 21.75619389 6.07522333 24.22181515 6.0625 26.6875 C6.05748421 28.36002473 6.05292144 30.03255088 6.04882812 31.70507812 C6.03780724 35.80342046 6.02054684 39.90169479 6 44 C3.36 44 0.72 44 -2 44 C-2.33 43.01 -2.66 42.02 -3 41 C-4.093125 41.66 -5.18625 42.32 -6.3125 43 C-12.74505632 46.19920058 -19.66875243 46.00572547 -26.4375 43.8125 C-30.24906552 41.87328245 -31.93217326 40.72208814 -34 37 C-35.44773642 31.01602279 -35.251842 27.45470271 -32 22 C-27.23819586 18.1500307 -23.46541225 16.86172019 -17.453125 16.90234375 C-16.60878906 16.90556641 -15.76445313 16.90878906 -14.89453125 16.91210938 C-14.02183594 16.92048828 -13.14914062 16.92886719 -12.25 16.9375 C-11.36183594 16.94201172 -10.47367188 16.94652344 -9.55859375 16.95117188 C-7.37232671 16.962926 -5.18619821 16.97935751 -3 17 C-4.11344134 12.23754061 -4.11344134 12.23754061 -6.5625 8.125 C-12.04973404 5.59243044 -17.12921187 5.45866535 -22.8125 7.4375 C-23.52019531 7.72496094 -24.22789062 8.01242188 -24.95703125 8.30859375 C-27 9 -27 9 -31 9 C-32.4606285 6.35261084 -33 5.10551666 -33 2 C-31.77493102 1.34642722 -30.54470484 0.70251767 -29.3125 0.0625 C-28.62800781 -0.29714844 -27.94351563 -0.65679687 -27.23828125 -1.02734375 C-19.22272404 -4.510544 -7.55372508 -4.72107818 0 0 Z M-24 26 C-25.41441874 28.82883747 -25.31900332 30.87376745 -25 34 C-22.17626204 37.14955388 -19.13297184 37.75688401 -15 38 C-9.54899636 37.04368357 -6.30547067 35.50746001 -3 31 C-2.82790828 27.38265295 -2.82790828 27.38265295 -3 24 C-5.75026417 23.94595551 -8.49946203 23.90630694 -11.25 23.875 C-12.41595703 23.84986328 -12.41595703 23.84986328 -13.60546875 23.82421875 C-19.11406781 23.69405836 -19.11406781 23.69405836 -24 26 Z " fill="#656565" transform="translate(1019,136)"/>
<path d="M0 0 C3.3 0 6.6 0 10 0 C11.99839156 4.661142 13.9920982 9.3242485 15.98144531 13.98925781 C16.65918895 15.57672445 17.33822092 17.16364168 18.01855469 18.75 C18.99491297 21.02722049 19.96665631 23.30636152 20.9375 25.5859375 C21.24373291 26.29744965 21.54996582 27.00896179 21.86547852 27.74203491 C24 32.77225659 24 32.77225659 24 35 C24.66 35 25.32 35 26 35 C26.37898438 33.783125 26.75796875 32.56625 27.1484375 31.3125 C29.24137077 25.03615956 31.93750167 19.03987256 34.625 13 C35.12773437 11.85660156 35.63046875 10.71320313 36.1484375 9.53515625 C39.86335621 1.13664379 39.86335621 1.13664379 41 0 C44.00003445 -0.14177857 46.99757235 -0.04228771 50 0 C47.46978549 8.35154138 43.88372577 16.15135989 40.25 24.0625 C38.98248304 26.83377364 37.71738618 29.606146 36.453125 32.37890625 C36.14717407 33.04890656 35.84122314 33.71890686 35.52600098 34.40921021 C33.54844588 38.7531299 31.6561455 43.12418699 29.82299805 47.53051758 C24.24578861 60.8771057 24.24578861 60.8771057 17.125 64.4375 C9.30002621 65.84599528 4.7515853 65.02222103 -2 61 C-0.8141763 57.62496331 0.27573689 55.35277269 3 53 C4.051875 53.7734375 4.051875 53.7734375 5.125 54.5625 C8.67206143 56.33603072 10.2494556 56.14147004 14 55 C17.30870167 52.75480958 18.23711207 49.83872683 19 46 C18.17742669 42.68658961 16.74559065 39.70150456 15.29296875 36.62109375 C14.89298172 35.73140396 14.49299469 34.84171417 14.08088684 33.92506409 C12.80121505 31.08723327 11.495641 28.26230531 10.1875 25.4375 C8.89510042 22.60711364 7.60823812 19.77434018 6.32624817 16.93922424 C5.52764653 15.17744944 4.72215526 13.41877737 3.90898132 11.66368103 C2.13991346 7.79946943 0.53971612 4.26197093 0 0 Z " fill="#656565" transform="translate(450,133)"/>
<path d="M0 0 C3.3 0 6.6 0 10 0 C20.95744681 23.91489362 20.95744681 23.91489362 25 34 C27.68367105 30.75239068 29.24905474 27.42739992 30.8828125 23.5546875 C31.14254852 22.94360138 31.40228455 22.33251526 31.66989136 21.70291138 C32.493435 19.7624167 33.30940347 17.81884642 34.125 15.875 C34.94941852 13.92475747 35.77535236 11.97516231 36.60153198 10.02566528 C37.34764702 8.26277507 38.09017265 6.49836699 38.83251953 4.73388672 C39.51410182 3.1378268 40.22386062 1.55227876 41 0 C43.97 0 46.94 0 50 0 C49.41622896 3.34440511 48.59609706 6.2547284 47.22167969 9.35620117 C46.85749939 10.18443893 46.49331909 11.0126767 46.11810303 11.86601257 C45.72334778 12.74940811 45.32859253 13.63280365 44.921875 14.54296875 C44.51342346 15.46660721 44.10497192 16.39024567 43.68414307 17.34187317 C42.81900204 19.29546427 41.95140946 21.24797129 41.08154297 23.19946289 C39.76351215 26.15717819 38.45337312 29.11828689 37.14453125 32.08007812 C36.29994685 33.98458247 35.45490892 35.88888577 34.609375 37.79296875 C34.22271667 38.66624313 33.83605835 39.53951752 33.43768311 40.43925476 C24.22738722 61.07010583 24.22738722 61.07010583 17.125 64.3125 C10.54640878 65.75979007 5.80813365 65.25255484 0 62 C-1.1875 60.125 -1.1875 60.125 -1 58 C0.9375 55.25 0.9375 55.25 3 53 C4.299375 53.7734375 4.299375 53.7734375 5.625 54.5625 C9.50191165 56.21377719 11.06298353 56.45498435 15 55 C17.60845604 52.46255794 17.60845604 52.46255794 19 49 C18.65977891 43.8014218 17.17371235 39.51686062 14.98046875 34.8515625 C14.68062576 34.1947348 14.38078278 33.5379071 14.07185364 32.86117554 C13.11885152 30.77844503 12.15355011 28.70170547 11.1875 26.625 C10.55058783 25.23997135 9.91451303 23.85455731 9.27929688 22.46875 C8.06430993 19.82072282 6.84685613 17.17386114 5.62646484 14.52832031 C0 2.32272591 0 2.32272591 0 0 Z " fill="#656565" transform="translate(804,133)"/>
<path d="M0 0 C3.3 0 6.6 0 10 0 C10.01458252 0.94319092 10.02916504 1.88638184 10.04418945 2.8581543 C10.10539606 6.37158661 10.17957508 9.88425446 10.26245117 13.3972168 C10.29561916 14.91501621 10.32367632 16.43293656 10.34643555 17.95092773 C10.38013278 20.13838019 10.43245204 22.32473264 10.48828125 24.51171875 C10.51446533 25.82615967 10.54064941 27.14060059 10.56762695 28.49487305 C11.01865419 32.15122431 11.79880679 34.08298542 14 37 C17.9225247 39.17444304 21.50721497 39.10501976 25.8125 38.1875 C26.864375 37.795625 27.91625 37.40375 29 37 C30.485 36.505 30.485 36.505 32 36 C33.94603931 31.61793501 34.29213578 27.60670477 34.4140625 22.8515625 C34.43342865 22.19417084 34.4527948 21.53677917 34.4727478 20.85946655 C34.53202461 18.78143865 34.57871794 16.70335376 34.625 14.625 C34.66322778 13.2070085 34.70228223 11.78903903 34.7421875 10.37109375 C34.83768171 6.91426539 34.92190189 3.45727017 35 0 C38.3 0 41.6 0 45 0 C45 15.51 45 31.02 45 47 C42.03 47 39.06 47 36 47 C35.505 45.02 35.505 45.02 35 43 C34.071875 43.639375 33.14375 44.27875 32.1875 44.9375 C26.57454038 48.56941505 21.51409674 48.50178616 15 48 C9.89166069 46.79412808 6.21825014 44.11220851 3 40 C-1.04432236 32.16235086 -0.34267157 23.48755102 -0.1875 14.9375 C-0.17242256 13.48503995 -0.15873958 12.03256473 -0.14648438 10.58007812 C-0.11372861 7.05306543 -0.06211664 3.52663215 0 0 Z " fill="#656565" transform="translate(911,133)"/>
<path d="M0 0 C2.97 0 5.94 0 9 0 C9.01458252 0.87736816 9.02916504 1.75473633 9.04418945 2.65869141 C9.1054968 5.93549321 9.17969333 9.21148944 9.26245117 12.48779297 C9.29556291 13.9017449 9.32363716 15.31582464 9.34643555 16.72998047 C9.38023775 18.77105823 9.43255964 20.81097928 9.48828125 22.8515625 C9.51446533 24.07697754 9.54064941 25.30239258 9.56762695 26.56494141 C10.04245018 30.33725238 11.00717772 32.7761008 13 36 C17.46346302 38.97564201 21.76713581 38.61292699 27 38 C30.52015238 36.13216404 31.621138 34.9440302 33.09521484 31.27099609 C34.04653375 27.83177032 34.31600759 24.85172418 34.4140625 21.2890625 C34.45273437 20.04511719 34.49140625 18.80117187 34.53125 17.51953125 C34.5621875 16.23433594 34.593125 14.94914063 34.625 13.625 C34.66367187 12.31660156 34.70234375 11.00820312 34.7421875 9.66015625 C34.83619957 6.44024284 34.92185821 3.2203312 35 0 C37.97 0 40.94 0 44 0 C44 15.51 44 31.02 44 47 C41.03 47 38.06 47 35 47 C34.505 45.02 34.505 45.02 34 43 C33.071875 43.639375 32.14375 44.27875 31.1875 44.9375 C25.39124295 48.68801927 19.4340192 48.90521499 12.7421875 47.5390625 C7.56265385 45.86506873 5.04585618 43.47920027 2 39 C-0.17697225 34.72620982 -0.26287094 30.77269417 -0.1953125 26.07421875 C-0.1924826 25.32662796 -0.18965271 24.57903717 -0.18673706 23.80879211 C-0.17559469 21.4348612 -0.15050162 19.06131575 -0.125 16.6875 C-0.11496249 15.0722711 -0.10583799 13.45703624 -0.09765625 11.84179688 C-0.07567489 7.89438406 -0.04118657 3.94725726 0 0 Z " fill="#656565" transform="translate(503,133)"/>
<path d="M0 0 C2.97 0 5.94 0 9 0 C9.33 1.32 9.66 2.64 10 4 C10.52207031 3.71125 11.04414062 3.4225 11.58203125 3.125 C19.08305267 -0.65835231 25.71178289 -1.1950769 33.8125 1.0625 C38.62140771 3.98556155 42.20354505 7.61063516 44 13 C44.08481773 15.58630224 44.11598229 18.14478056 44.09765625 20.73046875 C44.0962413 21.48088943 44.09482635 22.23131012 44.09336853 23.00447083 C44.0877756 25.3988546 44.07522444 27.79314453 44.0625 30.1875 C44.05748408 31.81184761 44.05292134 33.43619668 44.04882812 35.06054688 C44.03780848 39.04040069 44.02054873 43.02018444 44 47 C41.03 47 38.06 47 35 47 C34.970271 45.68394775 34.970271 45.68394775 34.93994141 44.34130859 C34.861524 41.06467423 34.77482117 37.78847139 34.68261719 34.51220703 C34.64449762 33.09822937 34.60961596 31.68416035 34.578125 30.27001953 C34.53210142 28.2291616 34.47417333 26.1889234 34.4140625 24.1484375 C34.3826416 22.92302246 34.3512207 21.69760742 34.31884766 20.43505859 C33.99790101 16.97738686 33.33305009 14.20087027 32 11 C28.02191122 8.68907706 23.12079168 8.7057851 18.6875 9.5625 C14.65457329 11.13465787 13.2271405 12.34748959 11 16 C9.8992924 19.3021228 9.79372928 21.94083279 9.68359375 25.41796875 C9.64169922 26.67158203 9.59980469 27.92519531 9.55664062 29.21679688 C9.51732422 30.52712891 9.47800781 31.83746094 9.4375 33.1875 C9.39429008 34.52279978 9.350675 35.85808652 9.30664062 37.19335938 C9.20043498 40.46213297 9.09839003 43.73098333 9 47 C6.03 47 3.06 47 0 47 C0 31.49 0 15.98 0 0 Z " fill="#656565" transform="translate(559,133)"/>
<path d="M0 0 C-1.1858237 3.37503669 -2.27573689 5.64722731 -5 8 C-6.155 7.505 -7.31 7.01 -8.5 6.5 C-13.85359335 4.50069346 -18.31815264 4.3723336 -23.9375 5.6875 C-26.26590209 6.85664583 -26.26590209 6.85664583 -26.8125 9.625 C-26.874375 10.40875 -26.93625 11.1925 -27 12 C-22.52488721 14.1855202 -18.32240976 15.42027623 -13.4375 16.4375 C-6.89795648 17.87319289 -2.82139862 19.26790207 1 25 C1.61043233 29.23338782 1.45876307 32.94484493 -0.25 36.875 C-3.78970353 41.17321143 -7.50737075 43.12769762 -13 44 C-22.6612202 44.85508818 -30.35244701 43.3237765 -39 39 C-37.87548273 36.0280615 -36.77706209 33.66559313 -35 31 C-34.01 31.433125 -34.01 31.433125 -33 31.875 C-26.10170371 34.46186111 -19.45554398 36.16231582 -12.125 34.25 C-9.84453717 33.19826213 -9.84453717 33.19826213 -9.1875 31 C-8.96888643 29.0029169 -8.96888643 29.0029169 -9 27 C-10.22976563 26.74605469 -11.45953125 26.49210937 -12.7265625 26.23046875 C-14.3594664 25.88324206 -15.99227389 25.53556177 -17.625 25.1875 C-18.43324219 25.02185547 -19.24148438 24.85621094 -20.07421875 24.68554688 C-25.89360518 23.43177663 -30.84334968 21.9296345 -35.375 17.875 C-37.65176161 13.84688331 -37.78212179 10.52513321 -37 6 C-34.60958593 1.03529386 -32.08240131 -0.98821615 -27 -3 C-17.58513332 -5.83845237 -8.76336112 -3.86415923 0 0 Z " fill="#656565" transform="translate(795,234)"/>
<path d="M0 0 C3.3 0 6.6 0 10 0 C11.65466537 3.71676862 13.30869345 7.43382015 14.9621582 11.15112305 C15.52351098 12.41291773 16.08503103 13.67463802 16.64672852 14.9362793 C17.45894766 16.76070398 18.27049441 18.58542796 19.08203125 20.41015625 C19.56905518 21.50465088 20.0560791 22.59914551 20.55786133 23.72680664 C22.0623655 27.14154973 23.53561091 30.56789742 25 34 C27.14762444 30.77856335 28.68578472 27.44587047 30.2578125 23.92578125 C30.56572723 23.2419487 30.87364197 22.55811615 31.19088745 21.8535614 C32.17145085 19.67433278 33.14826934 17.49344876 34.125 15.3125 C34.7901182 13.83257154 35.45547995 12.35275251 36.12109375 10.87304688 C37.75022211 7.24996054 39.37599441 3.62538528 41 0 C43.97 0 46.94 0 50 0 C49.41778692 3.32416377 48.60912387 6.22911491 47.25 9.31542969 C46.89292969 10.13267517 46.53585937 10.94992065 46.16796875 11.79193115 C45.58982422 13.09375336 45.58982422 13.09375336 45 14.421875 C44.60425781 15.32246643 44.20851563 16.22305786 43.80078125 17.15093994 C42.96591056 19.04812267 42.12861724 20.94424091 41.2890625 22.83935547 C39.99951101 25.75110411 38.7179093 28.66625255 37.4375 31.58203125 C36.62546342 33.42468346 35.81297902 35.2671384 35 37.109375 C34.61457031 37.98535339 34.22914063 38.86133179 33.83203125 39.76385498 C33.47496094 40.56849182 33.11789062 41.37312866 32.75 42.20214844 C32.27820313 43.26873688 32.27820313 43.26873688 31.796875 44.35687256 C31 46 31 46 30 47 C28.31391034 47.07205511 26.62499341 47.08386068 24.9375 47.0625 C24.01839844 47.05347656 23.09929688 47.04445312 22.15234375 47.03515625 C21.44207031 47.02355469 20.73179687 47.01195312 20 47 C15.65751984 37.33741839 11.32387291 27.67092231 7 18 C6.57009766 17.03916504 6.14019531 16.07833008 5.69726562 15.08837891 C4.68959621 12.83167423 3.68702628 10.57282027 2.6875 8.3125 C2.15511719 7.11238281 1.62273438 5.91226563 1.07421875 4.67578125 C0 2 0 2 0 0 Z " fill="#646464" transform="translate(626,133)"/>
<path d="M0 0 C3.3 0 6.6 0 10 0 C10 21.45 10 42.9 10 65 C6.7 65 3.4 65 0 65 C0 43.55 0 22.1 0 0 Z " fill="#626262" transform="translate(967,115)"/>
<path d="M0 0 C3.3 0 6.6 0 10 0 C10 15.51 10 31.02 10 47 C6.7 47 3.4 47 0 47 C0 31.49 0 15.98 0 0 Z " fill="#656565" transform="translate(802,230)"/>
<path d="M0 0 C3.3 0 6.6 0 10 0 C10 15.51 10 31.02 10 47 C6.7 47 3.4 47 0 47 C0 31.49 0 15.98 0 0 Z " fill="#656565" transform="translate(741,230)"/>
<path d="M0 0 C1.875 1.125 1.875 1.125 3 3 C3.3125 6.0625 3.3125 6.0625 3 9 C1 11 1 11 -2.4375 11.3125 C-6 11 -6 11 -8 9.9375 C-9.6154422 6.80758074 -8.79884015 4.31825907 -8 1 C-5.20129973 -0.39935013 -3.09501208 -0.25265405 0 0 Z " fill="#656565" transform="translate(810,211)"/>
<path d="M0 0 C1.875 1.125 1.875 1.125 3 3 C3.3125 6.0625 3.3125 6.0625 3 9 C1 11 1 11 -2.4375 11.3125 C-6 11 -6 11 -8 9.9375 C-9.6154422 6.80758074 -8.79884015 4.31825907 -8 1 C-5.20129973 -0.39935013 -3.09501208 -0.25265405 0 0 Z " fill="#656565" transform="translate(749,211)"/>
</svg>
