<?xml version="1.0" encoding="UTF-8"?>
<svg version="1.1" xmlns="http://www.w3.org/2000/svg" width="886" height="886">
<path d="M0 0 C1.945225 -0.00439271 3.8904368 -0.01373892 5.83564377 -0.02319717 C103.00461409 -0.32700476 197.49426636 33.37889658 302.11326218 116.4330101 C303.05814499 117.28508041 304.0030278 118.13715073 304.97654343 119.01504135 C314.22424498 127.37934881 323.33496415 135.95485483 331.42185593 145.4642601 C333.3519406 147.71082517 335.35744357 149.87884915 337.36326218 152.0580101 C342.42376038 157.67507748 347.07579645 163.56885021 351.67625046 169.5633812 C352.62366704 170.7960207 353.57508302 172.02559799 354.53074265 173.25185776 C368.27819147 190.89748466 380.37562961 209.81854846 391.11326218 229.4330101 C391.6530571 230.41688705 392.19285202 231.40076401 392.74900436 232.41445541 C437.05452051 313.85364161 455.0282068 410.46600441 442.11326218 502.4330101 C441.94165573 503.67228256 441.77004929 504.91155502 441.59324265 506.1883812 C429.46406024 590.96258635 392.84535468 671.26132452 336.11326218 735.4330101 C335.36818405 736.2786351 334.62310593 737.1242601 333.85544968 737.9955101 C331.62828017 740.49388475 329.37537898 742.96622559 327.11326218 745.4330101 C326.60569382 745.99101303 326.09812546 746.54901596 325.57517624 747.12392807 C317.92110277 755.52642962 310.06186063 763.53265667 301.58884811 771.1102562 C300.20558315 772.35025116 298.83473113 773.60405402 297.46482468 774.85879135 C233.58485599 833.19712237 150.99561889 870.21501225 65.73826218 882.6830101 C64.19235397 882.90972397 64.19235397 882.90972397 62.6152153 883.14101791 C42.65743534 885.8816554 22.80547899 886.81202757 2.67576218 886.7455101 C0.90403137 886.74227737 0.90403137 886.74227737 -0.90349197 886.73897934 C-62.61779022 886.55892835 -123.58251262 874.06313348 -179.88673782 848.4330101 C-181.49137894 847.70477036 -181.49137894 847.70477036 -183.12843704 846.9618187 C-218.71920707 830.65516767 -251.93811485 809.66631797 -281.88673782 784.4330101 C-282.40381302 784.0008519 -282.92088821 783.5686937 -283.45363235 783.12343979 C-298.79955633 770.28010972 -314.10584661 756.70662872 -327.12501907 741.4720726 C-329.08279521 739.2060878 -331.1090273 737.01157516 -333.13673782 734.8080101 C-338.72295175 728.60740716 -343.8147939 722.05471467 -348.88673782 715.4330101 C-349.38109329 714.79025131 -349.87544876 714.14749252 -350.3847847 713.4852562 C-395.85858958 654.21421901 -424.91459464 584.78479721 -436.63673782 511.1205101 C-436.83549515 509.88333237 -437.03425247 508.64615463 -437.23903275 507.37148666 C-440.46315567 486.20532005 -441.29297079 465.20225992 -441.26173782 443.8080101 C-441.26164593 443.14076542 -441.26155403 442.47352074 -441.26145935 441.78605652 C-441.25754727 419.75862943 -440.35862185 398.20166632 -436.88673782 376.4330101 C-436.6995015 375.20082748 -436.51226517 373.96864487 -436.31935501 372.69912338 C-426.13096431 306.59775954 -400.26893539 241.58175007 -360.88673782 187.4330101 C-360.41703568 186.78606186 -359.94733353 186.13911362 -359.46339798 185.47256088 C-349.73724049 172.15061344 -339.54541335 159.13702904 -328.30080032 147.0580101 C-326.39446735 144.98510435 -324.55283718 142.88492376 -322.71876907 140.74941635 C-318.34791585 135.73786517 -313.66017978 131.06024752 -308.94923782 126.3705101 C-307.66629837 125.08176987 -307.66629837 125.08176987 -306.35744095 123.76699448 C-301.36296344 118.78013631 -296.26142936 114.00614198 -290.88673782 109.4330101 C-289.87729274 108.55578611 -288.86815472 107.67820858 -287.85939407 106.8001976 C-262.36363729 84.96624749 -234.5678065 66.10887991 -204.88673782 50.4330101 C-203.55980911 49.73159897 -203.55980911 49.73159897 -202.20607376 49.01601791 C-159.23949766 26.5012352 -112.80674626 11.7146957 -64.88673782 4.4330101 C-63.64810989 4.23546127 -62.40948196 4.03791245 -61.13331985 3.83437729 C-40.80406528 0.69811304 -20.55114741 0.03795898 0 0 Z " fill="#1883A9" transform="translate(440.8867378234863,-0.4330101013183594)"/>
<path d="M0 0 C1.945225 -0.00439271 3.8904368 -0.01373892 5.83564377 -0.02319717 C103.00461409 -0.32700476 197.49426636 33.37889658 302.11326218 116.4330101 C303.05814499 117.28508041 304.0030278 118.13715073 304.97654343 119.01504135 C314.22424498 127.37934881 323.33496415 135.95485483 331.42185593 145.4642601 C333.3519406 147.71082517 335.35744357 149.87884915 337.36326218 152.0580101 C342.42376038 157.67507748 347.07579645 163.56885021 351.67625046 169.5633812 C352.62366704 170.7960207 353.57508302 172.02559799 354.53074265 173.25185776 C368.27819147 190.89748466 380.37562961 209.81854846 391.11326218 229.4330101 C391.6530571 230.41688705 392.19285202 231.40076401 392.74900436 232.41445541 C432.8686503 306.1594786 446.08795027 384.3480336 445.11326218 467.4330101 C351.697358 502.035296 351.697358 502.035296 314.25388718 485.4876976 C306.50287706 481.66876926 300.04937388 476.081695 297.17576218 467.7455101 C293.98984676 454.64343293 297.03917317 441.63362862 301.22263718 429.1126976 C302.78992078 424.3970987 302.53665315 421.48228338 300.67576218 416.8705101 C297.9159672 412.46658195 293.88611696 410.25316659 289.11326218 408.4330101 C283.86190468 407.72096163 280.4795441 408.43119128 276.11326218 411.4330101 C270.62542601 417.01593254 266.97340668 423.98067904 263.08689499 430.70327377 C243.70892034 464.01143912 243.70892034 464.01143912 228.81248093 468.0580101 C221.74638037 469.28880833 217.09271154 467.10973535 211.11326218 463.4330101 C211.73268775 458.98821309 213.41867498 455.58066958 215.48826218 451.6205101 C221.287752 440.22970223 225.99957823 427.48259961 225.11326218 414.4330101 C222.63257788 409.66246338 220.00347471 406.70346592 215.11326218 404.4330101 C209.62839467 403.69466255 204.8409834 403.74192161 199.67576218 405.8080101 C193.78847469 411.83888997 191.53981468 419.90510672 188.73826218 427.6830101 C183.68691437 441.60922927 177.96945449 453.13186604 167.11326218 463.4330101 C166.60972214 463.91447495 166.1061821 464.39593979 165.58738327 464.89199448 C145.75143243 483.53915755 120.80499019 496.4094871 97.11326218 509.4330101 C93.82764698 506.1473949 92.99074814 501.72015841 91.55076218 497.3705101 C91.23429733 496.45334213 90.91783249 495.53617416 90.5917778 494.59121323 C88.66657703 488.82378585 87.56644175 483.49816691 87.11326218 477.4330101 C87.68657272 477.08633286 88.25988327 476.73965561 88.85056686 476.38247299 C117.59996916 458.94312938 151.12542083 436.7793562 161.11326218 402.4955101 C163.33195789 391.75006225 163.76423313 380.15491079 158.11326218 370.4330101 C153.56767858 363.5496978 146.11871124 359.26759218 138.11326218 357.4330101 C125.49131831 355.81481217 113.41504206 362.84339206 103.69773483 370.2821312 C97.08633338 375.57054362 90.93035675 381.24330899 84.9511528 387.22451401 C83.49236698 388.67891763 82.01825743 390.11648644 80.54294968 391.55410385 C66.29320353 405.63646849 55.16460601 422.78401464 53.70310593 443.25722885 C53.61162277 444.47055893 53.61162277 444.47055893 53.51829147 445.70840073 C53.41698658 447.28460922 53.35052931 448.86354694 53.32346725 450.44277573 C53.19138718 452.63222885 53.19138718 452.63222885 52.11326218 456.4330101 C49.67514251 458.42593345 47.07298224 459.42029867 44.11326218 460.4330101 C42.37109421 461.05949448 42.37109421 461.05949448 40.59373093 461.6986351 C39.50705124 462.02347885 38.42037155 462.3483226 37.30076218 462.6830101 C35.65140671 463.18574448 35.65140671 463.18574448 33.96873093 463.6986351 C31.11326218 464.4330101 31.11326218 464.4330101 28.11326218 464.4330101 C28.2594902 463.68728745 28.40571823 462.94156479 28.55637741 462.17324448 C29.22396361 458.76037224 29.88739434 455.34670467 30.55076218 451.9330101 C30.78085983 450.75996323 31.01095749 449.58691635 31.2480278 448.3783226 C35.27029527 427.62575421 36.67740673 408.75661538 24.77341843 390.3626976 C19.33611865 383.33360862 9.87387472 377.21375167 1.11326218 375.4330101 C-10.97596622 374.08789428 -20.50881974 377.95876258 -29.88673782 385.4330101 C-41.79555718 395.78625073 -48.83466086 408.50736036 -56.44923782 422.1205101 C-65.15646832 437.67859454 -73.8763712 452.24398543 -91.26173782 458.6830101 C-98.65049844 460.21171919 -104.68653581 459.6566019 -111.88673782 457.4330101 C-110.45032697 454.39082794 -109.01241228 451.34935888 -107.57423782 448.3080101 C-107.17011673 447.4520726 -106.76599564 446.5961351 -106.34962845 445.7142601 C-105.95324173 444.87636948 -105.55685501 444.03847885 -105.14845657 443.1751976 C-104.56837845 441.94784897 -104.56837845 441.94784897 -103.97658157 440.69570541 C-103.05918374 438.79103626 -102.09356632 436.90970059 -101.11720657 435.0345726 C-99.00667716 430.57231041 -99.40904304 426.92580629 -100.88673782 422.3080101 C-104.10736631 417.67835665 -107.93990456 415.22497154 -113.38673782 413.7611351 C-118.52029021 412.97858138 -121.66583818 413.25779557 -126.25172806 416.07973862 C-129.15543998 418.48309462 -130.41227561 421.53191727 -131.88673782 424.9330101 C-132.56498417 426.37831103 -133.24600258 427.82231416 -133.92970657 429.26504135 C-134.26018997 429.97483139 -134.59067337 430.68462143 -134.93117142 431.41592026 C-139.51279165 441.08718914 -145.52218202 448.98591801 -152.56984329 456.9251976 C-153.91222206 458.46218894 -155.20551831 460.03209834 -156.49611282 461.6126976 C-158.42127069 463.88388058 -160.24172575 465.78299999 -162.51173782 467.6830101 C-164.78728423 469.61364929 -167.01445858 471.55420339 -169.17970657 473.60879135 C-189.33080584 492.69766213 -213.98609395 509.05519638 -240.88673782 516.4330101 C-241.50935501 516.62636948 -242.1319722 516.81972885 -242.77345657 517.0189476 C-250.42034544 518.51722897 -260.6142827 518.93256333 -267.34767532 514.6908226 C-273.68075281 509.51505877 -276.90742508 502.46337458 -277.88673782 494.4330101 C-278.95512582 481.87293656 -275.0728846 471.7916945 -267.09376907 462.3001976 C-261.79079128 456.57667418 -255.64036438 452.28355826 -249.25539017 447.87514877 C-243.19388239 443.68931502 -237.49400495 439.21284383 -231.88673782 434.4330101 C-230.79099018 433.52212374 -229.69460052 432.61200931 -228.59767532 431.70254135 C-222.29766007 426.43901434 -216.25917991 420.98512314 -210.44923782 415.1830101 C-209.89453812 414.62911606 -209.33983841 414.07522202 -208.76832962 413.5045433 C-164.15960583 368.29363186 -134.41703144 310.52170481 -112.88673782 251.4330101 C-112.53643509 250.48087631 -112.18613235 249.52874252 -111.82521439 248.5477562 C-110.93104497 246.0990029 -110.0591317 243.64397602 -109.19923782 241.1830101 C-108.95520218 240.51148911 -108.71116653 239.83996811 -108.45973587 239.14809799 C-106.38123009 232.98784905 -105.69446388 227.00832181 -108.44923782 221.0580101 C-112.03162104 217.20005894 -115.24107144 215.73489279 -120.35158157 215.1517601 C-128.17497141 214.8694122 -132.97794612 217.41232589 -138.94923782 222.4330101 C-139.90443314 223.23351791 -140.85962845 224.03402573 -141.84376907 224.85879135 C-142.84794876 225.70828354 -143.85212845 226.55777573 -144.88673782 227.4330101 C-145.90123001 228.27218979 -146.9157222 229.11136948 -147.96095657 229.97597885 C-160.38042296 240.27989328 -171.95839969 251.42368758 -183.38673782 262.8080101 C-184.22341995 263.64001938 -185.06010208 264.47202866 -185.92213821 265.32925034 C-190.78408086 270.20387588 -195.40752851 275.20681153 -199.88673782 280.4330101 C-200.90823374 281.58967561 -201.93162921 282.74466672 -202.95705032 283.89785385 C-210.51981951 292.46923737 -217.55051799 301.34842298 -224.41261673 310.48720932 C-225.72224354 312.215882 -227.05132786 313.92491996 -228.39845657 315.62441635 C-254.26938519 348.42276717 -280.49816481 387.73875567 -294.59376907 427.2064476 C-294.90024368 428.05714828 -295.20671829 428.90784897 -295.52248001 429.78432846 C-296.12614371 431.46889369 -296.71977526 433.15709849 -297.30177689 434.84926987 C-300.23546301 443.10645221 -303.98361445 446.99269603 -311.69923782 450.9330101 C-312.51328079 451.35388901 -313.32732376 451.77476791 -314.1660347 452.20840073 C-345.31435697 467.90751866 -378.68690392 478.98295928 -411.92309952 489.27173996 C-420.5894083 491.95487538 -429.23800696 494.69384381 -437.88673782 497.4330101 C-444.89516774 483.41615026 -441.2839621 459.0314073 -441.26173782 443.8080101 C-441.26164593 443.14076542 -441.26155403 442.47352074 -441.26145935 441.78605652 C-441.25754727 419.75862943 -440.35862185 398.20166632 -436.88673782 376.4330101 C-436.6995015 375.20082748 -436.51226517 373.96864487 -436.31935501 372.69912338 C-426.13096431 306.59775954 -400.26893539 241.58175007 -360.88673782 187.4330101 C-360.41703568 186.78606186 -359.94733353 186.13911362 -359.46339798 185.47256088 C-349.73724049 172.15061344 -339.54541335 159.13702904 -328.30080032 147.0580101 C-326.39446735 144.98510435 -324.55283718 142.88492376 -322.71876907 140.74941635 C-318.34791585 135.73786517 -313.66017978 131.06024752 -308.94923782 126.3705101 C-307.66629837 125.08176987 -307.66629837 125.08176987 -306.35744095 123.76699448 C-301.36296344 118.78013631 -296.26142936 114.00614198 -290.88673782 109.4330101 C-289.87729274 108.55578611 -288.86815472 107.67820858 -287.85939407 106.8001976 C-262.36363729 84.96624749 -234.5678065 66.10887991 -204.88673782 50.4330101 C-203.55980911 49.73159897 -203.55980911 49.73159897 -202.20607376 49.01601791 C-159.23949766 26.5012352 -112.80674626 11.7146957 -64.88673782 4.4330101 C-63.64810989 4.23546127 -62.40948196 4.03791245 -61.13331985 3.83437729 C-40.80406528 0.69811304 -20.55114741 0.03795898 0 0 Z " fill="#1883A9" transform="translate(440.8867378234863,-0.4330101013183594)"/>
<path d="M0 0 C3.73971447 2.17266813 5.81156145 4.3703232 7.625 8.375 C8.54012135 17.0237939 5.62670895 24.42155222 2.75 32.4375 C2.24512824 33.87117445 1.74049251 35.30493204 1.23608398 36.73876953 C-3.16565182 49.15197365 -8.03309476 61.33545627 -13.375 73.375 C-13.84019043 74.42880859 -14.30538086 75.48261719 -14.78466797 76.56835938 C-32.8232583 117.18984244 -56.25507667 155.14336719 -86.26953125 188.05078125 C-88.11477555 190.08773925 -89.9058167 192.15770847 -91.6875 194.25 C-99.00544569 202.61578087 -106.9120443 210.26870894 -115.6171875 217.17578125 C-118.4695064 219.45036417 -121.22993759 221.81369993 -124 224.1875 C-128.83362583 228.24598114 -133.86639917 231.85930946 -139.0625 235.4375 C-151.00714535 243.73933088 -160.37713412 252.2527027 -163.09375 267.16796875 C-164.25600548 276.28844577 -162.87895048 284.62612841 -158.5625 292.8125 C-155.36946274 296.55291508 -152.03256443 298.82247852 -147.375 300.375 C-136.69169685 301.1462207 -127.53151669 300.0419609 -117.375 296.375 C-116.39273438 296.024375 -115.41046875 295.67375 -114.3984375 295.3125 C-92.68329361 286.88398054 -74.03379797 272.23081416 -56.375 257.375 C-55.76817383 256.86678711 -55.16134766 256.35857422 -54.53613281 255.83496094 C-39.21110848 242.87526686 -27.52595047 226.98827688 -19.20043945 208.79174805 C-16.82250049 203.73710179 -14.05717912 200.12673326 -9.359375 197.05859375 C-4.69618647 195.45218038 0.53567156 196.43392433 4.94921875 198.421875 C9.74592902 201.29458133 12.82312767 203.96938301 14.625 209.375 C15.46181271 216.24754697 12.79712552 221.07272038 9.75 227.125 C9.28980469 228.06988281 8.82960938 229.01476562 8.35546875 229.98828125 C6.58589012 233.59411829 4.85565395 237.02901908 2.625 240.375 C10.43992886 243.66549636 18.32974332 243.06523463 26.24609375 240.4140625 C30.24061053 238.66933103 33.36947535 236.23986169 36.625 233.375 C37.46611328 232.69050781 37.46611328 232.69050781 38.32421875 231.9921875 C47.39093645 223.91879318 52.94998108 211.69085224 58.6875 201.1875 C67.45919999 185.21781124 77.74326783 169.58539875 94.625 161.375 C95.60339844 160.87033203 95.60339844 160.87033203 96.6015625 160.35546875 C102.95515066 157.49243211 110.35852372 157.15502213 117.04296875 159.06640625 C119.33661795 160.03664016 121.4581143 161.14824461 123.625 162.375 C124.44871094 162.79910156 125.27242188 163.22320312 126.12109375 163.66015625 C137.35510212 169.79867833 143.55170646 178.65631258 147.37109375 190.734375 C151.86829874 209.21943828 147.39360737 230.66321184 141.625 248.375 C145.08414367 247.23160291 148.54217232 246.08487009 152 244.9375 C152.98484375 244.61201172 153.9696875 244.28652344 154.984375 243.95117188 C155.92539062 243.63857422 156.86640625 243.32597656 157.8359375 243.00390625 C158.70524902 242.71588135 159.57456055 242.42785645 160.47021484 242.13110352 C162.63623922 241.42181418 162.63623922 241.42181418 164.625 240.375 C164.98113105 237.69640746 165.23259291 235.06589184 165.4375 232.375 C167.97311963 205.85035203 180.7471335 187.80732782 199.1875 169.375 C199.71113129 168.85030121 200.23476257 168.32560242 200.77426147 167.78500366 C212.85408892 155.74053965 228.62016532 140.69804771 246.75 140.0625 C255.40663981 140.19043064 263.48034204 144.40824973 269.625 150.375 C276.7997156 159.5031369 277.41630919 169.13840951 276.625 180.375 C274.88272932 194.43391685 266.83203289 206.95789993 257.625 217.375 C256.93792969 218.18195313 256.25085938 218.98890625 255.54296875 219.8203125 C240.31963294 237.32029133 221.7354413 250.09787912 201.625 261.375 C202.14597793 268.52927435 203.81504488 274.68657324 206.1875 281.4375 C206.51685547 282.39849609 206.84621094 283.35949219 207.18554688 284.34960938 C207.99047166 286.69439027 208.80371149 289.03591146 209.625 291.375 C232.4475285 291.375 267.79719318 258.24105828 284.15234375 243.0234375 C294.43547161 232.51179568 299.20618032 218.57846958 303.83618164 204.91308594 C306.01734139 198.5718524 308.18737326 193.6907454 313.125 189 C318.28629468 186.60368461 323.02877818 186.61397533 328.625 187.375 C333.64291684 189.79435276 337.12458655 193.3741731 339.625 198.375 C339.51119109 215.84466842 332.7072161 232.17614229 324.625 247.375 C325.79482422 247.83326172 325.79482422 247.83326172 326.98828125 248.30078125 C329.625 249.375 329.625 249.375 331.8125 250.5625 C337.01911464 252.06663312 342.09082603 251.58354171 346.9921875 249.24609375 C355.9334737 243.56884109 362.38043844 235.89305428 367.9375 227 C368.48873535 226.13874512 369.0399707 225.27749023 369.60791016 224.39013672 C372.36345994 220.06179538 375.0451971 215.69587089 377.66015625 211.28125 C378.1399292 210.47606934 378.61970215 209.67088867 379.11401367 208.84130859 C380.00821828 207.33075334 380.89082083 205.81324058 381.7590332 204.28759766 C385.12982253 198.56840056 389.16001445 193.52999518 395.625 191.375 C401.69129262 190.50838677 405.41842259 192.37551047 410.375 195.609375 C413.86395655 198.34723673 415.12128787 200.15028498 416.625 204.375 C416.625 211.46188909 414.46104593 218.13736528 412.5625 224.921875 C409.79018462 235.13323664 408.80218667 246.61570433 413.625 256.375 C419.41843168 265.05820096 427.52725672 269.91891363 437.66796875 272.0390625 C473.01639313 278.10685591 509.79717686 267.51034187 542.97631836 256.01953125 C543.65133392 255.7858786 544.32634949 255.55222595 545.02182007 255.31149292 C546.85103183 254.67512467 548.67768831 254.03142477 550.50415039 253.38720703 C553.21377693 252.50837486 555.82181371 251.85768524 558.625 251.375 C558.34550341 255.56340467 558.04923359 259.7504628 557.75 263.9375 C557.63205078 265.70963867 557.63205078 265.70963867 557.51171875 267.51757812 C557.27181574 270.811631 556.97225261 274.09066928 556.625 277.375 C556.55966064 278.12120605 556.49432129 278.86741211 556.42700195 279.63623047 C556.12109375 281.46484375 556.12109375 281.46484375 554.625 284.375 C551.7955586 286.2798318 548.78483259 287.30303229 545.5625 288.375 C544.16813721 288.8685498 544.16813721 288.8685498 542.74560547 289.37207031 C501.10328315 303.77530101 446.14187781 315.93211379 404.3125 295.6875 C391.15982836 288.96708787 382.20510864 279.0004593 376.625 265.375 C375.46097656 266.69951172 375.46097656 266.69951172 374.2734375 268.05078125 C362.10193468 281.6691393 346.68125642 297.1141406 327.44140625 298.625 C315.67424669 299.03032735 307.46111392 296.07827881 298.625 288.375 C296.55413889 286.42803656 294.58662704 284.43470839 292.625 282.375 C288.89991532 283.74040465 285.75730774 285.44158861 282.44140625 287.61328125 C281.44246338 288.26216309 280.44352051 288.91104492 279.41430664 289.57958984 C278.34946045 290.2752002 277.28461426 290.97081055 276.1875 291.6875 C261.21117728 301.36826122 245.92592186 310.45963736 230.375 319.1875 C229.61775635 319.61466309 228.8605127 320.04182617 228.08032227 320.48193359 C222.86466181 323.375 222.86466181 323.375 220.625 323.375 C220.76075439 323.97747559 220.89650879 324.57995117 221.03637695 325.20068359 C227.99079387 356.21449887 234.1797912 385.73915814 217.73828125 415.13671875 C214.00893996 420.85136557 209.46395196 425.59111435 204.625 430.375 C203.89410156 431.11621094 203.16320312 431.85742188 202.41015625 432.62109375 C192.2785245 442.29991514 179.95641995 447.695826 166.625 451.375 C165.74972656 451.62121094 164.87445313 451.86742187 163.97265625 452.12109375 C140.16002895 457.575803 113.67022482 451.79654823 93.171875 439.08203125 C83.90107835 432.86832245 76.82855134 424.86340692 74.05859375 413.80078125 C71.55100225 399.77182342 77.33747269 386.13933291 84.625 374.375 C87.36233095 370.73178974 90.37958383 367.5655022 93.625 364.375 C94.31464844 363.61574219 95.00429688 362.85648438 95.71484375 362.07421875 C117.89101721 338.26113969 149.83053526 322.58119551 178.625 308.375 C178.2693396 307.24856079 178.2693396 307.24856079 177.90649414 306.09936523 C176.82787428 302.67215041 175.75762173 299.24237733 174.6875 295.8125 C174.12772461 294.04036133 174.12772461 294.04036133 173.55664062 292.23242188 C171.81094678 286.61789301 170.16764372 281.24072021 169.625 275.375 C168.7278125 275.70113281 167.830625 276.02726562 166.90625 276.36328125 C152.0626299 281.62115157 127.87943633 289.37860913 112.625 282.375 C108.80567506 279.98884535 106.2440184 277.58612295 104.1875 273.5625 C102.82419087 265.8370816 103.88624482 259.16359713 106.03125 251.6953125 C106.53262435 249.86069683 107.03392412 248.02606078 107.53515625 246.19140625 C108.3278367 243.3447177 109.12517134 240.49939084 109.92529297 237.65478516 C114.69362313 223.21509881 114.69362313 223.21509881 114.625 208.375 C112.6148567 205.76576377 111.91494835 205.42233851 108.5625 204.875 C98.80900431 206.11353914 91.64240584 211.86120224 85.625 219.375 C82.32414728 224.19036161 79.49657332 229.2974003 76.625 234.375 C71.27956579 243.71558947 65.76884099 252.26085803 58.625 260.375 C57.85542969 261.28894531 57.08585937 262.20289063 56.29296875 263.14453125 C46.78921298 274.1222136 36.28816336 282.21535805 22.625 287.375 C21.52671875 287.79072266 21.52671875 287.79072266 20.40625 288.21484375 C8.50837052 291.71556598 -7.0344611 288.73988368 -18.375 284.375 C-20.72821444 282.91228768 -22.73496552 281.42919294 -24.76171875 279.546875 C-26.58205274 277.98319622 -26.58205274 277.98319622 -30.375 278.375 C-32.31263265 280.09367417 -34.00995393 281.78637604 -35.75 283.6875 C-41.61165172 289.81579726 -47.92127571 294.97621778 -54.6796875 300.07666016 C-56.25789797 301.28531846 -57.80243086 302.53760487 -59.34375 303.79296875 C-84.91645274 324.41937241 -115.81548126 340.04492052 -149.375 337.375 C-166.23078427 334.41636184 -179.38521078 325.4761706 -189.75 312 C-198.49137962 299.31783448 -200.56212518 286.41318412 -201.375 271.375 C-202.4990625 271.92285156 -203.623125 272.47070312 -204.78125 273.03515625 C-237.33450795 288.53129588 -271.97725783 299.7693913 -306.375 310.375 C-307.35132889 310.67632339 -307.35132889 310.67632339 -308.34738159 310.98373413 C-312.15582252 312.12104868 -315.39372206 312.56920868 -319.375 312.375 C-321.2806068 307.27128786 -322.18341882 302.23277241 -323 296.875 C-323.20109375 295.63169922 -323.20109375 295.63169922 -323.40625 294.36328125 C-324.08783783 289.9886002 -324.53368681 285.8182308 -324.375 281.375 C-316.9051675 277.74511514 -309.19552752 275.39433808 -301.25564575 273.05935669 C-267.74312038 263.16588002 -234.9884136 251.32103939 -203.375 236.375 C-202.43116455 235.93019287 -201.4873291 235.48538574 -200.51489258 235.02709961 C-192.96323976 231.37384002 -188.25557822 228.54193859 -185.3125 220.375 C-184.92819824 219.37098145 -184.92819824 219.37098145 -184.53613281 218.34667969 C-183.07527852 214.47992918 -181.8159501 210.58365102 -180.625 206.625 C-177.70815711 197.68398365 -172.90905303 189.57440431 -168.375 181.375 C-167.87258789 180.46218262 -167.37017578 179.54936523 -166.85253906 178.60888672 C-156.21260861 159.3393812 -144.84869449 140.51639073 -132.375 122.375 C-131.92334473 121.71612793 -131.47168945 121.05725586 -131.00634766 120.37841797 C-120.53204005 105.15709814 -109.24795515 90.53200718 -97.375 76.375 C-96.9404248 75.85550781 -96.50584961 75.33601563 -96.05810547 74.80078125 C-84.81213313 61.39467598 -72.84864651 48.76892308 -60.5 36.375 C-59.18044312 35.04843384 -59.18044312 35.04843384 -57.83422852 33.69506836 C-52.84111009 28.71425175 -47.73989409 23.95102239 -42.375 19.375 C-41.22169674 18.36698216 -40.06932273 17.35789997 -38.91796875 16.34765625 C-13.24284925 -5.98785491 -13.24284925 -5.98785491 0 0 Z " fill="#FCFEFE" transform="translate(327.375,215.625)"/>
<path d="M0 0 C11.40400945 37.12832083 11.40400945 37.12832083 4.2578125 53.64453125 C2.20769106 57.48373383 -0.06963624 60.78140374 -3 64 C-3.54011719 64.59425781 -4.08023438 65.18851563 -4.63671875 65.80078125 C-16.53321891 77.43922284 -37.09438006 82.96167787 -53.3125 83.25 C-60.26467005 83.15541265 -65.48083757 81.90222469 -71.0625 77.6875 C-74.67515614 72.61467623 -73.76151586 65.84869144 -73 60 C-70.64450266 51.17228748 -65.73753669 43.99645251 -60 37 C-59.49082031 36.37609375 -58.98164063 35.7521875 -58.45703125 35.109375 C-45.60314938 20.96680061 -24.87510529 12.19004263 -8.3125 3.25 C-7.38630859 2.74702393 -7.38630859 2.74702393 -6.44140625 2.23388672 C-2.24097667 0 -2.24097667 0 0 0 Z " fill="#1A83A9" transform="translate(519,554)"/>
<path d="M0 0 C5.05787489 2.98019766 8.48987104 6.32247918 11.0390625 11.67578125 C13.10315812 20.96421153 11.95856479 28.68700815 7.1640625 36.80078125 C2.88284452 40.85667197 -1.97385748 42.73680511 -7.7734375 43.55078125 C-13.52574785 42.71408156 -18.17509255 40.54672561 -22.0859375 36.17578125 C-26.65162378 29.46153673 -26.8949488 22.99172493 -26.2109375 15.05078125 C-24.98119183 9.83396954 -21.96146978 5.80131353 -18.2109375 2.05078125 C-12.4735451 -1.25925283 -6.24939112 -2.68304248 0 0 Z " fill="#1D84A8" transform="translate(698.2109375,538.94921875)"/>
<path d="M0 0 C23.47884187 0 23.47884187 0 29.05859375 4.75390625 C29.74115234 5.64916016 29.74115234 5.64916016 30.4375 6.5625 C30.91058594 7.16191406 31.38367188 7.76132812 31.87109375 8.37890625 C35.55689459 13.67166525 34.45384128 20.8124175 34 27 C32.42865627 32.96212706 29.04858133 36.63427911 24 40 C17 42 17 42 0 42 C0 28.14 0 14.28 0 0 Z " fill="#1F84A9" transform="translate(591,539)"/>
<path d="M0 0 C1.98 0 3.96 0 6 0 C6.33 8.58 6.66 17.16 7 26 C11.20018699 21.29614964 11.20018699 21.29614964 13.6875 16.25 C15 13 15 13 17 11 C18.9453125 11.2421875 18.9453125 11.2421875 21.125 11.875 C21.84945312 12.07867188 22.57390625 12.28234375 23.3203125 12.4921875 C23.87460937 12.65976562 24.42890625 12.82734375 25 13 C25 12.34 25 11.68 25 11 C28.3 11.33 31.6 11.66 35 12 C35.04898438 13.45792969 35.09796875 14.91585937 35.1484375 16.41796875 C35.22348903 18.3411642 35.29903583 20.26434038 35.375 22.1875 C35.4059375 23.14720703 35.436875 24.10691406 35.46875 25.09570312 C35.52675781 26.49272461 35.52675781 26.49272461 35.5859375 27.91796875 C35.6173584 28.77156982 35.6487793 29.6251709 35.68115234 30.50463867 C36.0407347 33.31879734 36.70291676 35.47636895 38 38 C40.8596006 39.17110449 40.8596006 39.17110449 44 39 C46.24408162 37.89981461 46.24408162 37.89981461 48 36 C48.63970595 33.59761148 48.63970595 33.59761148 48.609375 30.89453125 C48.64160156 29.91162109 48.67382812 28.92871094 48.70703125 27.91601562 C48.72121094 26.89185547 48.73539063 25.86769531 48.75 24.8125 C48.77964844 23.77673828 48.80929687 22.74097656 48.83984375 21.67382812 C48.91057245 19.11580688 48.96325257 16.55869842 49 14 C50.98 14 52.96 14 55 14 C55 23.9 55 33.8 55 44 C53.35 44 51.7 44 50 44 C49.67 43.01 49.34 42.02 49 41 C48.505 41.474375 48.01 41.94875 47.5 42.4375 C44.10756308 44.55777307 40.98055731 45.04757638 37 45 C35.3207762 44.36562656 33.64991582 43.70710678 32 43 C31.01 43.66 30.02 44.32 29 45 C26.30078125 45.1953125 26.30078125 45.1953125 23.3125 45.125 C22.31863281 45.10695313 21.32476563 45.08890625 20.30078125 45.0703125 C19.16189453 45.03550781 19.16189453 45.03550781 18 45 C17.74476563 44.27425781 17.48953125 43.54851563 17.2265625 42.80078125 C15.93198926 39.8447016 14.39544896 37.69435334 12.375 35.1875 C11.74335937 34.39730469 11.11171875 33.60710938 10.4609375 32.79296875 C9.97882812 32.20128906 9.49671875 31.60960937 9 31 C8.34 31.33 7.68 31.66 7 32 C6.53101037 34.8159849 6.53101037 34.8159849 6.375 38.0625 C6.30023437 39.16722656 6.22546875 40.27195312 6.1484375 41.41015625 C6.09945312 42.26480469 6.05046875 43.11945312 6 44 C4.02 44 2.04 44 0 44 C0 29.48 0 14.96 0 0 Z " fill="#2486A8" transform="translate(716,537)"/>
<path d="M0 0 C0.495 0.99 0.495 0.99 1 2 C-0.05620702 4.42139401 -1.18090789 6.68247705 -2.4375 9 C-2.83364502 9.73694092 -3.22979004 10.47388184 -3.63793945 11.2331543 C-16.47608278 34.69547489 -31.34309324 57.07937991 -48 78 C-48.73476562 78.928125 -49.46953125 79.85625 -50.2265625 80.8125 C-55.06627789 86.83221667 -60.17172758 92.54819687 -65.42578125 98.203125 C-67.60899963 100.57518018 -69.72290748 102.9834973 -71.8125 105.4375 C-74.62326795 108.6895721 -77.61341571 111.35681226 -81 114 C-65.75335657 71.68628171 -30.17579983 32.4330447 0 0 Z " fill="#1F84A7" transform="translate(273,292)"/>
<path d="M0 0 C4.00521387 2.88747977 7.46370991 6.48991981 9.6875 10.9375 C10.18928565 17.38351568 10.64979274 23.52236659 6.6875 28.9375 C2.5324084 33.0925916 -1.62240159 36.21801457 -7.625 36.25 C-12.8903738 36.09462831 -17.15719108 35.03929109 -21.04296875 31.25 C-26.0985127 25.48595939 -26.66631678 21.85590358 -26.58984375 14.140625 C-26.09898725 8.4715781 -23.27465486 5.68122543 -19.1875 2.125 C-13.43315849 -2.25330332 -6.82195302 -2.18817361 0 0 Z " fill="#F8FDFD" transform="translate(355.3125,359.0625)"/>
<path d="M0 0 C23.47884187 0 23.47884187 0 29.05859375 4.75390625 C29.74115234 5.64916016 29.74115234 5.64916016 30.4375 6.5625 C30.91058594 7.16191406 31.38367188 7.76132812 31.87109375 8.37890625 C35.55689459 13.67166525 34.45384128 20.8124175 34 27 C32.42865627 32.96212706 29.04858133 36.63427911 24 40 C17 42 17 42 0 42 C0 28.14 0 14.28 0 0 Z M6 4 C6 15.22 6 26.44 6 38 C16.57355451 38.0009501 16.57355451 38.0009501 24.875 32.5 C28.15546113 28.64063397 28.18247665 25.54295031 28.25 20.625 C28.27578125 19.50351562 28.3015625 18.38203125 28.328125 17.2265625 C27.89800708 12.99706967 26.26031644 10.54675199 23.625 7.3125 C17.9965286 2.76642694 13.34156996 4 6 4 Z " fill="#E7F9FB" transform="translate(591,539)"/>
<path d="M0 0 C5.05787489 2.98019766 8.48987104 6.32247918 11.0390625 11.67578125 C13.10315812 20.96421153 11.95856479 28.68700815 7.1640625 36.80078125 C2.88284452 40.85667197 -1.97385748 42.73680511 -7.7734375 43.55078125 C-13.52574785 42.71408156 -18.17509255 40.54672561 -22.0859375 36.17578125 C-26.65162378 29.46153673 -26.8949488 22.99172493 -26.2109375 15.05078125 C-24.98119183 9.83396954 -21.96146978 5.80131353 -18.2109375 2.05078125 C-12.4735451 -1.25925283 -6.24939112 -2.68304248 0 0 Z M-16.2109375 7.05078125 C-20.8318125 13.07603983 -21.06886793 19.71185826 -20.2109375 27.05078125 C-18.71533454 31.23846954 -16.86070443 34.4575258 -13.2109375 37.05078125 C-8.59888573 38.41503321 -5.31127721 38.54904829 -0.8984375 36.55078125 C3.2413222 32.69984199 5.46834159 29.7354675 6.13671875 24.140625 C6.34037964 16.99478422 5.56312197 12.25828751 0.7890625 6.73828125 C-4.25752745 2.48022098 -11.3171185 2.81828914 -16.2109375 7.05078125 Z " fill="#F0FBFD" transform="translate(698.2109375,538.94921875)"/>
<path d="M0 0 C1.98 0 3.96 0 6 0 C6.33 8.58 6.66 17.16 7 26 C8.464375 24.205625 9.92875 22.41125 11.4375 20.5625 C15.875 15.125 15.875 15.125 17 14 C19.33297433 13.95907063 21.66705225 13.95758277 24 14 C23.61328125 14.44730469 23.2265625 14.89460937 22.828125 15.35546875 C19.81609925 18.8521026 16.85678969 22.37407463 14 26 C14.54527344 26.81791016 14.54527344 26.81791016 15.1015625 27.65234375 C20.55078125 35.82617188 20.55078125 35.82617188 26 44 C22.83984375 44.40625 22.83984375 44.40625 19 44 C16.71581296 42.1626391 15.19342501 39.91748823 13.5625 37.5 C12.89444336 36.56994141 12.89444336 36.56994141 12.21289062 35.62109375 C11.12132977 34.09525599 10.05779082 32.54944007 9 31 C8.34 31.33 7.68 31.66 7 32 C6.53101037 34.8159849 6.53101037 34.8159849 6.375 38.0625 C6.30023437 39.16722656 6.22546875 40.27195312 6.1484375 41.41015625 C6.09945312 42.26480469 6.05046875 43.11945312 6 44 C4.02 44 2.04 44 0 44 C0 29.48 0 14.96 0 0 Z " fill="#EDFBFC" transform="translate(716,537)"/>
<path d="M0 0 C1.98 0 3.96 0 6 0 C6.0093457 0.61520508 6.01869141 1.23041016 6.02832031 1.86425781 C6.08211085 4.66031086 6.16573819 7.4547062 6.25 10.25 C6.26417969 11.21808594 6.27835938 12.18617188 6.29296875 13.18359375 C6.42306364 18.77585015 6.42306364 18.77585015 8.8515625 23.67578125 C11.02292512 25.28174767 11.02292512 25.28174767 14.125 24.9375 C17.29174932 24.23305313 17.29174932 24.23305313 19 21 C19.36576054 18.68076726 19.36576054 18.68076726 19.4140625 16.11328125 C19.45273437 15.17548828 19.49140625 14.23769531 19.53125 13.27148438 C19.57765625 11.80678711 19.57765625 11.80678711 19.625 10.3125 C19.66367187 9.32443359 19.70234375 8.33636719 19.7421875 7.31835938 C19.83645867 4.87909293 19.92206218 2.43983405 20 0 C21.98 0 23.96 0 26 0 C26 9.9 26 19.8 26 30 C24.35 30 22.7 30 21 30 C21 28.68 21 27.36 21 26 C20.34 26 19.68 26 19 26 C18.67 26.99 18.34 27.98 18 29 C14.28289437 30.85855282 10.04722719 30.57908439 6 30 C2.65374976 27.47323961 1.32022153 25.96066458 0 22 C-0.08178114 20.29983156 -0.10749501 18.59663703 -0.09765625 16.89453125 C-0.09443359 15.91162109 -0.09121094 14.92871094 -0.08789062 13.91601562 C-0.07951172 12.89185547 -0.07113281 11.86769531 -0.0625 10.8125 C-0.05798828 9.77673828 -0.05347656 8.74097656 -0.04882812 7.67382812 C-0.0370401 5.11582734 -0.02058515 2.55794267 0 0 Z " fill="#EBF9FC" transform="translate(794,551)"/>
<path d="M0 0 C1.65 0 3.3 0 5 0 C5.04898438 1.31355469 5.09796875 2.62710938 5.1484375 3.98046875 C5.22349468 5.71616595 5.29904123 7.45184203 5.375 9.1875 C5.4059375 10.05181641 5.436875 10.91613281 5.46875 11.80664062 C5.70476265 18.15335657 5.70476265 18.15335657 8 24 C10.8596006 25.17110449 10.8596006 25.17110449 14 25 C16.24408162 23.89981461 16.24408162 23.89981461 18 22 C18.63970595 19.59761148 18.63970595 19.59761148 18.609375 16.89453125 C18.64160156 15.91162109 18.67382812 14.92871094 18.70703125 13.91601562 C18.72830078 12.37977539 18.72830078 12.37977539 18.75 10.8125 C18.77964844 9.77673828 18.80929687 8.74097656 18.83984375 7.67382812 C18.91057245 5.11580688 18.96325257 2.55869842 19 0 C20.98 0 22.96 0 25 0 C25 9.9 25 19.8 25 30 C23.35 30 21.7 30 20 30 C19.67 29.01 19.34 28.02 19 27 C18.505 27.474375 18.01 27.94875 17.5 28.4375 C14.09070888 30.56830695 11.02963599 31.40992458 7 31 C3.91901204 29.32367752 1.58849682 27.17699364 0 24 C-0.08471364 22.18658158 -0.10721083 20.37005839 -0.09765625 18.5546875 C-0.09443359 17.47832031 -0.09121094 16.40195312 -0.08789062 15.29296875 C-0.07951172 14.16503906 -0.07113281 13.03710938 -0.0625 11.875 C-0.05798828 10.73933594 -0.05347656 9.60367188 -0.04882812 8.43359375 C-0.03701615 5.62234362 -0.02054507 2.8111977 0 0 Z " fill="#DFF6F9" transform="translate(746,551)"/>
<path d="M0 0 C-1.44393008 4.48678837 -3.72852975 7.20885089 -6.9375 10.625 C-7.42476562 11.14425049 -7.91203125 11.66350098 -8.4140625 12.19848633 C-9.93329187 13.80827388 -11.46471366 15.4055314 -13 17 C-13.46680176 17.48871582 -13.93360352 17.97743164 -14.41455078 18.48095703 C-20.87957228 25.22235992 -27.652727 31.24439929 -35 37 C-35.66 36.67 -36.32 36.34 -37 36 C-30.97747608 24.72955331 -14.90264581 0 0 0 Z " fill="#2884A6" transform="translate(569,396)"/>
<path d="M0 0 C1.98 0 3.96 0 6 0 C6 14.52 6 29.04 6 44 C4.02 44 2.04 44 0 44 C0 29.48 0 14.96 0 0 Z " fill="#CDEBF2" transform="translate(780,537)"/>
<path d="M0 0 C6.27 0 12.54 0 19 0 C19 0.33 19 0.66 19 1 C14.28006065 2.76997725 9.97010539 3.43008089 5 4 C4.97534608 8.53897705 4.95716211 13.07791543 4.94506836 17.61694336 C4.9400286 19.16219766 4.9331968 20.70744716 4.92456055 22.25268555 C4.91247924 24.46925029 4.90676827 26.68575218 4.90234375 28.90234375 C4.89718246 29.5971434 4.89202118 30.29194305 4.88670349 31.00779724 C4.88650723 32.6722933 4.93810871 34.33665499 5 36 C6.87824891 37.87824891 10.03935276 37.39102397 12.5625 37.5625 C13.76003906 37.64628906 14.95757813 37.73007812 16.19140625 37.81640625 C17.58166016 37.90728516 17.58166016 37.90728516 19 38 C18.34 39.32 17.68 40.64 17 42 C11.39 42 5.78 42 0 42 C0 28.14 0 14.28 0 0 Z " fill="#EFFEFE" transform="translate(591,539)"/>
<path d="M0 0 C1.98 0 3.96 0 6 0 C6 14.52 6 29.04 6 44 C4.02 44 2.04 44 0 44 C0 29.48 0 14.96 0 0 Z " fill="#F9FEFE" transform="translate(646,537)"/>
<path d="M0 0 C1.98 0 3.96 0 6 0 C6 9.9 6 19.8 6 30 C4.02 30 2.04 30 0 30 C0 20.1 0 10.2 0 0 Z " fill="#CAEAF1" transform="translate(632,551)"/>
<path d="M0 0 C0.33 0.66 0.66 1.32 1 2 C-0.27651055 4.73924147 -1.61128208 7.35502464 -3.0625 10 C-3.4742749 10.76368896 -3.8860498 11.52737793 -4.31030273 12.31420898 C-7.38153109 17.97223914 -10.58142276 23.5436826 -14 29 C-14.33 28.34 -14.66 27.68 -15 27 C-15.66 26.67 -16.32 26.34 -17 26 C-16.67 25.34 -16.34 24.68 -16 24 C-19.465 26.475 -19.465 26.475 -23 29 C-23.66 28.67 -24.32 28.34 -25 28 C-24.35933594 27.29875 -23.71867188 26.5975 -23.05859375 25.875 C-18.57195441 20.95373837 -14.10753008 16.01838782 -9.73828125 10.9921875 C-6.51987371 7.30367549 -3.25690811 3.65450469 0 0 Z " fill="#2986A6" transform="translate(273,292)"/>
<path d="M0 0 C1.65 0 3.3 0 5 0 C5 8.91 5 17.82 5 27 C2 27 2 27 0.31713867 25.84643555 C-1.52118639 23.269373 -1.25668608 21.59215176 -1.07421875 18.45703125 C-1.01943359 17.38388672 -0.96464844 16.31074219 -0.90820312 15.20507812 C-0.83537109 14.08552734 -0.76253906 12.96597656 -0.6875 11.8125 C-0.62626953 10.68134766 -0.56503906 9.55019531 -0.50195312 8.38476562 C-0.34858501 5.58874697 -0.18072046 2.79436237 0 0 Z " fill="#F6FEFE" transform="translate(814,551)"/>
<path d="M0 0 C0.66 0 1.32 0 2 0 C2 9.9 2 19.8 2 30 C0.35 30 -1.3 30 -3 30 C-3 28.35 -3 26.7 -3 25 C-3.66 24.67 -4.32 24.34 -5 24 C-4.34 24 -3.68 24 -3 24 C-2.98018066 23.34402832 -2.96036133 22.68805664 -2.93994141 22.01220703 C-2.84487493 19.04938931 -2.73512248 16.08729468 -2.625 13.125 C-2.5940625 12.09246094 -2.563125 11.05992187 -2.53125 9.99609375 C-2.49257813 9.00996094 -2.45390625 8.02382813 -2.4140625 7.0078125 C-2.3826416 6.09660645 -2.3512207 5.18540039 -2.31884766 4.24658203 C-2 2 -2 2 0 0 Z " fill="#F6FEFD" transform="translate(769,551)"/>
<path d="M0 0 C0.99 0.33 1.98 0.66 3 1 C3 14.2 3 27.4 3 41 C2.01 41 1.02 41 0 41 C0 27.47 0 13.94 0 0 Z " fill="#FBFEFE" transform="translate(781,538)"/>
<path d="M0 0 C1.65 0 3.3 0 5 0 C5.33 8.25 5.66 16.5 6 25 C5.01 25.33 4.02 25.66 3 26 C-0.47159188 20.51470259 -0.36163875 15.88506464 -0.1875 9.625 C-0.17396484 8.69816406 -0.16042969 7.77132812 -0.14648438 6.81640625 C-0.11133881 4.54366002 -0.06214132 2.27214153 0 0 Z " fill="#F2FEFE" transform="translate(746,551)"/>
<path d="M0 0 C5.4991036 5.4991036 5.34282903 18.22196763 5.4375 25.75 C5.41042382 33.23148783 4.52041957 41.47958043 -1 47 C-0.09383562 40.39794521 -0.09383562 40.39794521 0.53515625 37.73046875 C1.12235274 34.28130616 1.05594844 30.99677734 1 27.5 C0.93000946 23.12559128 1.10212339 19.26859371 2 15 C1.87329304 10.66226037 1.87329304 10.66226037 0 7 C-0.04092937 4.66702567 -0.04241723 2.33294775 0 0 Z " fill="#2985AA" transform="translate(521,565)"/>
<path d="M0 0 C1.98 0 3.96 0 6 0 C6 7.92 6 15.84 6 24 C5.67 24 5.34 24 5 24 C4.67 17.07 4.34 10.14 4 3 C3.34 2.67 2.68 2.34 2 2 C2.00523682 3.09465576 2.01047363 4.18931152 2.01586914 5.31713867 C2.03400733 9.38923318 2.04546423 13.46132413 2.05493164 17.53344727 C2.0599517 19.29387005 2.0667691 21.05428868 2.07543945 22.81469727 C2.08760703 25.34913154 2.09325166 27.88351054 2.09765625 30.41796875 C2.10281754 31.20149216 2.10797882 31.98501556 2.11329651 32.7922821 C2.11369066 36.65591139 1.9444276 40.245165 1 44 C0.67 44 0.34 44 0 44 C0 29.48 0 14.96 0 0 Z " fill="#C8E7EF" transform="translate(716,537)"/>
<path d="M0 0 C0.66 0 1.32 0 2 0 C1.96519531 0.94101562 1.93039062 1.88203125 1.89453125 2.8515625 C1.85392578 4.71941406 1.85392578 4.71941406 1.8125 6.625 C1.76029297 8.46964844 1.76029297 8.46964844 1.70703125 10.3515625 C2.07766127 14.96714167 3.4889688 18.23713026 6.5 21.75 C8.19087185 23.20418849 8.19087185 23.20418849 11 25 C10.01 25 9.02 25 8 25 C9.97420135 27.52259061 10.96745642 27.9929808 14.1875 28.6875 C15.115625 28.790625 16.04375 28.89375 17 29 C17 29.33 17 29.66 17 30 C11.03763389 30.49686384 6.97022444 29.38642126 2 26 C-1.47892679 22.86467091 -3.57985153 19.76168266 -4 15 C-3.01 15.495 -3.01 15.495 -2 16 C-2 16.66 -2 17.32 -2 18 C-1.34 18 -0.68 18 0 18 C0 12.06 0 6.12 0 0 Z " fill="#E9FAFC" transform="translate(677,552)"/>
<path d="M0 0 C1.98 0 3.96 0 6 0 C6 14.52 6 29.04 6 44 C4.02 44 2.04 44 0 44 C0 29.48 0 14.96 0 0 Z M3 1 C1.05075293 5.87649008 0.73396333 10.27792544 0.8046875 15.4609375 C0.8075174 16.25150543 0.81034729 17.04207336 0.81326294 17.8565979 C0.82439045 20.36289084 0.84948074 22.86881645 0.875 25.375 C0.88503942 27.08202606 0.89416359 28.78905777 0.90234375 30.49609375 C0.92430537 34.6642024 0.95878329 38.83203908 1 43 C2.32 43 3.64 43 5 43 C5 29.14 5 15.28 5 1 C4.34 1 3.68 1 3 1 Z " fill="#C1E3EC" transform="translate(646,537)"/>
<path d="M0 0 C0 0.33 0 0.66 0 1 C-1.2065625 1.185625 -1.2065625 1.185625 -2.4375 1.375 C-3.283125 1.58125 -4.12875 1.7875 -5 2 C-5.33 2.66 -5.66 3.32 -6 4 C-4.68 4.33 -3.36 4.66 -2 5 C-2.61488281 5.13277344 -3.22976563 5.26554688 -3.86328125 5.40234375 C-5.07564453 5.66724609 -5.07564453 5.66724609 -6.3125 5.9375 C-7.11300781 6.11152344 -7.91351562 6.28554688 -8.73828125 6.46484375 C-11.145401 6.99886159 -11.145401 6.99886159 -14 8 C-15.21869929 10.50447516 -15.21869929 10.50447516 -16 13 C-16.99 12.67 -17.98 12.34 -19 12 C-19 11.34 -19 10.68 -19 10 C-19.66 9.67 -20.32 9.34 -21 9 C-15.31918097 1.2534286 -9.42658796 -0.57713804 0 0 Z " fill="#E0F5F9" transform="translate(696,538)"/>
<path d="M0 0 C1.4540625 0.0309375 1.4540625 0.0309375 2.9375 0.0625 C2.6075 1.0525 2.2775 2.0425 1.9375 3.0625 C-2.3525 3.0625 -6.6425 3.0625 -11.0625 3.0625 C-11.0625 13.9525 -11.0625 24.8425 -11.0625 36.0625 C-11.7225 35.7325 -12.3825 35.4025 -13.0625 35.0625 C-13.08715392 30.52352295 -13.10533789 25.98458457 -13.11743164 21.44555664 C-13.1224714 19.90030234 -13.1293032 18.35505284 -13.13793945 16.80981445 C-13.15002076 14.59324971 -13.15573173 12.37674782 -13.16015625 10.16015625 C-13.16531754 9.4653566 -13.17047882 8.77055695 -13.17579651 8.05470276 C-13.17599277 6.3902067 -13.12439129 4.72584501 -13.0625 3.0625 C-11.25058118 1.25058118 -8.33898701 1.5901487 -5.875 1.34375 C-2.99924937 0.89751283 -3.39846482 0.06935642 0 0 Z " fill="#CAEAF0" transform="translate(608.0625,539.9375)"/>
<path d="M0 0 C0 3 0 3 -1.71484375 4.71875 C-2.81505859 5.60046875 -2.81505859 5.60046875 -3.9375 6.5 C-7.28891586 9.14012046 -7.28891586 9.14012046 -9 13 C-10.70477318 13.98352299 -12.4130323 14.96221892 -14.1484375 15.890625 C-17.48410428 17.88921016 -20.25756799 20.51513598 -22 24 C-24 24.66666667 -26 25.33333333 -28 26 C-28.33 26.66 -28.66 27.32 -29 28 C-30.33333333 28.33333333 -31.66666667 28.66666667 -33 29 C-33.33 29.66 -33.66 30.32 -34 31 C-37.0625 31.625 -37.0625 31.625 -40 32 C-37.51053498 29.26827161 -34.72736471 27.42950093 -31.625 25.4375 C-20.20819702 17.899659 -9.92363805 9.40510561 0 0 Z " fill="#3387A5" transform="translate(578,440)"/>
<path d="M0 0 C0.99 0 1.98 0 3 0 C3 8.91 3 17.82 3 27 C2.01 27 1.02 27 0 27 C0 18.09 0 9.18 0 0 Z " fill="#FAFEFD" transform="translate(633,552)"/>
<path d="M0 0 C0 10.23 0 20.46 0 31 C-0.66 31.33 -1.32 31.66 -2 32 C-2 22.1 -2 12.2 -2 2 C-3.98 2 -5.96 2 -8 2 C-8 1.67 -8 1.34 -8 1 C-2.25 0 -2.25 0 0 0 Z " fill="#458EA8" transform="translate(773,549)"/>
<path d="M0 0 C0.06058594 1.00160156 0.12117188 2.00320313 0.18359375 3.03515625 C0.26808405 4.37761331 0.35272768 5.72006072 0.4375 7.0625 C0.51871094 8.37347656 0.59992188 9.68445313 0.68359375 11.03515625 C0.97898249 14.73663238 1.43265388 18.33370448 2 22 C1.34 22.33 0.68 22.66 0 23 C0 21.35 0 19.7 0 18 C-0.66 18 -1.32 18 -2 18 C-2 13.38 -2 8.76 -2 4 C-3.093125 4.515625 -4.18625 5.03125 -5.3125 5.5625 C-9 7 -9 7 -12 6 C-9.63716997 4.42477998 -7.40313552 3.1344033 -4.875 1.875 C-4.17117187 1.52179688 -3.46734375 1.16859375 -2.7421875 0.8046875 C-1 0 -1 0 0 0 Z " fill="#2D84A0" transform="translate(127,486)"/>
<path d="M0 0 C1.61439769 4.03599423 0.27015819 6.98897415 -1 11 C-2.8012377 17.22616503 -3.39947322 23.03489888 -3.625 29.5 C-3.66367187 30.4178125 -3.70234375 31.335625 -3.7421875 32.28125 C-3.83549564 34.52064528 -3.92128185 36.76005254 -4 39 C-7.54971935 33.67542097 -6.67692073 26.98720637 -5.63085938 20.82568359 C-4.1901923 13.75875181 -2.36796632 6.81590305 0 0 Z " fill="#2D829F" transform="translate(743,426)"/>
<path d="M0 0 C0.33 0 0.66 0 1 0 C1 9.9 1 19.8 1 30 C-0.65 30 -2.3 30 -4 30 C-4 28.68 -4 27.36 -4 26 C-4.66 26 -5.32 26 -6 26 C-6.33 26.66 -6.66 27.32 -7 28 C-7.33 26.68 -7.66 25.36 -8 24 C-7.34 23.67 -6.68 23.34 -6 23 C-4.35 23.99 -2.7 24.98 -1 26 C-0.67 17.42 -0.34 8.84 0 0 Z " fill="#CEECF3" transform="translate(819,551)"/>
<path d="M0 0 C0.66 0.66 1.32 1.32 2 2 C-2.03523352 6.81123996 -6.04467233 11.13242719 -11 15 C-9.79930977 11.61623662 -8.27496662 8.43316636 -6.625 5.25 C-6.02558594 4.08210938 -6.02558594 4.08210938 -5.4140625 2.890625 C-4 1 -4 1 -1.9609375 0.109375 C-1.31382812 0.07328125 -0.66671875 0.0371875 0 0 Z " fill="#3187A4" transform="translate(203,391)"/>
<path d="M0 0 C2.475 0.495 2.475 0.495 5 1 C4.01 1.33 3.02 1.66 2 2 C2.01047363 2.59538574 2.02094727 3.19077148 2.03173828 3.80419922 C2.07323949 6.49442343 2.09930704 9.18458037 2.125 11.875 C2.15013672 13.28072266 2.15013672 13.28072266 2.17578125 14.71484375 C2.18222656 15.61074219 2.18867187 16.50664063 2.1953125 17.4296875 C2.20578613 18.25710449 2.21625977 19.08452148 2.22705078 19.93701172 C2 22 2 22 0 24 C0 16.08 0 8.16 0 0 Z " fill="#C3E9F1" transform="translate(765,551)"/>
<path d="M0 0 C1.32 5.28 2.64 10.56 4 16 C1.2574043 13.2574043 0.49792802 12.25588615 -0.6875 8.8125 C-0.93886719 8.09707031 -1.19023437 7.38164062 -1.44921875 6.64453125 C-1.63097656 6.10183594 -1.81273437 5.55914062 -2 5 C-4.64 4.67 -7.28 4.34 -10 4 C-7.25346796 1.25346796 -3.91404908 0 0 0 Z " fill="#3385A3" transform="translate(497,491)"/>
<path d="M0 0 C1 2 1 2 0.8203125 3.94921875 C-0.27406636 6.6851659 -1.60490635 7.33034323 -4.125 8.8125 C-8.72650669 11.69120258 -12.33629637 15.01822563 -16 19 C-16.99 18.34 -17.98 17.68 -19 17 C-18.35933594 16.49210937 -17.71867187 15.98421875 -17.05859375 15.4609375 C-13.00981942 12.23881307 -8.9635971 9.01424006 -5 5.6875 C-4.46375 5.23761719 -3.9275 4.78773438 -3.375 4.32421875 C-1.74364885 2.8478766 -1.74364885 2.8478766 0 0 Z " fill="#E3FBFD" transform="translate(280,464)"/>
<path d="M0 0 C7.26 0 14.52 0 22 0 C19 3 19 3 15.05859375 3.14453125 C13.51713785 3.05026478 11.9766498 2.93895297 10.4375 2.8125 C9.65697266 2.76802734 8.87644531 2.72355469 8.07226562 2.67773438 C2.2723939 2.2723939 2.2723939 2.2723939 0 0 Z " fill="#227EA0" transform="translate(463,669)"/>
<path d="M0 0 C0.7425 0.763125 1.485 1.52625 2.25 2.3125 C4.4263323 4.4393702 6.52167796 6.2559956 9 8 C8.01 8 7.02 8 6 8 C7.97420135 10.52259061 8.96745642 10.9929808 12.1875 11.6875 C13.5796875 11.8421875 13.5796875 11.8421875 15 12 C15 12.33 15 12.66 15 13 C8.92671312 13.50610724 5.22771463 12.04157942 0 9 C0.66 8.67 1.32 8.34 2 8 C2.66 8.33 3.32 8.66 4 9 C3.34 8.2575 2.68 7.515 2 6.75 C0 4 0 4 0 0 Z " fill="#D3EEF5" transform="translate(679,569)"/>
<path d="M0 0 C-1.08268707 3.03152378 -2.00967069 4.00637386 -4.75 5.8125 C-8.05816164 8.03914726 -10.11640867 10.26580271 -12.609375 13.31640625 C-14.28333907 15.34303129 -16.10627828 17.17911373 -18 19 C-18.66 18.67 -19.32 18.34 -20 18 C-4.61818182 0 -4.61818182 0 0 0 Z " fill="#E3FAFC" transform="translate(418,380)"/>
<path d="M0 0 C0.33 0 0.66 0 1 0 C2.87443946 12.28609865 2.87443946 12.28609865 0.73046875 16.48828125 C-0.75730969 18.17117817 -2.22275186 19.62971593 -4 21 C-4.66 20.67 -5.32 20.34 -6 20 C-5.2884375 19.1028125 -5.2884375 19.1028125 -4.5625 18.1875 C-1.53559687 13.94983562 -1.65529148 9.52561582 -1.28125 4.49609375 C-1 2 -1 2 0 0 Z " fill="#348AA5" transform="translate(366,369)"/>
<path d="M0 0 C-1.3937282 4.43458973 -3.60582235 6.87378374 -7 10 C-7.66 9.01 -8.32 8.02 -9 7 C-9.66 6.67 -10.32 6.34 -11 6 C-9.54550599 4.9944239 -8.08627557 3.99569565 -6.625 3 C-5.40683594 2.1646875 -5.40683594 2.1646875 -4.1640625 1.3125 C-2 0 -2 0 0 0 Z " fill="#2D83A4" transform="translate(569,396)"/>
<path d="M0 0 C0.33 0.66 0.66 1.32 1 2 C-0.21484375 4.6015625 -0.21484375 4.6015625 -1.9375 7.625 C-2.50339844 8.62789063 -3.06929688 9.63078125 -3.65234375 10.6640625 C-4.09707031 11.43492187 -4.54179687 12.20578125 -5 13 C-6.65 12.67 -8.3 12.34 -10 12 C-3.84965831 3.55353075 -3.84965831 3.55353075 0 0 Z " fill="#3083A2" transform="translate(273,292)"/>
<path d="M0 0 C1.67542976 0.28604898 3.34385343 0.61781233 5 1 C5 2.65 5 4.3 5 6 C2.625 6.625 2.625 6.625 0 7 C-0.66 6.34 -1.32 5.68 -2 5 C-1.46428571 1.46428571 -1.46428571 1.46428571 0 0 Z " fill="#DEF7FB" transform="translate(633,539)"/>
<path d="M0 0 C0.66 0 1.32 0 2 0 C2.33 2.97 2.66 5.94 3 9 C3.66 9 4.32 9 5 9 C5.33 8.34 5.66 7.68 6 7 C8.50390625 6.5859375 8.50390625 6.5859375 11.5625 6.375 C12.57441406 6.30023438 13.58632812 6.22546875 14.62890625 6.1484375 C15.41136719 6.09945313 16.19382812 6.05046875 17 6 C13.93024413 8.04650391 11.30915848 8.99704565 7.8125 10.125 C6.72582031 10.47820312 5.63914062 10.83140625 4.51953125 11.1953125 C3.68808594 11.46085937 2.85664062 11.72640625 2 12 C0.78306124 9.56612247 0.68040104 7.58161154 0.4375 4.875 C0.35371094 3.96492188 0.26992188 3.05484375 0.18359375 2.1171875 C0.12300781 1.41851562 0.06242188 0.71984375 0 0 Z " fill="#2D83A3" transform="translate(1,485)"/>
<path d="M0 0 C1.29893162 3.89679485 0.61411215 5.25819455 -1 9 C-2.5534989 11.14091568 -4.22014004 13.03278636 -6 15 C-6.99 14.67 -7.98 14.34 -9 14 C-6.03 9.38 -3.06 4.76 0 0 Z " fill="#3185A9" transform="translate(400,455)"/>
<path d="M0 0 C0.66 0 1.32 0 2 0 C2.31461385 7.09629025 2.44572039 12.68284595 -1 19 C-1.66 19 -2.32 19 -3 19 C-2.5359375 17.081875 -2.5359375 17.081875 -2.0625 15.125 C-0.93885167 10.11241278 -0.40577419 5.11489044 0 0 Z " fill="#D3F1F7" transform="translate(443,425)"/>
<path d="M0 0 C0.66 0.99 1.32 1.98 2 3 C1.3503125 3.57041016 1.3503125 3.57041016 0.6875 4.15234375 C-2.08047009 7.1830147 -3.64580466 10.86794507 -5.5 14.50390625 C-7 17 -7 17 -10 19 C-8.65610276 14.49558061 -6.84328221 10.7205754 -4.4375 6.6875 C-3.50744141 5.11548828 -3.50744141 5.11548828 -2.55859375 3.51171875 C-1 1 -1 1 0 0 Z " fill="#DDF6FA" transform="translate(509,404)"/>
<path d="M0 0 C1.79240663 0.11389875 3.58394835 0.24147687 5.375 0.375 C6.87160156 0.47941406 6.87160156 0.47941406 8.3984375 0.5859375 C11 1 11 1 13 3 C15.31648799 4.03842565 17.64903024 5.0421975 20 6 C16.92067286 7.53966357 14.89872182 6.21669114 11.6875 5.1875 C10.55699219 4.83042969 9.42648437 4.47335937 8.26171875 4.10546875 C5.46221057 3.1566534 2.72962506 2.13179576 0 1 C0 0.67 0 0.34 0 0 Z " fill="#D9F4F8" transform="translate(733,511)"/>
<path d="M0 0 C2.64 0.66 5.28 1.32 8 2 C8 2.66 8 3.32 8 4 C9.2684375 3.9071875 9.2684375 3.9071875 10.5625 3.8125 C14.73619843 4.04015628 17.25432947 5.20207814 21 7 C15.78648077 8.79903128 11.00472796 6.78379193 6 5 C3.7216371 3.82393077 2.00410206 2.62494762 0 1 C0 0.67 0 0.34 0 0 Z " fill="#DCF8FB" transform="translate(303,495)"/>
<path d="M0 0 C0 0.99 0 1.98 0 3 C-1.97133986 4.37535339 -3.97681922 5.70211044 -6 7 C-7.70328319 8.6292274 -9.38161281 10.28641357 -11 12 C-11.99 11.67 -12.98 11.34 -14 11 C-9.52692892 6.95834187 -5.11723176 3.19826985 0 0 Z " fill="#30869F" transform="translate(475,578)"/>
<path d="M0 0 C0.33 0.99 0.66 1.98 1 3 C0.01 3.33 -0.98 3.66 -2 4 C-2.68620031 5.32338632 -3.34786461 6.65949948 -4 8 C-5.59716811 10.06722076 -7.29136328 12.02157854 -9 14 C-9.99 13.34 -10.98 12.68 -12 12 C-8.04 8.04 -4.08 4.08 0 0 Z " fill="#E4FBFD" transform="translate(277,242)"/>
<path d="M0 0 C0.66 0 1.32 0 2 0 C2.33 1.32 2.66 2.64 3 4 C-0.20336822 6.83374881 -2.78087253 7.5205537 -7 8 C-5.60746468 4.51866169 -4.36823784 3.52113967 -1 2 C-0.67 1.34 -0.34 0.68 0 0 Z " fill="#ECFAFC" transform="translate(616,572)"/>
<path d="M0 0 C0.33 1.32 0.66 2.64 1 4 C2.98 4 4.96 4 7 4 C7 4.66 7 5.32 7 6 C5.63875 5.9690625 5.63875 5.9690625 4.25 5.9375 C1.57327412 5.9889755 -0.46988052 6.2215017 -3 7 C-3.33 5.68 -3.66 4.36 -4 3 C-2.68 2.01 -1.36 1.02 0 0 Z " fill="#2685A4" transform="translate(765,577)"/>
<path d="M0 0 C0.33 0.99 0.66 1.98 1 3 C-7.07744875 10.66742597 -7.07744875 10.66742597 -13 12 C-8.87675353 7.74790208 -4.48717034 3.86364295 0 0 Z " fill="#E2F9FC" transform="translate(547,421)"/>
<path d="M0 0 C0.99 0 1.98 0 3 0 C3 0.66 3 1.32 3 2 C1.35546875 3.55078125 1.35546875 3.55078125 -0.8125 5.3125 C-3.93390392 7.95326296 -6.19011861 10.26711964 -8 14 C-8.99 13.34 -9.98 12.68 -11 12 C-10.54109375 11.55269531 -10.0821875 11.10539062 -9.609375 10.64453125 C-6.7978475 7.87434975 -4.1549804 5.20233552 -1.75 2.0625 C-1.1725 1.381875 -0.595 0.70125 0 0 Z " fill="#E3F7FA" transform="translate(207,390)"/>
<path d="M0 0 C-0.33 0.99 -0.66 1.98 -1 3 C-2.65 3.33 -4.3 3.66 -6 4 C-2.25 0 -2.25 0 0 0 Z M-6 4 C-7.48781815 7.78717347 -9.61988409 9.77407001 -13 12 C-13.99 11.67 -14.98 11.34 -16 11 C-14.71372289 9.82739389 -13.42080217 8.6620717 -12.125 7.5 C-11.04605469 6.52546875 -11.04605469 6.52546875 -9.9453125 5.53125 C-8 4 -8 4 -6 4 Z " fill="#EAFBFD" transform="translate(312,215)"/>
<path d="M0 0 C0.33 0.66 0.66 1.32 1 2 C-5.02 11.46 -5.02 11.46 -9.75 12.75 C-10.86375 12.87375 -10.86375 12.87375 -12 13 C-11.319375 12.34 -10.63875 11.68 -9.9375 11 C-6.43274653 7.50531766 -3.22778212 3.74869221 0 0 Z " fill="#E0F9FC" transform="translate(520,612)"/>
<path d="M0 0 C0.33 0.99 0.66 1.98 1 3 C1.99 3.33 2.98 3.66 4 4 C2.875 5.5625 2.875 5.5625 1 7 C-2.1875 6.6875 -2.1875 6.6875 -5 6 C-4.67 4.68 -4.34 3.36 -4 2 C-2.68 2 -1.36 2 0 2 C0 1.34 0 0.68 0 0 Z " fill="#1A81A3" transform="translate(551,410)"/>
<path d="M0 0 C0.33 1.32 0.66 2.64 1 4 C2.98 4.495 2.98 4.495 5 5 C4.75 6.8125 4.75 6.8125 4 9 C2.68 9.99 1.36 10.98 0 12 C0 8.04 0 4.08 0 0 Z " fill="#2381A0" transform="translate(723,550)"/>
<path d="M0 0 C-4.67049515 2.7376287 -7.98799719 3.33996234 -13.375 3.1875 C-14.62023437 3.16042969 -15.86546875 3.13335937 -17.1484375 3.10546875 C-18.55996094 3.05326172 -18.55996094 3.05326172 -20 3 C-20 2.67 -20 2.34 -20 2 C-17.41842632 1.46867611 -14.83538244 0.94965621 -12.25 0.4375 C-11.52039063 0.28603516 -10.79078125 0.13457031 -10.0390625 -0.02148438 C-6.33442927 -0.74557178 -3.60677678 -1.09817231 0 0 Z " fill="#D2F2F6" transform="translate(832,485)"/>
<path d="M0 0 C0.66 1.32 1.32 2.64 2 4 C0.77065985 7.68802044 -0.93859378 8.72356973 -4 11 C-4.66 10.67 -5.32 10.34 -6 10 C-4.02 6.7 -2.04 3.4 0 0 Z " fill="#3A8AA4" transform="translate(538,422)"/>
<path d="M0 0 C0.33 0.66 0.66 1.32 1 2 C0.34 2 -0.32 2 -1 2 C-1 2.99 -1 3.98 -1 5 C-2.093125 5.12375 -3.18625 5.2475 -4.3125 5.375 C-8.07381802 5.75464801 -8.07381802 5.75464801 -11 8 C-13.6875 7.625 -13.6875 7.625 -16 7 C-12.6578074 5.26400675 -9.22999945 3.81239108 -5.75 2.375 C-4.67234375 1.92898438 -3.5946875 1.48296875 -2.484375 1.0234375 C-1.66453125 0.68570313 -0.8446875 0.34796875 0 0 Z " fill="#DAF5F9" transform="translate(502,627)"/>
<path d="M0 0 C-6.51086008 4.34057339 -15.44309285 3.11335361 -23 3 C-23 2.67 -23 2.34 -23 2 C-21.96359375 1.86722656 -20.9271875 1.73445312 -19.859375 1.59765625 C-18.48956735 1.41939361 -17.11977656 1.24100138 -15.75 1.0625 C-15.06808594 0.97548828 -14.38617188 0.88847656 -13.68359375 0.79882812 C-10.97073001 0.44325861 -8.31074554 0.0787222 -5.65625 -0.59375 C-3.51925693 -1.11791811 -2.06655855 -0.66425096 0 0 Z " fill="#C2EBF2" transform="translate(208,515)"/>
<path d="M0 0 C6.71700347 -0.31985731 11.75726932 0.5206176 18 3 C17.01 3.495 17.01 3.495 16 4 C16 4.66 16 5.32 16 6 C15.34 6 14.68 6 14 6 C14 5.01 14 4.02 14 3 C12.02 3.33 10.04 3.66 8 4 C7.67 3.34 7.34 2.68 7 2 C4.67843403 1.59270772 2.3431213 1.25561323 0 1 C0 0.67 0 0.34 0 0 Z " fill="#D3F0F5" transform="translate(570,356)"/>
<path d="M0 0 C0 0.99 0 1.98 0 3 C-1.0725 3.45375 -2.145 3.9075 -3.25 4.375 C-5.33857639 5.26106271 -7.31379773 6.1696204 -9.3125 7.25 C-9.869375 7.4975 -10.42625 7.745 -11 8 C-11.66 7.67 -12.32 7.34 -13 7 C-13 6.34 -13 5.68 -13 5 C-8.71 3.35 -4.42 1.7 0 0 Z " fill="#2F85A5" transform="translate(511,660)"/>
<path d="M0 0 C2.21403842 1.75253701 2.94254147 2.61200048 3.36328125 5.453125 C3.26243845 11.00723588 2.86529976 15.75384442 1 21 C0.67 21 0.34 21 0 21 C0.61726196 15.32644329 1.27945952 9.66138945 2 4 C1.01 3.67 0.02 3.34 -1 3 C-0.67 2.01 -0.34 1.02 0 0 Z " fill="#3485A4" transform="translate(440,421)"/>
<path d="M0 0 C-0.66 1.98 -1.32 3.96 -2 6 C-4.64 5.67 -7.28 5.34 -10 5 C-6.99385784 1.69324363 -4.54252119 0 0 0 Z " fill="#2088AB" transform="translate(557,407)"/>
<path d="M0 0 C0 4.13781054 -1.71509607 5.20919996 -4.5 8.1875 C-5.3353125 9.08855469 -6.170625 9.98960937 -7.03125 10.91796875 C-7.6809375 11.60503906 -8.330625 12.29210937 -9 13 C-9.66 12.67 -10.32 12.34 -11 12 C-9.54234835 10.37438849 -8.08385614 8.74953066 -6.625 7.125 C-5.81289063 6.22007812 -5.00078125 5.31515625 -4.1640625 4.3828125 C-2.80923795 2.89103817 -1.42494565 1.42494565 0 0 Z " fill="#E6FAFE" transform="translate(521,391)"/>
<path d="M0 0 C0 0.99 0 1.98 0 3 C-2.52475462 4.26237731 -4.31200466 4.09856404 -7.125 4.0625 C-8.03507812 4.05347656 -8.94515625 4.04445313 -9.8828125 4.03515625 C-10.58148438 4.02355469 -11.28015625 4.01195312 -12 4 C-12.33 3.01 -12.66 2.02 -13 1 C-11.84371094 1.01740234 -11.84371094 1.01740234 -10.6640625 1.03515625 C-9.15972656 1.04869141 -9.15972656 1.04869141 -7.625 1.0625 C-6.12839844 1.07990234 -6.12839844 1.07990234 -4.6015625 1.09765625 C-2.01567547 1.18006602 -2.01567547 1.18006602 0 0 Z " fill="#2F82A4" transform="translate(354,393)"/>
<path d="M0 0 C1.32 1.32 2.64 2.64 4 4 C2.35 4.33 0.7 4.66 -1 5 C-1 7.97 -1 10.94 -1 14 C-1.33 14 -1.66 14 -2 14 C-2.05389087 12.04196493 -2.09274217 10.08351091 -2.125 8.125 C-2.14820313 7.03445313 -2.17140625 5.94390625 -2.1953125 4.8203125 C-2 2 -2 2 0 0 Z " fill="#4494AA" transform="translate(724,567)"/>
<path d="M0 0 C0.66 0.33 1.32 0.66 2 1 C-0.01484744 3.92152879 -1.89949184 6.21485894 -5 8 C-6.32 7.67 -7.64 7.34 -9 7 C-6.03 4.69 -3.06 2.38 0 0 Z " fill="#E5FAFC" transform="translate(451,555)"/>
<path d="M0 0 C0.33 0.99 0.66 1.98 1 3 C-2.66291938 5.47785723 -5.6109185 6.48964169 -10 7 C-10.33 6.34 -10.66 5.68 -11 5 C-7.37 3.35 -3.74 1.7 0 0 Z " fill="#3886A8" transform="translate(126,486)"/>
<path d="M0 0 C2 3 2 3 2 5 C0.68 5.33 -0.64 5.66 -2 6 C-2 6.66 -2 7.32 -2 8 C-3.32 7.34 -4.64 6.68 -6 6 C-4.02 4.02 -2.04 2.04 0 0 Z " fill="#378AAB" transform="translate(704,480)"/>
<path d="M0 0 C0.33 0.66 0.66 1.32 1 2 C1.66 2.33 2.32 2.66 3 3 C-2.14285714 7.42857143 -2.14285714 7.42857143 -6 8 C-4.55746343 4.63408134 -2.66735273 2.48952921 0 0 Z " fill="#2785A5" transform="translate(532,645)"/>
<path d="M0 0 C0.66 2.64 1.32 5.28 2 8 C1.34 7.67 0.68 7.34 0 7 C0 6.01 0 5.02 0 4 C-4.455 4.495 -4.455 4.495 -9 5 C-4 0 -4 0 0 0 Z " fill="#3B8EA4" transform="translate(519,554)"/>
<path d="M0 0 C0 0.99 0 1.98 0 3 C-1.26691507 3.67408308 -2.53870749 4.33900497 -3.8125 5 C-4.52019531 5.37125 -5.22789063 5.7425 -5.95703125 6.125 C-8 7 -8 7 -11 7 C-11.33 6.34 -11.66 5.68 -12 5 C-8.04 3.35 -4.08 1.7 0 0 Z " fill="#3189A4" transform="translate(113,492)"/>
<path d="M0 0 C0.33 0 0.66 0 1 0 C1.05395478 1.62463842 1.09277195 3.24978541 1.125 4.875 C1.14820313 5.77992188 1.17140625 6.68484375 1.1953125 7.6171875 C1 10 1 10 -1 12 C-1.45811675 13.97235333 -1.45811675 13.97235333 -1.625 16.125 C-1.74875 17.40375 -1.8725 18.6825 -2 20 C-2.33 20 -2.66 20 -3 20 C-3.35482211 12.78528371 -2.1591338 6.87581298 0 0 Z " fill="#D2F5FA" transform="translate(434,466)"/>
<path d="M0 0 C0.66 0.99 1.32 1.98 2 3 C0.90716423 4.03295436 -0.19970579 5.05107835 -1.3125 6.0625 C-1.92738281 6.63097656 -2.54226563 7.19945312 -3.17578125 7.78515625 C-3.77777344 8.18605469 -4.37976563 8.58695312 -5 9 C-5.99 8.67 -6.98 8.34 -8 8 C-5.36 5.36 -2.72 2.72 0 0 Z " fill="#2984A0" transform="translate(422,425)"/>
<path d="M0 0 C0.33 0.66 0.66 1.32 1 2 C-0.6974182 6.7349034 -2.64883798 10.18660874 -6 14 C-6.66 13.67 -7.32 13.34 -8 13 C-5.36 8.71 -2.72 4.42 0 0 Z " fill="#DAF6FA" transform="translate(182,358)"/>
<path d="M0 0 C0.33 0.66 0.66 1.32 1 2 C-0.72924937 5.54951186 -2.52946474 8.04782391 -6 10 C-6.99 9.67 -7.98 9.34 -9 9 C-6.03 6.03 -3.06 3.06 0 0 Z " fill="#E5FBFD" transform="translate(258,261)"/>
<path d="M0 0 C2.26374611 2.26374611 2.48351426 3.31012369 3.125 6.375 C3.29257812 7.14585937 3.46015625 7.91671875 3.6328125 8.7109375 C4 11 4 11 4 15 C3.34 15 2.68 15 2 15 C1.855625 13.865625 1.71125 12.73125 1.5625 11.5625 C1.38828522 8.19222799 1.38828522 8.19222799 0 7 C-0.04092937 4.66702567 -0.04241723 2.33294775 0 0 Z " fill="#3D8BAA" transform="translate(521,565)"/>
<path d="M0 0 C-2.66695909 3.45135883 -5.90226024 3.95693897 -10 5 C-10.99 5.495 -10.99 5.495 -12 6 C-12.33 5.01 -12.66 4.02 -13 3 C-11.21189234 2.30329584 -9.41937948 1.61788811 -7.625 0.9375 C-6.62726563 0.55464844 -5.62953125 0.17179687 -4.6015625 -0.22265625 C-2 -1 -2 -1 0 0 Z " fill="#3688A0" transform="translate(88,504)"/>
<path d="M0 0 C0 0.66 0 1.32 0 2 C-0.99 2 -1.98 2 -3 2 C-3 2.66 -3 3.32 -3 4 C-3.66 4 -4.32 4 -5 4 C-5 4.66 -5 5.32 -5 6 C-7.31 6 -9.62 6 -12 6 C-8.59780735 3.25207517 -4.51535412 0 0 0 Z " fill="#E4FBFE" transform="translate(132,449)"/>
<path d="M0 0 C1.10084497 4.40337988 0.7915332 5.26798414 -0.9375 9.25 C-1.31777344 10.14203125 -1.69804687 11.0340625 -2.08984375 11.953125 C-2.39019531 12.62859375 -2.69054687 13.3040625 -3 14 C-3.66 13.34 -4.32 12.68 -5 12 C-4.67 11.01 -4.34 10.02 -4 9 C-3.67 9 -3.34 9 -3 9 C-2.01 6.03 -1.02 3.06 0 0 Z " fill="#3184A0" transform="translate(145,424)"/>
<path d="M0 0 C0.83154245 2.32831887 1.12153694 3.6110818 0.375 6 C-1.38349554 8.5578117 -3.51402387 10.16822811 -6 12 C-4.43358249 7.69235185 -2.31663844 3.93828536 0 0 Z " fill="#448B9F" transform="translate(198,394)"/>
<path d="M0 0 C0.66 0.33 1.32 0.66 2 1 C2 1.99 2 2.98 2 4 C0.36209288 5.04644066 -1.31008021 6.0398183 -3 7 C-4.36984198 8.29579647 -5.7151049 9.61992749 -7 11 C-5.5140084 6.40693504 -3.14985318 3.56430755 0 0 Z " fill="#25859B" transform="translate(233,340)"/>
<path d="M0 0 C0.66 0.66 1.32 1.32 2 2 C-0.31 5.3 -2.62 8.6 -5 12 C-5.33 10.68 -5.66 9.36 -6 8 C-5.34 8 -4.68 8 -4 8 C-4 6.68 -4 5.36 -4 4 C-3.01 4 -2.02 4 -1 4 C-0.67 2.68 -0.34 1.36 0 0 Z " fill="#3084A0" transform="translate(249,332)"/>
<path d="M0 0 C0.66 0.33 1.32 0.66 2 1 C0.6875 3 0.6875 3 -1 5 C-1.99 5 -2.98 5 -4 5 C-4.2475 5.639375 -4.495 6.27875 -4.75 6.9375 C-6 9 -6 9 -8.125 9.75 C-9.053125 9.87375 -9.053125 9.87375 -10 10 C-6.92118304 6.12948725 -3.99926986 2.97088618 0 0 Z " fill="#D7F3F9" transform="translate(436,566)"/>
<path d="M0 0 C-5.94 3.465 -5.94 3.465 -12 7 C-12 6.01 -12 5.02 -12 4 C-10.390625 2.578125 -10.390625 2.578125 -8.25 1.25 C-7.55390625 0.80140625 -6.8578125 0.3528125 -6.140625 -0.109375 C-4 -1 -4 -1 0 0 Z " fill="#3387A4" transform="translate(474,542)"/>
<path d="M0 0 C0 0.66 0 1.32 0 2 C-3 4 -3 4 -6 4 C-6.33 4.99 -6.66 5.98 -7 7 C-8.98 7 -10.96 7 -13 7 C-4.25 0 -4.25 0 0 0 Z " fill="#DCF7FA" transform="translate(490,533)"/>
<path d="M0 0 C0.33 0 0.66 0 1 0 C0.91291962 2.10494301 0.80474307 4.20902142 0.6875 6.3125 C0.62949219 7.48425781 0.57148438 8.65601563 0.51171875 9.86328125 C-0.01604768 13.0983686 -0.42380724 14.08684881 -3 16 C-2.40984815 10.49191603 -1.43336231 5.35121931 0 0 Z " fill="#CDEEF6" transform="translate(439,446)"/>
<path d="M0 0 C0.33 0 0.66 0 1 0 C1.64165788 5.26159459 0.20577001 7.68592849 -2.90625 11.6796875 C-3.2671875 12.11539062 -3.628125 12.55109375 -4 13 C-4.33 12.34 -4.66 11.68 -5 11 C-4.00390625 8.3984375 -4.00390625 8.3984375 -2.5625 5.375 C-2.08941406 4.37210937 -1.61632812 3.36921875 -1.12890625 2.3359375 C-0.75636719 1.56507813 -0.38382812 0.79421875 0 0 Z " fill="#3083A1" transform="translate(341,432)"/>
<path d="M0 0 C0.66 0.33 1.32 0.66 2 1 C1.875 2.75 1.875 2.75 1 5 C-2.0625 7.25 -2.0625 7.25 -5 9 C-5.66 8.67 -6.32 8.34 -7 8 C-4.69 5.36 -2.38 2.72 0 0 Z " fill="#2E87A6" transform="translate(586,431)"/>
<path d="M0 0 C6.93 0.495 6.93 0.495 14 1 C14 1.33 14 1.66 14 2 C8.72 2.66 3.44 3.32 -2 4 C-1.34 2.68 -0.68 1.36 0 0 Z " fill="#24829B" transform="translate(565,354)"/>
<path d="M0 0 C-2.87164566 2.70272533 -4.30991841 3.94791837 -8.3125 4.25 C-9.199375 4.1675 -10.08625 4.085 -11 4 C-9.71264403 1.42528807 -8.71510189 1.29583343 -6.0625 0.3125 C-5.35222656 0.04050781 -4.64195313 -0.23148437 -3.91015625 -0.51171875 C-2 -1 -2 -1 0 0 Z " fill="#3085A3" transform="translate(101,499)"/>
<path d="M0 0 C0.33 0 0.66 0 1 0 C1.63934602 5.11476819 -0.59466453 8.67254378 -3 13 C-3.99 12.67 -4.98 12.34 -6 12 C-4.02 8.04 -2.04 4.08 0 0 Z " fill="#DCF8FA" transform="translate(626,435)"/>
<path d="M0 0 C0.33 0.66 0.66 1.32 1 2 C-0.109375 4.3828125 -0.109375 4.3828125 -1.75 7.125 C-2.28109375 8.03507812 -2.8121875 8.94515625 -3.359375 9.8828125 C-3.90078125 10.58148438 -4.4421875 11.28015625 -5 12 C-5.99 12 -6.98 12 -8 12 C-5.36 8.04 -2.72 4.08 0 0 Z " fill="#D6F2F8" transform="translate(195,338)"/>
<path d="M0 0 C0.66 0 1.32 0 2 0 C2 1.32 2 2.64 2 4 C-2.68493876 6.48887372 -5.9444214 5.85687773 -11 5 C-11 4.67 -11 4.34 -11 4 C-10.28972656 3.87882813 -9.57945312 3.75765625 -8.84765625 3.6328125 C-7.92855469 3.46523438 -7.00945313 3.29765625 -6.0625 3.125 C-5.14597656 2.96257813 -4.22945312 2.80015625 -3.28515625 2.6328125 C-2.53105469 2.42398438 -1.77695312 2.21515625 -1 2 C-0.67 1.34 -0.34 0.68 0 0 Z " fill="#4F95AC" transform="translate(813,577)"/>
<path d="M0 0 C0.66 0.33 1.32 0.66 2 1 C0.25 3 0.25 3 -2 5 C-3.32 5 -4.64 5 -6 5 C-6.33 5.99 -6.66 6.98 -7 8 C-7.99 7.34 -8.98 6.68 -10 6 C-8.3811004 4.96951963 -6.75467511 3.95085322 -5.125 2.9375 C-4.22007812 2.36902344 -3.31515625 1.80054688 -2.3828125 1.21484375 C-1.20332031 0.61349609 -1.20332031 0.61349609 0 0 Z " fill="#368CA4" transform="translate(493,567)"/>
<path d="M0 0 C0 0.66 0 1.32 0 2 C-0.66 2 -1.32 2 -2 2 C-2.33 2.66 -2.66 3.32 -3 4 C-4.32 4 -5.64 4 -7 4 C-7.33 5.32 -7.66 6.64 -8 8 C-8.66 8 -9.32 8 -10 8 C-9.02738378 4.72847271 -8.34232413 3.25454871 -5.5625 1.1875 C-3 0 -3 0 0 0 Z " fill="#3989A5" transform="translate(690,543)"/>
<path d="M0 0 C0.66 0.33 1.32 0.66 2 1 C1.42655063 3.86724686 1.1385485 4.8614515 -1 7 C-1.433125 6.54625 -1.86625 6.0925 -2.3125 5.625 C-4.10798342 3.79975666 -4.10798342 3.79975666 -7 2 C-5.02 2 -3.04 2 -1 2 C-0.67 1.34 -0.34 0.68 0 0 Z " fill="#DDF4F8" transform="translate(701,541)"/>
<path d="M0 0 C1.231394 3.69418201 0.64432764 6.2056261 0 10 C-0.33 10 -0.66 10 -1 10 C-1 8.02 -1 6.04 -1 4 C-2.98 4 -4.96 4 -7 4 C-4.77810176 1.77810176 -2.91517292 1.07401108 0 0 Z " fill="#3783A0" transform="translate(882,499)"/>
<path d="M0 0 C0.721875 0.12375 1.44375 0.2475 2.1875 0.375 C-0.98570782 3.91086014 -2.97993695 5.96078031 -7.8125 6.375 C-3.50480769 0.46730769 -3.50480769 0.46730769 0 0 Z " fill="#2A83A3" transform="translate(297.8125,494.625)"/>
<path d="M0 0 C1.32 0.33 2.64 0.66 4 1 C3.0479279 2.00596297 2.08812654 3.00461563 1.125 4 C0.59132813 4.556875 0.05765625 5.11375 -0.4921875 5.6875 C-2 7 -2 7 -4 7 C-4.33 6.01 -4.66 5.02 -5 4 C-3.68 4 -2.36 4 -1 4 C-0.67 2.68 -0.34 1.36 0 0 Z " fill="#27809D" transform="translate(681,456)"/>
<path d="M0 0 C0.99 0.33 1.98 0.66 3 1 C0.03 5.95 0.03 5.95 -3 11 C-3.66 9.68 -4.32 8.36 -5 7 C-4.01 7 -3.02 7 -2 7 C-1.855625 6.401875 -1.71125 5.80375 -1.5625 5.1875 C-1.1127561 3.43849596 -0.57107659 1.71322977 0 0 Z " fill="#3286A4" transform="translate(701,429)"/>
<path d="M0 0 C0.66 0.33 1.32 0.66 2 1 C0.02 4.63 -1.96 8.26 -4 12 C-4.33 12 -4.66 12 -5 12 C-5 10.35 -5 8.7 -5 7 C-4.01 6.67 -3.02 6.34 -2 6 C-0.77479736 2.99152582 -0.77479736 2.99152582 0 0 Z " fill="#33859D" transform="translate(305,428)"/>
<path d="M0 0 C0.66 0.33 1.32 0.66 2 1 C2 1.66 2 2.32 2 3 C-0.95481492 5.74375671 -1.77471908 6 -6 6 C-4.98545548 3.4636387 -4.3146444 2.20648539 -2 0.6875 C-1.34 0.460625 -0.68 0.23375 0 0 Z " fill="#268AA2" transform="translate(547,364)"/>
<path d="M0 0 C0 0.99 0 1.98 0 3 C0.66 3.33 1.32 3.66 2 4 C2 5.65 2 7.3 2 9 C1.34 9 0.68 9 0 9 C-1.625 6.5 -1.625 6.5 -3 4 C-2.01 2.68 -1.02 1.36 0 0 Z " fill="#328AA4" transform="translate(732,559)"/>
<path d="M0 0 C0 0.99 0 1.98 0 3 C-4.0527516 3.98248524 -7.83861737 4.08159574 -12 4 C-8.36043372 1.57362248 -4.44144233 0 0 0 Z " fill="#2E85A3" transform="translate(36,521)"/>
<path d="M0 0 C-2.6860286 1.79068573 -4.6626589 2.66055791 -7.6875 3.625 C-8.49574219 3.88539063 -9.30398437 4.14578125 -10.13671875 4.4140625 C-10.75160156 4.60742188 -11.36648437 4.80078125 -12 5 C-12 4.34 -12 3.68 -12 3 C-8.02806853 -0.12940055 -4.95769796 -0.29162929 0 0 Z " fill="#E1FBFC" transform="translate(83,504)"/>
<path d="M0 0 C3.63 0.33 7.26 0.66 11 1 C11 1.99 11 2.98 11 4 C6.00837213 3.52003578 4.14964417 3.11223313 0 0 Z " fill="#3386A6" transform="translate(753,483)"/>
<path d="M0 0 C1 2 1 2 0.875 3.9375 C-0.37273556 6.87859096 -2.18907096 7.6288151 -5 9 C-5.66 9 -6.32 9 -7 9 C-5.44499019 5.18315774 -2.96404505 2.80804268 0 0 Z " fill="#DAF3F7" transform="translate(280,464)"/>
<path d="M0 0 C0.99 0 1.98 0 3 0 C1.47291037 3.43595166 -0.59927045 6.11912454 -3 9 C-3.2519555 5.97653399 -3.20421041 4.3597993 -1.6875 1.6875 C-1.130625 1.130625 -0.57375 0.57375 0 0 Z " fill="#2D83A9" transform="translate(396,396)"/>
<path d="M0 0 C0.33 0 0.66 0 1 0 C1.25 2.25 1.25 2.25 1 5 C-1 7.3125 -1 7.3125 -3 9 C-3.75 7.3125 -3.75 7.3125 -4 5 C-2.125 2.25 -2.125 2.25 0 0 Z " fill="#2F87AB" transform="translate(255,386)"/>
<path d="M0 0 C0.66 0.33 1.32 0.66 2 1 C1.2884375 1.6496875 1.2884375 1.6496875 0.5625 2.3125 C-1.23686957 4.02309613 -1.23686957 4.02309613 -2 7 C-4.5625 8.6875 -4.5625 8.6875 -7 10 C-5.6062718 5.56541027 -3.39417765 3.12621626 0 0 Z " fill="#E4F9FB" transform="translate(337,360)"/>
<path d="M0 0 C0.66 0.33 1.32 0.66 2 1 C0.35 4.3 -1.3 7.6 -3 11 C-3.92538169 7.29847322 -4.08174162 6.36541838 -3 3 C-2.34 3 -1.68 3 -1 3 C-0.67 2.01 -0.34 1.02 0 0 Z " fill="#D7F5F9" transform="translate(296,321)"/>
<path d="M0 0 C0.33 0 0.66 0 1 0 C1 3.63 1 7.26 1 11 C-0.65 11 -2.3 11 -4 11 C-3.67 10.01 -3.34 9.02 -3 8 C-2.34 8 -1.68 8 -1 8 C-0.67 5.36 -0.34 2.72 0 0 Z " fill="#D1F5FA" transform="translate(770,570)"/>
<path d="M0 0 C-3.64418341 2.42945561 -4.92923364 2.0828781 -9.1875 1.625 C-10.27417969 1.51414062 -11.36085938 1.40328125 -12.48046875 1.2890625 C-13.31191406 1.19367188 -14.14335938 1.09828125 -15 1 C-15 0.67 -15 0.34 -15 0 C-13.25093341 -0.19601608 -11.50068154 -0.38147403 -9.75 -0.5625 C-8.77546875 -0.66691406 -7.8009375 -0.77132813 -6.796875 -0.87890625 C-4.2368648 -0.98974468 -2.41851841 -0.77738092 0 0 Z " fill="#C6ECF6" transform="translate(809,489)"/>
<path d="M0 0 C0.33 0 0.66 0 1 0 C0.45144652 4.571279 -0.41744803 8.67435795 -2 13 C-3.60367894 8.99080266 -2.31933425 5.95800274 -1 2 C-0.67 1.34 -0.34 0.68 0 0 Z " fill="#DAF5F9" transform="translate(663,431)"/>
<path d="M0 0 C0.66 0.33 1.32 0.66 2 1 C1.67 4.96 1.34 8.92 1 13 C0.67 13 0.34 13 0 13 C-0.19466332 11.20909747 -0.38051213 9.41723495 -0.5625 7.625 C-0.66691406 6.62726563 -0.77132813 5.62953125 -0.87890625 4.6015625 C-1 2 -1 2 0 0 Z " fill="#DAF7FA" transform="translate(473,431)"/>
<path d="M0 0 C0.33 0.66 0.66 1.32 1 2 C-0.13474948 5.40424844 -0.96811304 6.21653709 -4 8 C-4.99 7.67 -5.98 7.34 -7 7 C-4.69 4.69 -2.38 2.38 0 0 Z " fill="#D7F3F9" transform="translate(560,408)"/>
<path d="M0 0 C0.33 0.99 0.66 1.98 1 3 C0.00390625 4.82421875 0.00390625 4.82421875 -1.4375 6.6875 C-1.91058594 7.31011719 -2.38367188 7.93273437 -2.87109375 8.57421875 C-3.24363281 9.04472656 -3.61617187 9.51523437 -4 10 C-4.99 9.67 -5.98 9.34 -7 9 C-4.69 6.03 -2.38 3.06 0 0 Z " fill="#DDF8FA" transform="translate(228,365)"/>
<path d="M0 0 C0.33 0.66 0.66 1.32 1 2 C0.22265625 3.9453125 0.22265625 3.9453125 -0.9375 6.125 C-1.31777344 6.84945313 -1.69804687 7.57390625 -2.08984375 8.3203125 C-2.54037109 9.15175781 -2.54037109 9.15175781 -3 10 C-4.32 9.34 -5.64 8.68 -7 8 C-4.69 5.36 -2.38 2.72 0 0 Z " fill="#DAF5F7" transform="translate(239,281)"/>
<path d="M0 0 C1.21386936 3.64160808 0.6674695 4.33165469 -0.9375 7.6875 C-1.31777344 8.49574219 -1.69804688 9.30398438 -2.08984375 10.13671875 C-2.39019531 10.75160156 -2.69054687 11.36648438 -3 12 C-4.12668965 8.61993106 -3.89636912 8.0359269 -2.625 4.875 C-2.34914063 4.17117188 -2.07328125 3.46734375 -1.7890625 2.7421875 C-1 1 -1 1 0 0 Z " fill="#2D869E" transform="translate(524,600)"/>
<path d="M0 0 C0.33 0.66 0.66 1.32 1 2 C0 3.9375 0 3.9375 -2 6 C-4.69924572 6.66549451 -7.20631637 6.81680763 -10 7 C-8.17725047 5.78483364 -6.3280819 4.60668208 -4.4375 3.5 C-1.93582181 2.0902355 -1.93582181 2.0902355 0 0 Z " fill="#D4F3F8" transform="translate(616,570)"/>
<path d="M0 0 C2.475 0.99 2.475 0.99 5 2 C5 3.98 5 5.96 5 8 C2.20127563 5.47211993 0.54226981 3.79588866 0 0 Z " fill="#2E899F" transform="translate(739,468)"/>
<path d="M0 0 C-0.33 1.65 -0.66 3.3 -1 5 C-1.99 5.33 -2.98 5.66 -4 6 C-4.66 5.34 -5.32 4.68 -6 4 C-2.25 0 -2.25 0 0 0 Z " fill="#EAF9FC" transform="translate(605,466)"/>
<path d="M0 0 C0.33 1.32 0.66 2.64 1 4 C-1.97 6.475 -1.97 6.475 -5 9 C-5.66 8.67 -6.32 8.34 -7 8 C-4.69 5.36 -2.38 2.72 0 0 Z " fill="#D4F3F6" transform="translate(292,451)"/>
<path d="M0 0 C0.33 0.66 0.66 1.32 1 2 C0.06553465 4.03144641 -0.93224776 6.03533587 -2 8 C-3.32 7.34 -4.64 6.68 -6 6 C-4.02 4.02 -2.04 2.04 0 0 Z " fill="#5193A6" transform="translate(273,292)"/>
<path d="M0 0 C1.32 0.66 2.64 1.32 4 2 C2.35 3.65 0.7 5.3 -1 7 C-1.66 5.35 -2.32 3.7 -3 2 C-2.01 1.34 -1.02 0.68 0 0 Z " fill="#2B83A7" transform="translate(227,290)"/>
<path d="M0 0 C4 4.625 4 4.625 4 8 C3.67 7.34 3.34 6.68 3 6 C0.97536745 5.34786708 0.97536745 5.34786708 -1 5 C-0.67 3.35 -0.34 1.7 0 0 Z " fill="#2E8CA3" transform="translate(673,570)"/>
<path d="M0 0 C0 0.99 0 1.98 0 3 C-3.00617269 6.00617269 -5.82381598 5.59585316 -10 6 C-6.74147635 3.8276509 -3.40755272 1.92880342 0 0 Z " fill="#3389A5" transform="translate(675,506)"/>
<path d="M0 0 C0 0.99 0 1.98 0 3 C-2.31 4.32 -4.62 5.64 -7 7 C-7.33 6.34 -7.66 5.68 -8 5 C-4.04 2.525 -4.04 2.525 0 0 Z " fill="#2D84A6" transform="translate(609,503)"/>
<path d="M0 0 C1.0625 1.8125 1.0625 1.8125 2 4 C1.67 4.99 1.34 5.98 1 7 C-0.65 6.67 -2.3 6.34 -4 6 C-2.68 4.02 -1.36 2.04 0 0 Z " fill="#3086A8" transform="translate(390,470)"/>
<path d="M0 0 C1.32 0.33 2.64 0.66 4 1 C0.535 3.97 0.535 3.97 -3 7 C-3 6.01 -3 5.02 -3 4 C-2.34 4 -1.68 4 -1 4 C-0.67 2.68 -0.34 1.36 0 0 Z " fill="#3487A6" transform="translate(610,456)"/>
<path d="M0 0 C-0.66 1.65 -1.32 3.3 -2 5 C-2.33 4.34 -2.66 3.68 -3 3 C-3.99 3.66 -4.98 4.32 -6 5 C-6.99 4.67 -7.98 4.34 -9 4 C-2.25 0 -2.25 0 0 0 Z " fill="#418C9F" transform="translate(569,396)"/>
<path d="M0 0 C0.99 0 1.98 0 3 0 C3 0.66 3 1.32 3 2 C4.65 1.67 6.3 1.34 8 1 C8 2.65 8 4.3 8 6 C5.36 4.68 2.72 3.36 0 2 C0 1.34 0 0.68 0 0 Z " fill="#3089AA" transform="translate(352,357)"/>
<path d="M0 0 C0.625 1.875 0.625 1.875 1 4 C0.34 4.66 -0.32 5.32 -1 6 C-3.125 5.625 -3.125 5.625 -5 5 C-3.35 3.35 -1.7 1.7 0 0 Z " fill="#2C87A8" transform="translate(538,639)"/>
<path d="M0 0 C2 3 2 3 1.625 5.6875 C1.41875 6.450625 1.2125 7.21375 1 8 C0.01 8.33 -0.98 8.66 -2 9 C-1.34 6.03 -0.68 3.06 0 0 Z " fill="#D7F5F9" transform="translate(525,599)"/>
<path d="M0 0 C0.99 0 1.98 0 3 0 C2.67 0.99 2.34 1.98 2 3 C-0.875 3.625 -0.875 3.625 -4 4 C-4.66 3.34 -5.32 2.68 -6 2 C-4.02 2 -2.04 2 0 2 C0 1.34 0 0.68 0 0 Z " fill="#3E8AA7" transform="translate(809,573)"/>
<path d="M0 0 C0.66 0 1.32 0 2 0 C2 1.65 2 3.3 2 5 C1.01 5.33 0.02 5.66 -1 6 C-1.625 4.125 -1.625 4.125 -2 2 C-1.34 1.34 -0.68 0.68 0 0 Z " fill="#FBFEFC" transform="translate(621,565)"/>
<path d="M0 0 C0.99 0.33 1.98 0.66 3 1 C-0.465 3.97 -0.465 3.97 -4 7 C-3.6875 4.625 -3.6875 4.625 -3 2 C-2.01 1.34 -1.02 0.68 0 0 Z " fill="#CFF1F4" transform="translate(288,499)"/>
<path d="M0 0 C-1.28913487 0.67154933 -2.58140204 1.33708859 -3.875 2 C-4.59429687 2.37125 -5.31359375 2.7425 -6.0546875 3.125 C-8 4 -8 4 -10 4 C-10 3.34 -10 2.68 -10 2 C-3.375 -1.125 -3.375 -1.125 0 0 Z " fill="#E0FAFC" transform="translate(363,497)"/>
<path d="M0 0 C1.13757948 4.55031791 0.4283779 6.63084406 -1 11 C-1.66 11 -2.32 11 -3 11 C-2.01 7.37 -1.02 3.74 0 0 Z " fill="#3E8CA7" transform="translate(743,426)"/>
<path d="M0 0 C0.625 1.875 0.625 1.875 1 4 C0.34 4.66 -0.32 5.32 -1 6 C-3.125 5.625 -3.125 5.625 -5 5 C-3.35 3.35 -1.7 1.7 0 0 Z " fill="#2886A5" transform="translate(229,416)"/>
<path d="M0 0 C1.98 0 3.96 0 6 0 C6.12375 0.639375 6.2475 1.27875 6.375 1.9375 C6.684375 2.9584375 6.684375 2.9584375 7 4 C7.66 4.33 8.32 4.66 9 5 C4.98525763 5 3.18024863 3.33218233 0 1 C0 0.67 0 0.34 0 0 Z " fill="#3787A4" transform="translate(656,403)"/>
<path d="M0 0 C1.32 0.33 2.64 0.66 4 1 C2.35 2.98 0.7 4.96 -1 7 C-1.33 5.68 -1.66 4.36 -2 3 C-1.34 3 -0.68 3 0 3 C0 2.01 0 1.02 0 0 Z " fill="#2A8A9D" transform="translate(222,368)"/>
<path d="M0 0 C0.66 0.33 1.32 0.66 2 1 C1.1875 3.9375 1.1875 3.9375 0 7 C-0.99 7.33 -1.98 7.66 -3 8 C-1.125 2.25 -1.125 2.25 0 0 Z " fill="#3889A3" transform="translate(310,296)"/>
<path d="M0 0 C1.4540625 0.0309375 1.4540625 0.0309375 2.9375 0.0625 C1.2875 1.7125 -0.3625 3.3625 -2.0625 5.0625 C-2.7225 3.7425 -3.3825 2.4225 -4.0625 1.0625 C-3.0625 0.0625 -3.0625 0.0625 0 0 Z " fill="#2D88A8" transform="translate(300.0625,219.9375)"/>
<path d="M0 0 C1.42944945 2.35438733 2.08661261 3.48032433 1.625 6.25 C1.41875 6.8275 1.2125 7.405 1 8 C0.34 8 -0.32 8 -1 8 C-1.93065133 5.39417629 -2.14917407 4.35801776 -1.0625 1.75 C-0.711875 1.1725 -0.36125 0.595 0 0 Z " fill="#2E87A9" transform="translate(450,604)"/>
<path d="M0 0 C0.33 0.66 0.66 1.32 1 2 C2.65 2 4.3 2 6 2 C3.38058783 3.74627478 1.96175123 4.38722388 -1 5 C-1.33 4.01 -1.66 3.02 -2 2 C-1.34 1.34 -0.68 0.68 0 0 Z " fill="#2885A8" transform="translate(681,536)"/>
<path d="M0 0 C1.33332095 2.6666419 0.67102033 4.16680303 0 7 C-0.99 7 -1.98 7 -3 7 C-2.25 2.25 -2.25 2.25 0 0 Z " fill="#2D89AA" transform="translate(374,487)"/>
<path d="M0 0 C-2.93828597 2.50298434 -5.17902761 3.46930939 -9 4 C-9 3.34 -9 2.68 -9 2 C-5.86501708 0.14223235 -3.62528568 -0.20140476 0 0 Z " fill="#DAF7FC" transform="translate(122,488)"/>
<path d="M0 0 C0.33 0 0.66 0 1 0 C1.36923077 7.50769231 1.36923077 7.50769231 -0.5 10 C-0.995 10.33 -1.49 10.66 -2 11 C-1 3.57142857 -1 3.57142857 0 0 Z " fill="#DAF6F9" transform="translate(498,423)"/>
<path d="M0 0 C0.33 0.66 0.66 1.32 1 2 C0.0625 4.625 0.0625 4.625 -1 7 C-1.66 7 -2.32 7 -3 7 C-3 7.66 -3 8.32 -3 9 C-3.66 8.67 -4.32 8.34 -5 8 C-3.35 5.36 -1.7 2.72 0 0 Z " fill="#D7F6F7" transform="translate(173,373)"/>
<path d="M0 0 C-4.625 3 -4.625 3 -8 3 C-7.67 2.01 -7.34 1.02 -7 0 C-4.05610218 -1.17755913 -3.10046087 -1.03348696 0 0 Z " fill="#2C879D" transform="translate(560,360)"/>
<path d="M0 0 C0.66 0 1.32 0 2 0 C1.8125 2.375 1.8125 2.375 1 5 C-1.5625 6.3125 -1.5625 6.3125 -4 7 C-2.68 4.69 -1.36 2.38 0 0 Z " fill="#2C85A3" transform="translate(286,342)"/>
<path d="M0 0 C-0.33 0.99 -0.66 1.98 -1 3 C-2.65 3.33 -4.3 3.66 -6 4 C-2.25 0 -2.25 0 0 0 Z M-8 4 C-7.34 4.33 -6.68 4.66 -6 5 C-7.98 5.99 -7.98 5.99 -10 7 C-9.34 6.01 -8.68 5.02 -8 4 Z " fill="#DBF7FB" transform="translate(312,215)"/>
</svg>
