<svg height="224" width="1254" xmlns="http://www.w3.org/2000/svg"><path d="m0 0h63c-1.84747969 6.15826564-3.70146715 12.18134402-5.91796875 18.1953125-.2328772.6386499-.46575439 1.2772998-.70568848 1.93530273-.85149081 2.33260414-1.70793523 4.66339765-2.56384277 6.99438477-2.8771875 7.858125-2.8771875 7.858125-5.8125 15.875 29.205.495 29.205.495 59 1-1.37100529 6.16952382-2.81675153 11.70398968-5.0390625 17.53515625-.38031372 1.01846008-.38031372 1.01846008-.76831055 2.05749512-.93268047 2.49240233-1.87573132 4.98091414-2.81762695 7.46984863-2.10375 5.589375-4.2075 11.17875-6.375 16.9375h60c-1.94764115 6.49213718-3.94190657 12.81212438-6.30859375 19.140625-.31876602.86021759-.63753204 1.72043518-.96595764 2.60671997-1.05141976 2.83530304-2.10717722 5.66896984-3.16294861 8.50265503-.74769869 2.01372221-1.49508752 4.02755949-2.2421875 6.04150391-1.59607847 4.30147111-3.19377906 8.60233511-4.79248047 12.90283203-2.60050083 6.9978909-5.19185823 13.99914921-7.78173828 21.00097656-.88288152 2.3863978-1.76577535 4.77279105-2.64868164 7.15917969-.43249054 1.16897827-.86498108 2.33795654-1.31057739 3.5423584-.42465546 1.1477893-.84931092 2.29557861-1.28683472 3.47814941-.41007294 1.1084729-.82014587 2.2169458-1.24264526 3.35900879-1.19981901 3.24251319-2.40037389 6.48475309-3.60110474 9.72692871-.33709488.91137726-.67418976 1.82275452-1.02149963 2.76174927-4.17627522 11.27247944-8.41371139 22.52120928-12.63475037 33.77731323-20.79 0-41.58 0-63 0 1.125-6.75 1.125-6.75 2.30688477-9.89404297.26381469-.7098706.52762939-1.41974121.79943847-2.15112305.27557739-.72501709.55115479-1.45003418.83508301-2.19702148.25454956-.68199463.50909912-1.36398926.7713623-2.06665039.94397319-2.5242823 1.89739979-5.04502132 2.84973145-7.56616211 2.124375-5.65125 4.24875-11.3025 6.4375-17.125-29.205-.495-29.205-.495-59-1 1.37100529-6.16952382 2.81675153-11.70398968 5.0390625-17.53515625.25354248-.67897339.50708496-1.35794678.76831055-2.05749512.93268047-2.49240233 1.87573132-4.98091414 2.81762695-7.46984863 2.10375-5.589375 4.2075-11.17875 6.375-16.9375-19.47 0-38.94 0-59 0 1.12498751-7.87491256 1.12498751-7.87491256 2.44848633-11.43579102.29650955-.80825225.5930191-1.61650451.89851379-2.44924926.32506027-.86422577.65012055-1.72845154.98503113-2.61886597.51568794-1.39664383.51568794-1.39664383 1.04179382-2.82150269 1.13962296-3.08152225 2.28908584-6.15927434 3.43867493-9.23709106.8053113-2.17107406 1.60998691-4.342384 2.4140625-6.51391602 1.70295952-4.595985 3.40991047-9.19046075 5.11962891-13.78393554 2.66141282-7.15393458 5.30537754-14.3142426 7.94677734-21.47558594 1.31127255-3.55217715 2.62286992-7.10423411 3.93466187-10.65621948.83231224-2.25374897 1.66437403-4.50759046 2.49615478-6.76153565.39512787-1.07007293.79025574-2.14014587 1.19735718-3.24264526.34202957-.92663956.68405914-1.85327911 1.03645325-2.80799866 5.23766999-14.11357855 10.63658017-28.14052104 16.04240417-42.19566345z" fill="#0551b3" transform="translate(49 2)"/><path d="m0 0c7.7970406 5.9550213 12.89377536 12.07424489 17.625 20.6875-3.47728174 3.95847217-7.51256911 6.23545673-12.0625 8.75-.71994141.41121094-1.43988281.82242188-2.18164062 1.24609375-5.37409806 3.00390625-5.37409806 3.00390625-8.75585938 3.00390625-1.32421875-1.79296875-1.32421875-1.79296875-2.6875-4.1875-3.60388035-5.72116006-7.94704149-8.6906805-14.3125-10.8125-10.03627892-.81587483-10.03627892-.81587483-19 3-3.2809044 2.93554604-4.29821065 5.19994092-4.5625 9.5.18772021 3.23951453.52030271 4.43368997 2.3125 7.25 6.82494824 4.72496416 14.73076232 7.08694829 22.52807617 9.73876953 31.78820512 10.84809482 31.78820512 10.84809482 39.72192383 26.51123047l1 3c.09796875-.81082031.1959375-1.62164062.296875-2.45703125 1.82779686-13.5351509 5.51566612-25.33211853 16.09375-34.6484375 12.86826957-9.48933715 26.06408862-11.06823159 41.609375-9.89453125 7.56744197 1.46878621 13.70557177 4.64231892 20 9 .33-2.31.66-4.62 1-7h24v132c-7.92 0-15.84 0-24 0-.33-14.52-.66-29.04-1-44-2.64 1.65-5.28 3.3-8 5-13.2484533 5.76019709-27.00880477 6.60647551-40.72265625 1.65625-11.87797829-5.48015538-20.51665881-13.35781391-25.27734375-25.65625-.68083394-1.99522169-1.35074918-3.99427873-2-6-.20753906.76183594-.41507813 1.52367187-.62890625 2.30859375-3.21600192 10.77831607-8.51412227 18.94705631-18.37109375 24.69140625-15.067243 7.23933941-34.30568587 9.13301325-50.4765625 4.03515625-12.34883104-5.06569694-23.01395929-12.48141662-28.5234375-25.03515625-.39492983-1.98875377-.74348687-3.98870387-1-6 3.09799973-1.84390947 6.20435001-3.67326059 9.3125-5.5.88107422-.52464844 1.76214844-1.04929687 2.66992188-1.58984375 1.27133789-.74443359 1.27133789-.74443359 2.56835937-1.50390625.78028564-.46083984 1.56057129-.92167969 2.36450195-1.39648438 2.0847168-1.00976562 2.0847168-1.00976562 5.0847168-1.00976562 1.4296875 2.046875 1.4296875 2.046875 2.875 4.75 2.28800463 3.99555489 4.14985484 6.76553428 8.125 9.25.825.53625 1.65 1.0725 2.5 1.625 10.14383592 3.9850784 20.32261404 4.27649645 30.4375.1875 3.78899-3.32971848 5.80068046-6.9423604 6.5-11.9375-.51362093-3.37522324-1.44777568-5.10631289-3.4375-7.875-9.0118772-6.09212417-20.14720976-8.92120603-30.3984375-12.2109375-11.6056961-3.84408078-23.61828977-9.02139135-29.94921875-20.16015625-4.5684873-9.97207444-5.33566697-20.8196717-1.6875-31.2890625 4.29048799-9.6981219 11.30039448-16.83675815 20.78515625-21.515625 15.7987867-5.78740277 35.50273682-4.88434185 49.625 4.48828125zm47 64.625c-4.67235677 7.00853515-4.00730023 14.98851247-3.375 23.0625 1.90570567 7.96054269 8.43719776 12.74598225 15.0625 16.9375 6.8740975 2.55006843 16.44445027 2.21392561 23.375 0 6.29020745-2.93268931 12.1437168-8.0148338 14.93359375-14.4453125 2.15437414-8.53720931 1.81462964-17.66851126-2.68359375-25.3359375-4.42889403-5.65914238-9.7499321-9.31706739-16.6875-11.15625-13.05619688-1.37815412-22.107831.78241388-30.625 10.9375z" fill="#28325c" transform="translate(775.375 47.3125)"/><path d="m0 0h63c-1.83062169 6.1020723-3.66191651 12.10841948-5.8125 18.08984375-.38248901 1.06680748-.38248901 1.06680748-.77270508 2.15516663-.53288997 1.48178928-1.06732098 2.96302525-1.60327148 4.44371032-.81762005 2.26567337-1.6231464 4.53543669-2.42871094 6.80541992-.52269982 1.44883406-1.0461115 2.89741154-1.5703125 4.34570313-.23759033.67498032-.47518066 1.34996063-.7199707 2.0453949-1.7532372 4.78142707-1.7532372 4.78142707-3.57673645 6.57290649-1.71937545 1.74893779-2.32998752 3.12734942-3.16300965 5.42271424-.43357063 1.17516426-.43357063 1.17516426-.87590027 2.37406921-.30561355.85431106-.61122711 1.70862213-.92610168 2.58882141-.33006546.901241-.66013092 1.80248199-1.00019836 2.73103333-1.08685929 2.9723956-2.16227264 5.94880633-3.23808289 8.92521667-.75099388 2.05788612-1.50295837 4.11541828-2.25585938 6.17260742-1.56412859 4.2751647-3.12478025 8.55157413-4.68310546 12.82885742-3.40354023 9.33101283-6.85292489 18.64495685-10.31314087 27.95507813-1.05118707 2.83115924-2.09831605 5.66379644-3.14511109 8.49658203-.6382352 1.72012353-1.27665257 3.44017949-1.9152832 5.16015625-.2908699.78945511-.58173981 1.57891022-.88142395 2.39228821-2.00449898 5.38035347-2.00449898 5.38035347-3.11857605 6.49443054-1.8718094.09386381-3.7471806.11743804-5.62133789.11352539-1.20116959-.00007553-2.40233917-.00015106-3.63990784-.00022888-1.30726547-.00516129-2.61453094-.01032257-3.96141052-.01564026-1.34378507-.00186427-2.68757082-.00328813-4.03135681-.00428772-3.54280971-.00382451-7.08557864-.01365421-10.62837219-.02470398-3.61276702-.01021556-7.22554059-.01479395-10.83831787-.01983643-7.09311568-.01073614-14.18620362-.02781176-21.27929688-.04882812.59183359-5.89505874 2.2520104-10.97383144 4.33203125-16.50390625.51568794-1.39664383.51568794-1.39664383 1.04179382-2.82150269 1.13962296-3.08152225 2.28908584-6.15927434 3.43867493-9.23709106.8053113-2.17107406 1.60998691-4.342384 2.4140625-6.51391602 1.70295952-4.595985 3.40991047-9.19046075 5.11962891-13.78393554 2.66141282-7.15393458 5.30537754-14.3142426 7.94677734-21.47558594 1.31127255-3.55217715 2.62286992-7.10423411 3.93466187-10.65621948.83231224-2.25374897 1.66437403-4.50759046 2.49615478-6.76153565.39512787-1.07007293.79025574-2.14014587 1.19735718-3.24264526.34202957-.92663956.68405914-1.85327911 1.03645325-2.80799866 5.23766999-14.11357855 10.63658017-28.14052104 16.04240417-42.19566345z" fill="#18ade9" transform="translate(49 2)"/><path d="m0 0c1.61882584.00666183 1.61882584.00666183 3.27035522.01345825 1.83167222.00022659 1.83167222.00022659 3.7003479.00045777 1.33735313.01021399 2.6747046.02064599 4.01205445.03128051 1.36477451.0037297 2.72955169.00657688 4.09432983.00857544 3.5938149.00763993 7.1874684.02729134 10.78121948.04940796 3.66646135.02045079 7.33294876.02959211 10.99945069.03967285 7.19538612.02145622 14.3906392.05559633 21.5859375.09765625-1.20715683 6.02889808-2.80304055 11.73538864-4.93359375 17.5-.27860367.76175537-.55720734 1.52351075-.84425354 2.30834961-.58441247 1.59089208-1.17192165 3.18064982-1.76243591 4.76928711-.90363558 2.43969312-1.78835723 4.88574377-2.67260743 7.33251953-.57243135 1.55120107-1.14595924 3.10199803-1.72070312 4.65234375-.39390175 1.09828125-.39390175 1.09828125-.79576111 2.21875-.67014235 1.77480403-1.46108195 3.5030497-2.27064514 5.21875-1.485.495-1.485.495-3 1-.87169575 1.90404688-.87169575 1.90404688-1.40234375 4.27734375-1.70770961 6.235177-3.91024236 12.22737082-6.16015625 18.28515625-.46239221 1.25151113-.92445661 2.5031434-1.38623047 3.75488282-.77319153 2.09562028-1.54669717 4.19112122-2.32128906 6.28622436-2.48589846 6.72535783-4.95440293 13.45704601-7.42138672 20.18936157-1.23339848 3.36435512-2.46689554 6.72867408-3.70040894 10.09298706-.82247473 2.24365506-1.6446791 4.48740925-2.46661377 6.73126221-1.16325256 3.17488306-2.32801485 6.34920837-3.49313354 9.52340698-.35369156.96636887-.70738312 1.93273774-1.0717926 2.92839051-.32516098.88504715-.65032196 1.7700943-.98533631 2.68196106-.4265538 1.16332855-.4265538 1.16332855-.86172485 2.35015869-.72958374 1.89886474-.72958374 1.89886474-1.72958374 3.89886474-20.13 0-40.26 0-61 0 1.33739256-6.01826654 2.70714191-11.42575827 4.86328125-17.11328125.27386032-.73566696.54772064-1.47133392.82987976-2.22929382.57629788-1.54464774 1.15541732-3.08824553 1.73725891-4.6308136.87525001-2.32099926 1.74172628-4.64512085 2.60668945-6.9699707.56654261-1.51516651 1.13358426-3.03014653 1.70117188-4.54492188.25227859-.67541336.50455719-1.35082672.76448059-2.04670715 1.53960706-4.07487625 3.17545062-8.09791836 4.86930847-12.11125183 2.83714231-6.77209845 5.39819305-13.63725562 7.93652344-20.52563477.49392232-1.33465707.98807313-2.6692296 1.48243713-4.00372314 1.29029581-3.48474864 2.57774579-6.97054141 3.8644867-10.45660401 1.29360153-3.50338636 2.58959346-7.00588787 3.88549804-10.50842285.25232203-.68212806.50464405-1.36425613.7646122-2.06705475 1.23950224-3.35074896 2.47954336-6.70129705 3.72058678-10.05147552 1.99727782-5.39250972 3.9930505-10.78537968 5.96255493-16.18811035.27965103-.76145325.55930206-1.5229065.84742737-2.30743408.69100741-1.8815873 1.37703018-3.76500333 2.06248474-5.64862061 1.38589594-3.26765444 2.03420813-4.496281 5.65762329-4.83718872z" fill="#d4598a" transform="translate(97.556305 45.759491)"/><g fill="#28325c"><path d="m0 0h24c.33 15.18.66 30.36 1 46 2.97-1.98 5.94-3.96 9-6 12.38335166-5.95044171 25.73277865-7.19455662 39.125-3.375 5.57470258 2.01623126 10.27224036 4.65111376 14.875 8.375.61359375.47824219 1.2271875.95648438 1.859375 1.44921875 8.18540867 7.18939655 13.42041712 19.30282129 14.35766602 30.03637695.76955803 17.15940595-.84338803 30.90737592-12.59204102 44.2019043-13.21468623 11.6415093-24.93045816 14.13603891-42.21826172 13.48730469-9.63863719-.70006738-16.98148677-5.32659775-24.40673828-11.17480469-.33 2.97-.66 5.94-1 9-7.92 0-15.84 0-24 0 0-43.56 0-87.12 0-132zm31 69c-4.65462983 5.71368886-4.66477771 12.15964455-4.4375 19.3046875.91802227 7.75400954 3.88341867 12.75630627 9.875 17.6953125 7.75065794 5.76793149 16.21902761 5.92077788 25.5625 5 7.39183671-2.10217578 12.7661155-6.64917326 17-13 3.4410145-6.68572952 3.10950094-16.36537581 1.3828125-23.578125-2.88228391-6.47876206-8.60258375-10.66295477-14.4453125-14.359375-12.87354819-4.7756711-26.04537681-.76120958-34.9375 8.9375z" transform="translate(438 42)"/><path d="m0 0c2.8147352 2.30774997 5.14044985 4.63171711 7.17211914 7.65478516-1.39705814 3.37569705-2.83498319 4.86670588-5.9140625 6.796875-1.14082031.72509765-1.14082031.72509765-2.3046875 1.46484375-.7940625.49113281-1.588125.98226562-2.40625 1.48828125-.80179687.50660156-1.60359375 1.01320312-2.4296875 1.53515625-1.9764821 1.24706608-3.9581716 2.48486001-5.9453125 3.71484375-.54342041-.41209717-1.08684082-.82419434-1.64672852-1.2487793-.71599365-.54052002-1.4319873-1.08104004-2.16967773-1.63793945-.70842041-.53584717-1.41684082-1.07169434-2.14672851-1.6237793-5.36375579-3.92236295-10.42195349-5.64928243-17.03686524-5.48950195-7.97355408 1.27329623-14.78014769 4.60501911-19.60546875 11.19140625-3.67871014 6.41970985-4.56760037 12.52018071-3.39453125 19.80859375 2.27300169 7.4028954 6.26668455 12.22526255 13 16 6.49703144 3.10354063 14.08251175 3.32697645 20.89453125 1.01953125 4.50032863-2.1928138 8.24166784-4.83597698 12.10546875-8.01953125 2.60463003 1.6242582 5.20862255 3.24953565 7.8125 4.875.73798828.46019531 1.47597656.92039062 2.23632813 1.39453125.71220703.44472656 1.42441406.88945312 2.15820312 1.34765625.65460205.40847168 1.3092041.81694336 1.98364258 1.23779296 1.61857287 1.02430263 3.21556994 2.08251538 4.80932617 3.14501954-.47762366 4.29861295-2.901281 6.17073483-6 9-.50660156.48726562-1.01320312.97453125-1.53515625 1.4765625-9.17009707 8.45469942-19.96605995 11.9170624-32.27734375 11.8359375-.89001709-.00563965-1.78003418-.0112793-2.69702148-.01708985-6.27222283-.11618423-11.73905415-.62764189-17.49047852-3.29541015-.88558594-.39058594-1.77117187-.78117188-2.68359375-1.18359375-10.86706659-5.32049169-19.10686121-13.90452137-24.31640625-24.81640625-.99-2.97-.99-2.97-2-6-.33 10.89-.66 21.78-1 33-7.92 0-15.84 0-24 0 0-31.02 0-62.04 0-94h24c.33 10.89.66 21.78 1 33 1.32-3.3 2.64-6.6 4-10 2.03581929-3.27914017 4.4647359-6.0947832 7-9 .71542969-.90878907.71542969-.90878907 1.4453125-1.8359375 17.60808289-20.37375036 49.86753992-18.07885055 69.38256836-2.81884766z" transform="translate(692.827881 89.345215)"/><path d="m0 0c67.19921875 0 67.19921875 0 80.16015625 12 9.90629921 10.36921039 12.34810035 21.49731454 12.11328125 35.37109375-.5229242 12.713271-6.60536282 21.2800149-15.4609375 29.87890625-8.56437301 7.34717616-18.66805127 9.89665685-29.7421875 9.84765625-1.16257324-.00249756-2.32514648-.00499512-3.52294922-.00756836-1.45937988-.009104-2.91875976-.01820801-4.42236328-.02758789-4.66125-.020625-9.3225-.04125-14.125-.0625v45c-8.25 0-16.5 0-25 0 0-43.56 0-87.12 0-132zm24 24v40l11.5.125c1.18013672.01820801 2.36027344.03641602 3.57617188.05517578 9.99558912.05230643 17.46722523-1.08354682 24.92382812-8.18017578 3.47684927-4.56336467 3.62903556-9.37790355 3.4765625-14.95703125-.89168654-5.69363782-3.76680886-9.86061683-8.22265625-13.44921875-5.3568753-3.34059039-10.92830607-3.7245328-17.08984375-3.69140625-1.43931885.00374634-1.43931885.00374634-2.90771484.00756836-1.19834473.009104-2.39668946.01820801-3.63134766.02758789-5.754375.0309375-5.754375.0309375-11.625.0625z" transform="translate(248 42)"/><path d="m0 0c2.15087387 1.40288837 4.23108426 2.84824092 6.27734375 4.3984375 0-2.64 0-5.28 0-8h24v96c-7.92 0-15.84 0-24 0 0-2.64 0-5.28 0-8-.76570313.58007812-.76570313.58007812-1.546875 1.171875-12.9758345 9.2947467-27.09705849 10.67847654-42.609375 8.35546875-10.21476949-2.69915586-19.39901996-9.24654339-25.84375-17.52734375-8.15935981-14.25703983-10.65680167-30.80142203-7.3125-46.97265625 3.32321819-11.61741692 9.69901723-22.46533677 20.24609375-28.78515625 15.75240966-8.14169488 35.02718663-9.91231669 50.7890625-.640625zm-43.34765625 28.3359375c-4.67235677 7.00853515-4.00730023 14.98851247-3.375 23.0625 1.90570567 7.96054269 8.43719776 12.74598225 15.0625 16.9375 7.23150119 2.65986251 16.94249859 2.32261519 24-.625 7.56368322-4.10113406 12.39698616-9.01277046 14.9375-17.3125 1.03063011-7.80452961 1.16682897-15.33468743-3.3125-22.06640625-5.58498687-6.39946412-11.6601427-10.40292826-20.203125-11.3046875-11.95228396-.21254061-19.35096654 2.05818366-27.109375 11.30859375z" transform="translate(1061.722656 83.601563)"/><path d="m0 0c.89976563-.020625 1.79953125-.04125 2.7265625-.0625 13.16380796-.07565407 24.72907196 5.10245369 34.1484375 14.3125 11.57007629 14.21466515 12 25.23720757 12 44-24.09 0-48.18 0-73 0 4.43315662 8.86631324 6.73971424 13.38242424 15.45703125 17.02734375 9.06465904 3.02155301 16.69340471 2.6216648 25.54296875-1.02734375 4.75129387-2.72728711 4.75129387-2.72728711 8-7 4.91441412 1.43652105 9.00238358 3.54159615 13.375 6.125.64066406.37253906 1.28132813.74507813 1.94140625 1.12890625 1.56407852.91043377 3.12424909 1.82757566 4.68359375 2.74609375-4.83953868 10.04473139-13.46614285 15.58785506-23.75 19.4375-16.10281417 4.44946181-33.97982277 2.85054197-48.5625-5.1875-10.46521936-6.78458305-18.28187516-16.60882137-21.21875-28.86328125-1.50934305-10.90500351-2.02313581-23.16905318 2.53125-33.38671875.38285156-.99773437.38285156-.99773437.7734375-2.015625 4.9483211-11.53095009 15.20330312-19.62627619 26.5390625-24.296875 6.43239401-2.45487501 11.96170403-2.8992274 18.8125-2.9375zm-21.125 30.25c-2.93933506 3.88750767-3 4.85477615-3 10h50c-1.35681486-8.14088918-4.33466641-12.20095982-11-17-12.7021974-5.20790093-26.57045363-2.8536265-36 7z" transform="translate(1205.125 77.75)"/><path d="m0 0h24c.01458252 1.81121338.02916504 3.62242676.04418945 5.48852539.0517731 6.00318231.11709136 12.00609101.19152546 18.00902653.04461195 3.63743059.08388767 7.27475155.11072064 10.91236019.02612542 3.51451083.06659145 7.0285977.11675071 10.54284477.02465502 1.98448635.03468962 3.96913706.04445839 5.95375252.13391868 10.6968626.13391868 10.6968626 5.80485535 19.4059906 5.64085145 3.54192998 11.12752205 4.48692384 17.6875 3.6875 3.31805142-1.32429273 3.31805142-1.32429273 6-3l3-1c1.16513613-2.19932935 1.16513613-2.19932935 2-5 .51119385-1.4077771.51119385-1.4077771 1.03271484-2.84399414 1.60850233-5.70409678 1.32623831-11.64675917 1.38134766-17.52709961.01936615-1.27746597.0387323-2.55493195.0586853-3.87110901.04948226-3.37500255.09082292-6.74990111.12814331-10.12504578.04020631-3.45255111.09122226-6.90494123.14129639-10.35736084.09584502-6.75836825.17994919-13.51679225.2578125-20.27539062h24v94c-7.92 0-15.84 0-24 0-.33-1.98-.66-3.96-1-6-.58007812.40992188-1.16015625.81984375-1.7578125 1.2421875-.78117188.53882813-1.56234375 1.07765625-2.3671875 1.6328125-.76570312.53367187-1.53140625 1.06734375-2.3203125 1.6171875-8.61663885 5.08566146-19.36566453 4.55931127-28.98046875 2.92578125-9.41173946-2.67337347-16.63157901-8.61310214-21.57421875-17.04296875-3.06028005-5.87303745-4.25197077-11.72873065-4.22705078-18.32006836-.00029205-.65451141-.00058411-1.30902283-.00088501-1.98336792.00137985-2.13727648.01687643-4.27419282.03262329-6.41140747.00373493-1.49214996.00657964-2.98430239.00857544-4.47645569.00759867-3.90773919.02721432-7.81532728.04940796-11.7230072.02054003-3.99534054.02961112-7.99070574.03967285-11.98608398.02138338-7.82494632.05653431-15.64973734.09765625-23.47460938z" transform="translate(902 80)"/><path d="m0 0h24c.01458252 1.81121338.02916504 3.62242676.04418945 5.48852539.0517731 6.00318231.11709136 12.00609101.19152546 18.00902653.04461195 3.63743059.08388767 7.27475155.11072064 10.91236019.02612542 3.51451083.06659145 7.0285977.11675071 10.54284477.02465502 1.98448635.03468962 3.96913706.04445839 5.95375252.13391868 10.6968626.13391868 10.6968626 5.80485535 19.4059906 5.64085145 3.54192998 11.12752205 4.48692384 17.6875 3.6875 3.31805142-1.32429273 3.31805142-1.32429273 6-3l3-1c1.15020525-2.24743756 1.15020525-2.24743756 2-5 .3427597-.92225372.68551941-1.84450745 1.03866577-2.79470825.97971092-3.26656354 1.23640962-5.90281398 1.28018189-9.30245972.01986969-1.18077118.03973938-2.36154236.06021118-3.57809448.01155121-1.25958527.02310241-2.51917053.03500366-3.81692505.01936615-1.30107697.0387323-2.60215393.0586853-3.94265747.05113159-3.44236267.09085808-6.88476425.12814331-10.32730103.04015937-3.51948521.09119699-7.03881123.14129639-10.5581665.09653426-6.893119.18000368-13.78633195.2578125-20.6796875h24v94c-7.92 0-15.84 0-24 0-.33-1.98-.66-3.96-1-6-.58007812.40992188-1.16015625.81984375-1.7578125 1.2421875-.78117187.53882813-1.56234375 1.07765625-2.3671875 1.6328125-.76570313.53367187-1.53140625 1.06734375-2.3203125 1.6171875-8.61663885 5.08566146-19.36566453 4.55931127-28.98046875 2.92578125-9.41173946-2.67337347-16.63157901-8.61310214-21.57421875-17.04296875-3.06028005-5.87303745-4.25197077-11.72873065-4.22705078-18.32006836-.00029205-.65451141-.00058411-1.30902283-.00088501-1.98336792.00137985-2.13727648.01687643-4.27419282.03262329-6.41140747.00373493-1.49214996.00657964-2.98430239.00857544-4.47645569.00759867-3.90773919.02721432-7.81532728.04940796-11.7230072.02054003-3.99534054.02961112-7.99070574.03967285-11.98608398.02138338-7.82494632.05653431-15.64973734.09765625-23.47460938z" transform="translate(342 80)"/><path d="m0 0h24c.02505615 3.20058105.0501123 6.40116211.07592773 9.69873047.08333045 10.55327116.17203463 21.10649217.26341153 31.65969658.05525671 6.40085155.10868109 12.80170764.15797519 19.20260811.04760302 6.17268079.09994432 12.34530461.1556263 18.51791763.02044199 2.35959206.03915197 4.71919977.05613327 7.07881927.0240032 3.29496055.05406333 6.58981263.08560371 9.88470841.0086332 1.4759816.0086332 1.4759816.0174408 2.981781.00978882.89464966.01957764 1.78929932.02966309 2.71105957.00645255.77983687.0129051 1.55967373.01955318 2.36314202.02366137 1.98901089.02366137 1.98901089 1.1386652 3.90153694 3.43812051.76402678 6.46528079 1 10 1 .02887512 3.64581687.04675585 7.29160463.0625 10.9375.00837891 1.04091797.01675781 2.08183594.02539062 3.15429688.00322266.98935546.00644532 1.97871093.00976563 2.99804687.00523682.91644287.01047363 1.83288574.01586914 2.77709961-.11352539 2.13305664-.11352539 2.13305664-1.11352539 3.13305664-3.34478685.30926801-6.70519226.2785878-10.0625.3125-.93005859.02900391-1.86011719.05800781-2.81835938.08789062-6.25324962.05712737-10.90774288-.82497194-16.11914062-4.40039062-5.60647273-5.60647273-6.22780743-11.57711212-6.24884033-19.17149353.00719055-1.07246475.0143811-2.1449295.02178955-3.24989319-.00043808-1.71306587-.00043808-1.71306587-.00088501-3.46073913.0013907-3.7659318.01693997-7.53166451.03262329-11.29756165.00373105-2.61459241.00657759-5.22918621.00857544-7.84378052.00620594-6.17283744.0226047-12.34560369.04269898-18.51840985.02238664-7.03022508.03335937-14.06045363.04339087-21.09070551.02088192-14.45584742.05754703-28.91161787.10064721-43.36741662z" transform="translate(546 44)"/><path d="m0 0c1.61648438.01353516 1.61648438.01353516 3.265625.02734375.81984375.01160156 1.6396875.02320312 2.484375.03515625.10331031 7.42686315-.00137301 14.63512596-1 22-.9178125.09796875-1.835625.1959375-2.78125.296875-8.89673224 1.08405561-15.58834239 2.07271739-22.03125 8.515625-5.26696642 7.6747225-5.64906608 13.74345461-5.69921875 22.90234375-.0179512 1.21087784-.0359024 2.42175568-.05439758 3.66932678-.05399495 3.85107487-.08796516 7.70202652-.12138367 11.55332947-.03318249 2.61785564-.06767301 5.23569505-.10351562 7.85351562-.08726767 6.4030115-.14743251 12.80546784-.20898438 19.20898438-7.92 0-15.84 0-24 0 0-31.35 0-62.7 0-95h24c.33 3.96.66 7.92 1 12 .804375-1.051875 1.60875-2.10375 2.4375-3.1875 6.11996363-7.16660825 13.59543373-9.9751855 22.8125-9.875z" transform="translate(1154.25 77.9375)"/></g><path d="m0 0c3.34815143 1.57698521 5.32561139 3.65122277 7 7 .93138235 10.33681723.93138235 10.33681723-1.75 15.125-5.12863203 4.27386003-9.54648938 4.35054901-16.1015625 4.26953125-4.57593634-.57341138-6.18777304-1.94042271-9.1484375-5.39453125-2.09948946-4.19897892-1.54696419-9.43998333-1-14 4.30223096-8.58840882 12.51567003-7.88599133 21-7z" fill="#29335d" transform="translate(605 38)"/><path d="m0 0c.97484848.00222061 1.94969696.00444122 2.9540863.00672913 1.10106583.00007553 2.20213166.00015106 3.33656311.00022888 1.79684487.00774193 1.79684487.00774193 3.62998963.01564026 1.21936752.00141494 2.43873504.00282989 3.6950531.00428772 3.91287135.00561886 7.82568646.01817456 11.73854065.03086853 2.64518147.00501257 5.29036383.00957589 7.93554687.01367187 6.50067039.01105402 13.00130774.02781049 19.50195313.04882813v2c-.66541306-.00745743-1.33082611-.01491486-2.0164032-.02259827-6.92730843-.0688235-13.85265848-.07488783-20.78022766-.04454041-2.5849919.00308182-5.17005439-.00982864-7.75488281-.0390625-3.71724676-.03926417-7.4304467-.02097296-11.14770508.00854493-1.15537766-.02457779-2.31075531-.04915558-3.50114441-.07447815-3.1868047.05703105-5.77241542.16831587-8.79963684 1.1721344-2.46402408 2.73451425-3.81291969 5.53522867-5 9-.33-.66-.66-1.32-1-2 .7421875-2.12890625.7421875-2.12890625 1.875-4.5625.36867187-.80566407.73734375-1.61132813 1.1171875-2.44140625 1.49870718-2.96836966 1.49870718-2.96836966 4.21607971-3.11634827z" fill="#e08f8a" transform="translate(97.208267 45.879745)"/><path d="m0 0h2c-1.44950455 3.7910119-3.15172566 7.3874638-5 11-.33-.66-.66-1.32-1-2 .77734375-2.1640625.77734375-2.1640625 1.9375-4.625.38027344-.81726562.76054688-1.63453125 1.15234375-2.4765625.30035156-.62648437.60070312-1.25296875.91015625-1.8984375z" fill="#c49494" transform="translate(94 47)"/></svg>