<?xml version="1.0" encoding="UTF-8"?>
<svg version="1.1" viewBox="0 0 2048 417" width="4999" height="1019" xmlns="http://www.w3.org/2000/svg">
<path transform="translate(210,3)" d="m0 0h20l27 2 26 5 20 6 20 8 17 9 17 12 14 12 7 7 2 5-23 23-8 7-14 14-4-2-7-7-15-11-16-9-11-5-15-5-19-4-10-1h-27l-17 2-17 4-19 7-17 9-12 9-10 9-10 11-10 15-8 17-5 15-3 14-2 21v11l2 20 5 21 8 19 9 15 11 14 10 10 15 11 16 9 15 6 13 4 17 3 10 1h25l23-3 19-5 15-6 10-5h2v-124h70v158l-13 10-15 9-15 8-23 9-20 6-23 5-23 3-30 1-27-2-23-4-24-7-19-8-21-11-17-12-11-9-11-10-7-8-12-15-10-16-9-17-8-21-6-24-3-24v-33l3-24 6-24 6-16 9-19 10-16 10-13 9-10 4-5 8-7 13-11 15-10 18-10 18-8 18-6 21-5 21-3z" fill="#19BAD1"/>
<path transform="translate(406,25)" d="m0 0 9 3 36 16 37 16 92 40 131 57 39 17 4 2v64l-29 13-87 38-30 13-41 18-30 13-41 18-69 30-18 8h-3v-70l105-45 53-23 84-36 25-11-34-15-92-40-131-57-10-5z" fill="#19BAD1"/>
<path transform="translate(1401,48)" d="m0 0h19l17 28 19 32 13 21v2h2l2-5 15-26 13-22 17-29 1-1h19l1 43v83h-23l-1-80-17 28-19 32-4 6h-11l-34-56-6-10-1 80h-22z" fill="#19BAD1"/>
<path transform="translate(1041,48)" d="m0 0h59l12 2 13 5 8 6 8 9 4 10 1 4v17l-4 13-6 8-8 7-6 3h-2l7 11 14 20 7 11h-25l-9-12-11-16-6-8h-32l-1 36h-23zm23 20v50h36l10-3 8-6 4-8 1-11-3-10-5-6-8-4-8-2z" fill="#19BAD1"/>
<path transform="translate(1270,46)" d="m0 0 16 1 16 4 12 6-1 6-5 12-5-1-13-5-8-2h-19l-10 3-4 2-2 5-1 2v7l3 5 8 5 25 7 16 5 8 4 9 8 4 8 1 5v11l-4 11-6 8-8 6-12 5-14 2-1 7 6 1 6 4 3 5v11l-6 7-10 4h-16l-8-3 1-6 2-5 9 2h7l5-2v-7l-5-2-9-1 4-15-12-1-15-4-16-8-2-3 7-16 2-1 11 6 13 5 16 2 13-1 10-4 4-5 1-9-4-6-10-5-32-9-12-5-8-6-6-8-2-7v-13l4-11 6-8 10-7 12-4z" fill="#19BAD1"/>
<path transform="translate(1110,233)" d="m0 0h24l1 63 9-10 19-19 7-8 19-19 6-7h27l-6 7-7 7-7 8-8 8-7 8-9 9-7 8 2 5 11 13 11 14 14 17 11 14 5 6v2h-27l-12-14-11-13-9-11-12-14-7 6-12 13-1 33h-23l-1-1z" fill="#19BAD1"/>
<path transform="translate(1927,48)" d="m0 0h23l1 63 20-20 7-8 19-19 7-8 8-8h26l-4 6-13 13-7 8-9 9-7 8-8 8-3 4 2 4 26 32 11 14 14 17 1 3h-27l-9-10-9-11-12-14-11-13-2-3-4 2-16 16-1 33h-23z" fill="#19BAD1"/>
<path transform="translate(901,46)" d="m0 0 16 1 15 4 13 7 9 8-6 7-8 8-4-2-9-6-10-4-5-1h-16l-13 4-10 6-6 7-5 10-2 7v18l4 12 7 10 9 7 10 4 4 1h21l12-4 2-1 1-39h22v51l-14 8-14 5-12 2h-18l-14-3-12-5-10-7-8-7-9-14-4-10-2-11v-16l4-16 6-12 11-12 11-8 14-6 9-2z" fill="#19BAD1"/>
<path transform="translate(1014,233)" d="m0 0h24l16 35 16 36 17 37 7 16v2h-24l-5-10-7-17v-2l-64 1-12 28h-24l3-9 19-42 18-40 15-33zm11 24-23 53v1h47l-3-9-19-44z" fill="#19BAD1"/>
<path transform="translate(1629,46)" d="m0 0 15 1 15 4 11 6 10 9v3l-8 8-5 4-4-2-10-7-13-4h-16l-13 4-10 7-6 7-5 10-2 10v10l3 13 6 10 2 4 4 2 7 5 12 4h20l11-4 9-6 3-3 4 2 12 11-2 4-10 8-12 6-10 3-7 1h-18l-14-3-12-5-11-8-8-8-7-11-4-10-2-9v-22l4-14 7-13 9-10 10-7 10-5 14-4z" fill="#19BAD1"/>
<path transform="translate(827,233)" d="m0 0h25l13 29 15 35 13 30 1 1 20-46 17-39 5-10h23l-3 9-13 29-13 30-17 39-8 18-1 1h-23l-36-82-13-30-5-12z" fill="#19BAD1"/>
<path transform="translate(1242,233)" d="m0 0h92v19h-69v39h61v19l-60 1-1 48h-23z" fill="#19BAD1"/>
<path transform="translate(1761,48)" d="m0 0h23l1 1v105h65l1 1v19h-90z" fill="#19BAD1"/>
<path transform="translate(1356,233)" d="m0 0h24v126h-23l-1-1z" fill="#19BAD1"/>
<path transform="translate(1343,48)" d="m0 0h23l1 1v125h-24z" fill="#19BAD1"/>
<path transform="translate(1173,48)" d="m0 0h23v126h-24v-125z" fill="#19BAD1"/>
<path transform="translate(983,48)" d="m0 0h23l1 1v125h-24z" fill="#19BAD1"/>
<path transform="translate(1869,48)" d="m0 0h23l1 2v123l-1 1h-23z" fill="#19BAD1"/>
<path transform="translate(1704,48)" d="m0 0h23v126h-23z" fill="#19BAD1"/>
<path transform="translate(1181,10)" d="m0 0 9 1 5 4 2 5-1 9-4 5-5 2-9-1-5-4-2-5 1-9 4-5z" fill="#19BAD1"/>
<path transform="translate(1352,10)" d="m0 0 9 1 5 5 2 5-1 8-5 5-4 2-9-1-5-4-2-4v-8l4-6z" fill="#19BAD1"/>
<path transform="translate(992,10)" d="m0 0 9 1 5 5 2 5-1 8-5 5-4 2-9-1-5-4-2-5v-7l4-6z" fill="#19BAD1"/>
<path transform="translate(1878,10)" d="m0 0 9 1 5 5 2 8-3 8-7 4-9-1-5-4-2-4v-8l4-6z" fill="#19BAD1"/>
<path transform="translate(1712,10)" d="m0 0 9 1 6 5 1 3v8l-3 5-4 3-9 1-5-3-4-5v-10l5-6z" fill="#19BAD1"/>
</svg>
